<?xml version="1.0" encoding="utf-8"?>
<!-- Generator: Adobe Illustrator 25.1.0, SVG Export Plug-In . SVG Version: 6.00 Build 0)  -->
<svg version="1.1" xmlns="http://www.w3.org/2000/svg" xmlns:xlink="http://www.w3.org/1999/xlink" x="0px" y="0px"
	 viewBox="0 0 451.9 466.5" style="enable-background:new 0 0 451.9 466.5;" xml:space="preserve">
<style type="text/css">
	.st0{fill:#FFFFFF;}
	.st1{display:none;}
	.st2{display:inline;fill:#FFFFFF;stroke:#3F5EAB;stroke-width:2;}
	.st3{fill:#D5D4D4;stroke:#3F5EAB;stroke-width:2;}
	.st4{fill:none;stroke:#3F5EAB;stroke-width:2;}
	.st5{fill:none;}
	.st6{fill:#3F5EAB;}
	.st7{fill:#3FAA49;}
	.st8{fill:none;stroke:#3F5EAB;stroke-miterlimit:10;}
	.st9{display:inline;}
	.st10{font-family:'TimesNewRomanPSMT';}
	.st11{font-size:11px;}
	.st12{letter-spacing:1;}
	.st13{font-family:'Arial-BoldMT';}
	.st14{font-size:16px;}
</style>
<g id="Layer_3">
	<g id="Layer_1_2_">
		<rect x="41.4" y="39.7" class="st0" width="405.6" height="386.6"/>
		<g>
			<g class="st1">
				<path class="st2" d="M411.7,3.7c19.6,0,35.5,15.8,35.8,35.3H5.8C6,19.5,22,3.7,41.5,3.7H411.7z"/>
				<path class="st2" d="M411.2,462.3c19.6,0,35.5-15.8,35.8-35.3H5.3c0.2,19.5,16.2,35.3,35.7,35.3H411.2z"/>
				<rect x="5.3" y="39.9" class="st2" width="441.7" height="386.2"/>
			</g>
			<path class="st3" d="M411.2,3.7c19.6,0,35.5,15.8,35.8,35.3H5.3C5.5,19.5,21.5,3.7,41.1,3.7H411.2z"/>
			<path class="st3" d="M411.2,462.1c19.6,0,35.5-15.8,35.8-35.3H5.3c0.2,19.5,16.2,35.3,35.8,35.3H411.2z"/>
			<rect x="5.3" y="39" class="st3" width="36.1" height="388"/>
			<line class="st4" x1="447" y1="39.4" x2="447" y2="426.5"/>
			<rect x="59.7" y="11" class="st5" width="354.6" height="24.9"/>
		</g>
		<rect x="70.3" y="53.1" class="st5" width="215.5" height="348.8"/>
	</g>
	<g id="Layer_2_2_">
		<g>
			<path class="st6" d="M23.7,76.8c-6.5-0.1-11.9-5.4-11.8-11.9c0.1-6.8,5.4-11.8,11.9-11.8c6.6,0,11.9,5.3,11.9,11.8
				C35.6,71.5,30.3,76.8,23.7,76.8z M22.7,55.7c-2.8-0.2-6.4,2.5-7.8,5.8c-1.3,3.1-0.6,7.6,1.5,9.3c2-2,4-4,5.9-6
				c0.2-0.2,0.3-0.7,0.3-1c0-1.5,0-3,0-4.5C22.7,58,22.7,56.8,22.7,55.7z M31.3,70.7c2.2-2.2,2.7-6.4,1.3-9.7
				c-1.4-3.1-4.8-5.5-7.5-5.4c0,0.1-0.1,0.1-0.1,0.2c0,2.8,0,5.5,0,8.3c0,0.2,0.1,0.5,0.3,0.7C27.2,66.7,29.2,68.7,31.3,70.7z
				 M22.6,74.3c0-2.1,0-4.2,0-6.3c-0.1-0.1-0.2-0.1-0.3-0.2c-1.5,1.5-3,3-4.5,4.5C19.3,73.5,21.1,74.3,22.6,74.3z M25,68
				c0,2.1,0,4.2,0,6.4c1.8-0.2,3.3-0.8,4.5-1.8C28,71,26.5,69.5,25,68z"/>
		</g>
		<g>
			<path class="st6" d="M23.7,132.5c-6.5-0.1-11.9-5.4-11.8-11.9c0.1-6.8,5.4-11.8,11.9-11.8c6.6,0,11.9,5.3,11.9,11.8
				C35.6,127.3,30.3,132.6,23.7,132.5z M22.7,111.4c-2.8-0.2-6.4,2.5-7.8,5.8c-1.3,3.1-0.6,7.6,1.5,9.3c2-2,4-4,5.9-6
				c0.2-0.2,0.3-0.7,0.3-1c0-1.5,0-3,0-4.5C22.7,113.8,22.7,112.6,22.7,111.4z M31.3,126.5c2.2-2.2,2.7-6.4,1.3-9.7
				c-1.4-3.1-4.8-5.5-7.5-5.4c0,0.1-0.1,0.1-0.1,0.2c0,2.8,0,5.5,0,8.3c0,0.2,0.1,0.5,0.3,0.7C27.2,122.5,29.2,124.5,31.3,126.5z
				 M22.6,130c0-2.1,0-4.2,0-6.3c-0.1-0.1-0.2-0.1-0.3-0.2c-1.5,1.5-3,3-4.5,4.5C19.3,129.3,21.1,130,22.6,130z M25,123.7
				c0,2.1,0,4.2,0,6.4c1.8-0.2,3.3-0.8,4.5-1.8C28,126.7,26.5,125.2,25,123.7z"/>
		</g>
		<g>
			<path class="st6" d="M23.7,188.3c-6.5-0.1-11.9-5.4-11.8-11.9c0.1-6.8,5.4-11.8,11.9-11.8c6.6,0,11.9,5.3,11.9,11.8
				C35.6,183,30.3,188.3,23.7,188.3z M22.7,167.2c-2.8-0.2-6.4,2.5-7.8,5.8c-1.3,3.1-0.6,7.6,1.5,9.3c2-2,4-4,5.9-6
				c0.2-0.2,0.3-0.7,0.3-1c0-1.5,0-3,0-4.5C22.7,169.5,22.7,168.3,22.7,167.2z M31.3,182.2c2.2-2.2,2.7-6.4,1.3-9.7
				c-1.4-3.1-4.8-5.5-7.5-5.4c0,0.1-0.1,0.1-0.1,0.2c0,2.8,0,5.5,0,8.3c0,0.2,0.1,0.5,0.3,0.7C27.2,178.2,29.2,180.2,31.3,182.2z
				 M22.6,185.8c0-2.1,0-4.2,0-6.3c-0.1-0.1-0.2-0.1-0.3-0.2c-1.5,1.5-3,3-4.5,4.5C19.3,185,21.1,185.8,22.6,185.8z M25,179.5
				c0,2.1,0,4.2,0,6.4c1.8-0.2,3.3-0.8,4.5-1.8C28,182.5,26.5,181,25,179.5z"/>
		</g>
		<g>
			<g>
				<path class="st7" d="M23.7,244c-6.5-0.1-11.9-5.4-11.8-11.9c0.1-6.8,5.4-11.8,11.9-11.8c6.6,0,11.9,5.3,11.9,11.8
					C35.6,238.8,30.3,244.1,23.7,244z M22.7,222.9c-2.8-0.2-6.4,2.5-7.8,5.8c-1.3,3.1-0.6,7.6,1.5,9.3c2-2,4-4,5.9-6
					c0.2-0.2,0.3-0.7,0.3-1c0-1.5,0-3,0-4.5C22.7,225.3,22.7,224.1,22.7,222.9z M31.3,238c2.2-2.2,2.7-6.4,1.3-9.7
					c-1.4-3.1-4.8-5.5-7.5-5.4c0,0.1-0.1,0.1-0.1,0.2c0,2.8,0,5.5,0,8.3c0,0.2,0.1,0.5,0.3,0.7C27.2,234,29.2,236,31.3,238z
					 M22.6,241.5c0-2.1,0-4.2,0-6.3c-0.1-0.1-0.2-0.1-0.3-0.2c-1.5,1.5-3,3-4.5,4.5C19.3,240.8,21.1,241.5,22.6,241.5z M25,235.2
					c0,2.1,0,4.2,0,6.4c1.8-0.2,3.3-0.8,4.5-1.8C28,238.2,26.5,236.7,25,235.2z"/>
			</g>
		</g>
		<g>
			<path class="st6" d="M23.7,299.8c-6.5-0.1-11.9-5.4-11.8-11.9c0.1-6.8,5.4-11.8,11.9-11.8c6.6,0,11.9,5.3,11.9,11.8
				C35.6,294.5,30.3,299.8,23.7,299.8z M22.7,278.7c-2.8-0.2-6.4,2.5-7.8,5.8c-1.3,3.1-0.6,7.6,1.5,9.3c2-2,4-4,5.9-6
				c0.2-0.2,0.3-0.7,0.3-1c0-1.5,0-3,0-4.5C22.7,281,22.7,279.8,22.7,278.7z M31.3,293.7c2.2-2.2,2.7-6.4,1.3-9.7
				c-1.4-3.1-4.8-5.5-7.5-5.4c0,0.1-0.1,0.1-0.1,0.2c0,2.8,0,5.5,0,8.3c0,0.2,0.1,0.5,0.3,0.7C27.2,289.7,29.2,291.7,31.3,293.7z
				 M22.6,297.3c0-2.1,0-4.2,0-6.3c-0.1-0.1-0.2-0.1-0.3-0.2c-1.5,1.5-3,3-4.5,4.5C19.3,296.5,21.1,297.3,22.6,297.3z M25,291
				c0,2.1,0,4.2,0,6.4c1.8-0.2,3.3-0.8,4.5-1.8C28,294,26.5,292.5,25,291z"/>
		</g>
		<g>
			<path class="st6" d="M23.7,355.5c-6.5-0.1-11.9-5.4-11.8-11.9c0.1-6.8,5.4-11.8,11.9-11.8c6.6,0,11.9,5.3,11.9,11.8
				C35.6,350.3,30.3,355.6,23.7,355.5z M22.7,334.4c-2.8-0.2-6.4,2.5-7.8,5.8c-1.3,3.1-0.6,7.6,1.5,9.3c2-2,4-4,5.9-6
				c0.2-0.2,0.3-0.7,0.3-1c0-1.5,0-3,0-4.5C22.7,336.8,22.7,335.6,22.7,334.4z M31.3,349.5c2.2-2.2,2.7-6.4,1.3-9.7
				c-1.4-3.1-4.8-5.5-7.5-5.4c0,0.1-0.1,0.1-0.1,0.2c0,2.8,0,5.5,0,8.3c0,0.2,0.1,0.5,0.3,0.7C27.2,345.5,29.2,347.5,31.3,349.5z
				 M22.6,353c0-2.1,0-4.2,0-6.3c-0.1-0.1-0.2-0.1-0.3-0.2c-1.5,1.5-3,3-4.5,4.5C19.3,352.3,21.1,353,22.6,353z M25,346.7
				c0,2.1,0,4.2,0,6.4c1.8-0.2,3.3-0.8,4.5-1.8C28,349.7,26.5,348.2,25,346.7z"/>
		</g>
		<g>
			<path class="st6" d="M23.7,411.3c-6.5-0.1-11.9-5.4-11.8-11.9c0.1-6.8,5.4-11.8,11.9-11.8c6.6,0,11.9,5.3,11.9,11.8
				C35.6,406,30.3,411.3,23.7,411.3z M22.7,390.2c-2.8-0.2-6.4,2.5-7.8,5.8c-1.3,3.1-0.6,7.6,1.5,9.3c2-2,4-4,5.9-6
				c0.2-0.2,0.3-0.7,0.3-1c0-1.5,0-3,0-4.5C22.7,392.5,22.7,391.3,22.7,390.2z M31.3,405.2c2.2-2.2,2.7-6.4,1.3-9.7
				c-1.4-3.1-4.8-5.5-7.5-5.4c0,0.1-0.1,0.1-0.1,0.2c0,2.8,0,5.5,0,8.3c0,0.2,0.1,0.5,0.3,0.7C27.2,401.2,29.2,403.2,31.3,405.2z
				 M22.6,408.8c0-2.1,0-4.2,0-6.3c-0.1-0.1-0.2-0.1-0.3-0.2c-1.5,1.5-3,3-4.5,4.5C19.3,408,21.1,408.8,22.6,408.8z M25,402.5
				c0,2.1,0,4.2,0,6.4c1.8-0.2,3.3-0.8,4.5-1.8C28,405.5,26.5,404,25,402.5z"/>
		</g>
		<rect x="303.2" y="53.3" class="st8" width="128.5" height="128.5"/>
	</g>
</g>
<g id="Layer_1" class="st1">
	<g id="Layer_1_1_" class="st9">
		<rect x="58.3" y="39.7" class="st0" width="388.7" height="386.6"/>
		<g>
			<g class="st1">
				<path class="st2" d="M411.7,3.7c19.6,0,35.5,15.8,35.8,35.3H5.8C6,19.5,22,3.7,41.5,3.7H411.7z"/>
				<path class="st2" d="M411.2,462.3c19.6,0,35.5-15.8,35.8-35.3H5.3c0.2,19.5,16.2,35.3,35.7,35.3H411.2z"/>
				<rect x="5.3" y="39.9" class="st2" width="441.7" height="386.2"/>
			</g>
			<path class="st3" d="M411.2,3.7c19.6,0,35.5,15.8,35.8,35.3H5.3C5.5,19.5,21.5,3.7,41.1,3.7H411.2z"/>
			<path class="st3" d="M411.2,462.1c19.6,0,35.5-15.8,35.8-35.3H5.3c0.2,19.5,16.2,35.3,35.8,35.3H411.2z"/>
			<rect x="5.3" y="39" class="st3" width="53" height="388"/>
			<line class="st4" x1="447" y1="39.4" x2="447" y2="426.5"/>
			<rect x="59.7" y="11" class="st5" width="354.6" height="24.9"/>
		</g>
		<rect x="70.3" y="53.1" class="st5" width="215.5" height="348.8"/>
	</g>
	<g id="Layer_2_1_" class="st9">
		<g>
			<path class="st6" d="M31.7,76.8c-6.5-0.1-11.9-5.4-11.8-11.9c0.1-6.8,5.4-11.8,11.9-11.8c6.6,0,11.9,5.3,11.9,11.8
				C43.6,71.5,38.3,76.8,31.7,76.8z M30.7,55.7c-2.8-0.2-6.4,2.5-7.8,5.8c-1.3,3.1-0.6,7.6,1.5,9.3c2-2,4-4,5.9-6
				c0.2-0.2,0.3-0.7,0.3-1c0-1.5,0-3,0-4.5C30.7,58,30.7,56.8,30.7,55.7z M39.3,70.7c2.2-2.2,2.7-6.4,1.3-9.7
				c-1.4-3.1-4.8-5.5-7.5-5.4c0,0.1-0.1,0.1-0.1,0.2c0,2.8,0,5.5,0,8.3c0,0.2,0.1,0.5,0.3,0.7C35.2,66.7,37.2,68.7,39.3,70.7z
				 M30.6,74.3c0-2.1,0-4.2,0-6.3c-0.1-0.1-0.2-0.1-0.3-0.2c-1.5,1.5-3,3-4.5,4.5C27.3,73.5,29.1,74.3,30.6,74.3z M33,68
				c0,2.1,0,4.2,0,6.4c1.8-0.2,3.3-0.8,4.5-1.8C36,71,34.5,69.5,33,68z"/>
		</g>
		<g>
			<path class="st6" d="M31.7,132.5c-6.5-0.1-11.9-5.4-11.8-11.9c0.1-6.8,5.4-11.8,11.9-11.8c6.6,0,11.9,5.3,11.9,11.8
				C43.6,127.3,38.3,132.6,31.7,132.5z M30.7,111.4c-2.8-0.2-6.4,2.5-7.8,5.8c-1.3,3.1-0.6,7.6,1.5,9.3c2-2,4-4,5.9-6
				c0.2-0.2,0.3-0.7,0.3-1c0-1.5,0-3,0-4.5C30.7,113.8,30.7,112.6,30.7,111.4z M39.3,126.5c2.2-2.2,2.7-6.4,1.3-9.7
				c-1.4-3.1-4.8-5.5-7.5-5.4c0,0.1-0.1,0.1-0.1,0.2c0,2.8,0,5.5,0,8.3c0,0.2,0.1,0.5,0.3,0.7C35.2,122.5,37.2,124.5,39.3,126.5z
				 M30.6,130c0-2.1,0-4.2,0-6.3c-0.1-0.1-0.2-0.1-0.3-0.2c-1.5,1.5-3,3-4.5,4.5C27.3,129.3,29.1,130,30.6,130z M33,123.7
				c0,2.1,0,4.2,0,6.4c1.8-0.2,3.3-0.8,4.5-1.8C36,126.7,34.5,125.2,33,123.7z"/>
		</g>
		<g>
			<path class="st6" d="M31.7,188.3c-6.5-0.1-11.9-5.4-11.8-11.9c0.1-6.8,5.4-11.8,11.9-11.8c6.6,0,11.9,5.3,11.9,11.8
				C43.6,183,38.3,188.3,31.7,188.3z M30.7,167.2c-2.8-0.2-6.4,2.5-7.8,5.8c-1.3,3.1-0.6,7.6,1.5,9.3c2-2,4-4,5.9-6
				c0.2-0.2,0.3-0.7,0.3-1c0-1.5,0-3,0-4.5C30.7,169.5,30.7,168.3,30.7,167.2z M39.3,182.2c2.2-2.2,2.7-6.4,1.3-9.7
				c-1.4-3.1-4.8-5.5-7.5-5.4c0,0.1-0.1,0.1-0.1,0.2c0,2.8,0,5.5,0,8.3c0,0.2,0.1,0.5,0.3,0.7C35.2,178.2,37.2,180.2,39.3,182.2z
				 M30.6,185.8c0-2.1,0-4.2,0-6.3c-0.1-0.1-0.2-0.1-0.3-0.2c-1.5,1.5-3,3-4.5,4.5C27.3,185,29.1,185.8,30.6,185.8z M33,179.5
				c0,2.1,0,4.2,0,6.4c1.8-0.2,3.3-0.8,4.5-1.8C36,182.5,34.5,181,33,179.5z"/>
		</g>
		<g>
			<g>
				<path class="st7" d="M31.7,244c-6.5-0.1-11.9-5.4-11.8-11.9c0.1-6.8,5.4-11.8,11.9-11.8c6.6,0,11.9,5.3,11.9,11.8
					C43.6,238.8,38.3,244.1,31.7,244z M30.7,222.9c-2.8-0.2-6.4,2.5-7.8,5.8c-1.3,3.1-0.6,7.6,1.5,9.3c2-2,4-4,5.9-6
					c0.2-0.2,0.3-0.7,0.3-1c0-1.5,0-3,0-4.5C30.7,225.3,30.7,224.1,30.7,222.9z M39.3,238c2.2-2.2,2.7-6.4,1.3-9.7
					c-1.4-3.1-4.8-5.5-7.5-5.4c0,0.1-0.1,0.1-0.1,0.2c0,2.8,0,5.5,0,8.3c0,0.2,0.1,0.5,0.3,0.7C35.2,234,37.2,236,39.3,238z
					 M30.6,241.5c0-2.1,0-4.2,0-6.3c-0.1-0.1-0.2-0.1-0.3-0.2c-1.5,1.5-3,3-4.5,4.5C27.3,240.8,29.1,241.5,30.6,241.5z M33,235.2
					c0,2.1,0,4.2,0,6.4c1.8-0.2,3.3-0.8,4.5-1.8C36,238.2,34.5,236.7,33,235.2z"/>
			</g>
		</g>
		<g>
			<path class="st6" d="M31.7,299.8c-6.5-0.1-11.9-5.4-11.8-11.9c0.1-6.8,5.4-11.8,11.9-11.8c6.6,0,11.9,5.3,11.9,11.8
				C43.6,294.5,38.3,299.8,31.7,299.8z M30.7,278.7c-2.8-0.2-6.4,2.5-7.8,5.8c-1.3,3.1-0.6,7.6,1.5,9.3c2-2,4-4,5.9-6
				c0.2-0.2,0.3-0.7,0.3-1c0-1.5,0-3,0-4.5C30.7,281,30.7,279.8,30.7,278.7z M39.3,293.7c2.2-2.2,2.7-6.4,1.3-9.7
				c-1.4-3.1-4.8-5.5-7.5-5.4c0,0.1-0.1,0.1-0.1,0.2c0,2.8,0,5.5,0,8.3c0,0.2,0.1,0.5,0.3,0.7C35.2,289.7,37.2,291.7,39.3,293.7z
				 M30.6,297.3c0-2.1,0-4.2,0-6.3c-0.1-0.1-0.2-0.1-0.3-0.2c-1.5,1.5-3,3-4.5,4.5C27.3,296.5,29.1,297.3,30.6,297.3z M33,291
				c0,2.1,0,4.2,0,6.4c1.8-0.2,3.3-0.8,4.5-1.8C36,294,34.5,292.5,33,291z"/>
		</g>
		<g>
			<path class="st6" d="M31.7,355.5c-6.5-0.1-11.9-5.4-11.8-11.9c0.1-6.8,5.4-11.8,11.9-11.8c6.6,0,11.9,5.3,11.9,11.8
				C43.6,350.3,38.3,355.6,31.7,355.5z M30.7,334.4c-2.8-0.2-6.4,2.5-7.8,5.8c-1.3,3.1-0.6,7.6,1.5,9.3c2-2,4-4,5.9-6
				c0.2-0.2,0.3-0.7,0.3-1c0-1.5,0-3,0-4.5C30.7,336.8,30.7,335.6,30.7,334.4z M39.3,349.5c2.2-2.2,2.7-6.4,1.3-9.7
				c-1.4-3.1-4.8-5.5-7.5-5.4c0,0.1-0.1,0.1-0.1,0.2c0,2.8,0,5.5,0,8.3c0,0.2,0.1,0.5,0.3,0.7C35.2,345.5,37.2,347.5,39.3,349.5z
				 M30.6,353c0-2.1,0-4.2,0-6.3c-0.1-0.1-0.2-0.1-0.3-0.2c-1.5,1.5-3,3-4.5,4.5C27.3,352.3,29.1,353,30.6,353z M33,346.7
				c0,2.1,0,4.2,0,6.4c1.8-0.2,3.3-0.8,4.5-1.8C36,349.7,34.5,348.2,33,346.7z"/>
		</g>
		<g>
			<path class="st6" d="M31.7,411.3c-6.5-0.1-11.9-5.4-11.8-11.9c0.1-6.8,5.4-11.8,11.9-11.8c6.6,0,11.9,5.3,11.9,11.8
				C43.6,406,38.3,411.3,31.7,411.3z M30.7,390.2c-2.8-0.2-6.4,2.5-7.8,5.8c-1.3,3.1-0.6,7.6,1.5,9.3c2-2,4-4,5.9-6
				c0.2-0.2,0.3-0.7,0.3-1c0-1.5,0-3,0-4.5C30.7,392.5,30.7,391.3,30.7,390.2z M39.3,405.2c2.2-2.2,2.7-6.4,1.3-9.7
				c-1.4-3.1-4.8-5.5-7.5-5.4c0,0.1-0.1,0.1-0.1,0.2c0,2.8,0,5.5,0,8.3c0,0.2,0.1,0.5,0.3,0.7C35.2,401.2,37.2,403.2,39.3,405.2z
				 M30.6,408.8c0-2.1,0-4.2,0-6.3c-0.1-0.1-0.2-0.1-0.3-0.2c-1.5,1.5-3,3-4.5,4.5C27.3,408,29.1,408.8,30.6,408.8z M33,402.5
				c0,2.1,0,4.2,0,6.4c1.8-0.2,3.3-0.8,4.5-1.8C36,405.5,34.5,404,33,402.5z"/>
		</g>
		<rect x="303.2" y="53.3" class="st8" width="128.5" height="128.5"/>
	</g>
</g>
<g id="Layer_2">
	<rect x="54" y="53.1" class="st5" width="214.8" height="340.3"/>
	<text transform="matrix(1 0 0 1 54.0488 60.7451)" class="st10 st11">Topic:</text>
	<text transform="matrix(1.0188 0 0 1 54.0488 72.7451)" class="st10 st11">Makin</text>
	<text transform="matrix(1.0188 0 0 1 83.583 72.7451)" class="st10 st11">g</text>
	<text transform="matrix(1.0188 0 0 1 89.1865 72.7451)" class="st10 st11"> </text>
	<text transform="matrix(1.0188 0 0 1 92.9688 72.7451)" class="st10 st11">Grea</text>
	<text transform="matrix(1.0188 0 0 1 114.9624 72.7451)" class="st10 st11">t</text>
	<text transform="matrix(1.0188 0 0 1 118.0762 72.7451)" class="st10 st11"> </text>
	<text transform="matrix(1.0188 0 0 1 121.8584 72.7451)" class="st10 st11">Strategy</text>
	<text transform="matrix(1.0188 0 0 1 159.6455 72.7451)" class="st10 st11">:</text>
	<text transform="matrix(1.0188 0 0 1 162.7593 72.7451)" class="st10 st11"> </text>
	<text transform="matrix(1.0188 0 0 1 166.542 72.7451)" class="st10 st11">Arguin</text>
	<text transform="matrix(1.0188 0 0 1 198.6216 72.7451)" class="st10 st11">g</text>
	<text transform="matrix(1.0188 0 0 1 204.2251 72.7451)" class="st10 st11"> </text>
	<text transform="matrix(1.0188 0 0 1 208.0073 72.7451)" class="st10 st11">You</text>
	<text transform="matrix(1.0188 0 0 1 227.4727 72.7451)" class="st10 st11">r</text>
	<text transform="matrix(1.0188 0 0 1 231.2041 72.7451)" class="st10 st11"> </text>
	<text transform="matrix(1.0188 0 0 1 234.9863 72.7451)" class="st10 st11">Wa</text>
	<text transform="matrix(1.0188 0 0 1 250.6475 72.7451)" class="st10 st11">y</text>
	<text transform="matrix(1.0188 0 0 1 256.251 72.7451)" class="st10 st11"> </text>
	<text transform="matrix(1.0188 0 0 1 260.0332 72.7451)" class="st10 st11">t</text>
	<text transform="matrix(1.0188 0 0 1 263.2012 72.7451)" class="st10 st11">o </text>
	<text transform="matrix(1 0 0 1 54.0488 84.7451)" class="st10 st11">Strategic Clarity</text>
	<text transform="matrix(1 0 0 1 54.0488 108.7451)" class="st10 st11">Speaker:</text>
	<text transform="matrix(1 0 0 1 54.0488 120.7451)" class="st10 st11">Jesper</text>
	<text transform="matrix(1 0 0 1 81.5381 120.7451)" class="st10 st11"> </text>
	<text transform="matrix(1 0 0 1 84.5449 120.7451)" class="st10 st11">B.</text>
	<text transform="matrix(1 0 0 1 94.6318 120.7451)" class="st10 st11"> </text>
	<text transform="matrix(1 0 0 1 97.6382 120.7451)" class="st10 st11">Sørensen,</text>
	<text transform="matrix(1 0 0 1 140.7144 120.7451)" class="st10 st11"> </text>
	<text transform="matrix(1 0 0 1 143.7212 120.7451)" class="st10 st11">Jeffe</text>
	<text transform="matrix(1 0 0 1 165.0928 120.7451)" class="st10 st11"> </text>
	<text transform="matrix(1 0 0 1 168.0996 120.7451)" class="st10 st11">Professor</text>
	<text transform="matrix(1 0 0 1 209.6504 120.7451)" class="st10 st11"> </text>
	<text transform="matrix(1 0 0 1 212.6562 120.7451)" class="st10 st11">of</text>
	<text transform="matrix(1 0 0 1 221.8193 120.7451)" class="st10 st11"> </text>
	<text transform="matrix(1 0 0 1 224.8262 120.7451)" class="st10 st11">Organiza</text>
	<text transform="matrix(1 0 0 1 265.1377 120.7451)" class="st10 st11">-</text>
	<text transform="matrix(1.02 0 0 1 54.0488 132.7451)" class="st10 st11">tiona</text>
	<text transform="matrix(1.02 0 0 1 76.79 132.7451)" class="st10 st11">l</text>
	<text transform="matrix(1.02 0 0 1 79.9072 132.7451)" class="st10 st11 st12"> </text>
	<text transform="matrix(1.02 0 0 1 84.4541 132.7451)" class="st10 st11">Behavior</text>
	<text transform="matrix(1.02 0 0 1 126.0723 132.7451)" class="st10 st11">,</text>
	<text transform="matrix(1.02 0 0 1 128.8774 132.7451)" class="st10 st11 st12"> </text>
	<text transform="matrix(1.02 0 0 1 133.4243 132.7451)" class="st10 st11">Stanfor</text>
	<text transform="matrix(1.02 0 0 1 166.8843 132.7451)" class="st10 st11">d</text>
	<text transform="matrix(1.02 0 0 1 172.4941 132.7451)" class="st10 st11 st12"> </text>
	<text transform="matrix(1.02 0 0 1 177.0405 132.7451)" class="st10 st11">Graduat</text>
	<text transform="matrix(1.02 0 0 1 213.6064 132.7451)" class="st10 st11">e</text>
	<text transform="matrix(1.02 0 0 1 218.5859 132.7451)" class="st10 st11 st12"> </text>
	<text transform="matrix(1.02 0 0 1 223.1318 132.7451)" class="st10 st11">Schoo</text>
	<text transform="matrix(1.02 0 0 1 251.4902 132.7451)" class="st10 st11">l</text>
	<text transform="matrix(1.02 0 0 1 254.6074 132.7451)" class="st10 st11 st12"> </text>
	<text transform="matrix(1.02 0 0 1 259.1533 132.7451)" class="st10 st11">o</text>
	<text transform="matrix(1.02 0 0 1 264.8252 132.7451)" class="st10 st11">f </text>
	<text transform="matrix(1 0 0 1 54.0488 144.7451)" class="st10 st11">Business</text>
	<text transform="matrix(1 0 0 1 54.0488 168.7451)" class="st10 st11">Summary:</text>
	<text transform="matrix(1 0 0 1 54.0488 180.7451)" class="st10 st11">Is</text>
	<text transform="matrix(1 0 0 1 61.9927 180.7451)" class="st10 st11"> </text>
	<text transform="matrix(1 0 0 1 64.3081 180.7451)" class="st10 st11">strategy</text>
	<text transform="matrix(1 0 0 1 99.1289 180.7451)" class="st10 st11"> </text>
	<text transform="matrix(1 0 0 1 101.4443 180.7451)" class="st10 st11">a</text>
	<text transform="matrix(1 0 0 1 106.3267 180.7451)" class="st10 st11"> </text>
	<text transform="matrix(1 0 0 1 108.6421 180.7451)" class="st10 st11">participation</text>
	<text transform="matrix(1 0 0 1 164.2329 180.7451)" class="st10 st11"> </text>
	<text transform="matrix(1 0 0 1 166.5488 180.7451)" class="st10 st11">sport</text>
	<text transform="matrix(1 0 0 1 188.5488 180.7451)" class="st10 st11"> </text>
	<text transform="matrix(1 0 0 1 190.8643 180.7451)" class="st10 st11">at</text>
	<text transform="matrix(1 0 0 1 198.8027 180.7451)" class="st10 st11"> </text>
	<text transform="matrix(1 0 0 1 201.1182 180.7451)" class="st10 st11">your</text>
	<text transform="matrix(1 0 0 1 221.2803 180.7451)" class="st10 st11"> </text>
	<text transform="matrix(1 0 0 1 223.5957 180.7451)" class="st10 st11">company? </text>
	<text transform="matrix(1.0056 0 0 1 54.0488 192.7451)" class="st10 st11">I</text>
	<text transform="matrix(1.0056 0 0 1 57.7876 192.7451)" class="st10 st11">n</text>
	<text transform="matrix(1.0056 0 0 1 63.3184 192.7451)" class="st10 st11"> </text>
	<text transform="matrix(1.0056 0 0 1 67.0513 192.7451)" class="st10 st11">thes</text>
	<text transform="matrix(1.0056 0 0 1 85.0894 192.7451)" class="st10 st11">e</text>
	<text transform="matrix(1.0056 0 0 1 89.999 192.7451)" class="st10 st11"> </text>
	<text transform="matrix(1.0056 0 0 1 93.7319 192.7451)" class="st10 st11">chaotic</text>
	<text transform="matrix(1.0056 0 0 1 126.0542 192.7451)" class="st10 st11">,</text>
	<text transform="matrix(1.0056 0 0 1 128.8193 192.7451)" class="st10 st11"> </text>
	<text transform="matrix(1.0056 0 0 1 132.5522 192.7451)" class="st10 st11">fast-changin</text>
	<text transform="matrix(1.0056 0 0 1 187.8823 192.7451)" class="st10 st11">g</text>
	<text transform="matrix(1.0056 0 0 1 193.4131 192.7451)" class="st10 st11"> </text>
	<text transform="matrix(1.0056 0 0 1 197.1465 192.7451)" class="st10 st11">times</text>
	<text transform="matrix(1.0056 0 0 1 221.3848 192.7451)" class="st10 st11">,</text>
	<text transform="matrix(1.0056 0 0 1 224.1504 192.7451)" class="st10 st11"> </text>
	<text transform="matrix(1.0056 0 0 1 227.8848 192.7451)" class="st10 st11">everyon</text>
	<text transform="matrix(1.0056 0 0 1 263.8926 192.7451)" class="st10 st11">e </text>
	<text transform="matrix(1 0 0 1 54.0488 204.7451)" class="st10 st11">should</text>
	<text transform="matrix(1 0 0 1 83.3857 204.7451)" class="st10 st11"> </text>
	<text transform="matrix(1 0 0 1 86.4839 204.7451)" class="st10 st11">be</text>
	<text transform="matrix(1 0 0 1 96.8662 204.7451)" class="st10 st11"> </text>
	<text transform="matrix(1 0 0 1 99.9644 204.7451)" class="st10 st11">empowered</text>
	<text transform="matrix(1 0 0 1 151.2744 204.7451)" class="st10 st11"> </text>
	<text transform="matrix(1 0 0 1 154.3726 204.7451)" class="st10 st11">to</text>
	<text transform="matrix(1 0 0 1 162.9287 204.7451)" class="st10 st11"> </text>
	<text transform="matrix(1 0 0 1 166.0269 204.7451)" class="st10 st11">contribute.</text>
	<text transform="matrix(1 0 0 1 213.373 204.7451)" class="st10 st11"> </text>
	<text transform="matrix(1 0 0 1 216.4707 204.7451)" class="st10 st11">Yet,</text>
	<text transform="matrix(1 0 0 1 235.1035 204.7451)" class="st10 st11"> </text>
	<text transform="matrix(1 0 0 1 238.2021 204.7451)" class="st10 st11">do</text>
	<text transform="matrix(1 0 0 1 249.2021 204.7451)" class="st10 st11"> </text>
	<text transform="matrix(1 0 0 1 252.3008 204.7451)" class="st10 st11">you </text>
	<text transform="matrix(0.9878 0 0 1 54.0488 216.7451)" class="st10 st11">fee</text>
	<text transform="matrix(0.9878 0 0 1 67.1475 216.7451)" class="st10 st11">l</text>
	<text transform="matrix(0.9878 0 0 1 70.1665 216.7451)" class="st10 st11"> </text>
	<text transform="matrix(0.9878 0 0 1 72.2852 216.7451)" class="st10 st11">mor</text>
	<text transform="matrix(0.9878 0 0 1 89.623 216.7451)" class="st10 st11">e</text>
	<text transform="matrix(0.9878 0 0 1 94.4458 216.7451)" class="st10 st11"> </text>
	<text transform="matrix(0.9878 0 0 1 96.5645 216.7451)" class="st10 st11">confuse</text>
	<text transform="matrix(0.9878 0 0 1 129.9717 216.7451)" class="st10 st11">d</text>
	<text transform="matrix(0.9878 0 0 1 135.4048 216.7451)" class="st10 st11"> </text>
	<text transform="matrix(0.9878 0 0 1 137.5234 216.7451)" class="st10 st11">abou</text>
	<text transform="matrix(0.9878 0 0 1 158.4258 216.7451)" class="st10 st11">t</text>
	<text transform="matrix(0.9878 0 0 1 161.4448 216.7451)" class="st10 st11"> </text>
	<text transform="matrix(0.9878 0 0 1 163.5635 216.7451)" class="st10 st11">you</text>
	<text transform="matrix(0.9878 0 0 1 179.6978 216.7451)" class="st10 st11">r</text>
	<text transform="matrix(0.9878 0 0 1 183.3164 216.7451)" class="st10 st11"> </text>
	<text transform="matrix(0.9878 0 0 1 185.4351 216.7451)" class="st10 st11">company’</text>
	<text transform="matrix(0.9878 0 0 1 228.4414 216.7451)" class="st10 st11">s</text>
	<text transform="matrix(0.9878 0 0 1 232.6699 216.7451)" class="st10 st11"> </text>
	<text transform="matrix(0.9878 0 0 1 234.7891 216.7451)" class="st10 st11">strateg</text>
	<text transform="matrix(0.9878 0 0 1 263.3672 216.7451)" class="st10 st11">y </text>
	<text transform="matrix(1 0 0 1 54.0488 228.7451)" class="st10 st11">tha</text>
	<text transform="matrix(1 0 0 1 67.3652 228.7451)" class="st10 st11">n</text>
	<text transform="matrix(1 0 0 1 72.8652 228.7451)" class="st10 st11"> </text>
	<text transform="matrix(1 0 0 1 75.0103 228.7451)" class="st10 st11">ever</text>
	<text transform="matrix(1 0 0 1 93.7754 228.7451)" class="st10 st11">,</text>
	<text transform="matrix(1 0 0 1 96.5254 228.7451)" class="st10 st11"> </text>
	<text transform="matrix(1 0 0 1 98.6704 228.7451)" class="st10 st11">o</text>
	<text transform="matrix(1 0 0 1 104.1294 228.7451)" class="st10 st11">r</text>
	<text transform="matrix(1 0 0 1 107.7925 228.7451)" class="st10 st11"> </text>
	<text transform="matrix(1 0 0 1 109.9375 228.7451)" class="st10 st11">you</text>
	<text transform="matrix(1 0 0 1 126.3154 228.7451)" class="st10 st11">r</text>
	<text transform="matrix(1 0 0 1 129.9785 228.7451)" class="st10 st11"> </text>
	<text transform="matrix(1 0 0 1 132.1235 228.7451)" class="st10 st11">rol</text>
	<text transform="matrix(1 0 0 1 144.2207 228.7451)" class="st10 st11">e</text>
	<text transform="matrix(1 0 0 1 149.103 228.7451)" class="st10 st11"> </text>
	<text transform="matrix(1 0 0 1 151.248 228.7451)" class="st10 st11">i</text>
	<text transform="matrix(1 0 0 1 154.2637 228.7451)" class="st10 st11">n</text>
	<text transform="matrix(1 0 0 1 159.7637 228.7451)" class="st10 st11"> </text>
	<text transform="matrix(1 0 0 1 161.9087 228.7451)" class="st10 st11">it</text>
	<text transform="matrix(1 0 0 1 167.9395 228.7451)" class="st10 st11">?</text>
	<text transform="matrix(1 0 0 1 172.8218 228.7451)" class="st10 st11"> </text>
	<text transform="matrix(1 0 0 1 174.9668 228.7451)" class="st10 st11">Doe</text>
	<text transform="matrix(1 0 0 1 193.1709 228.7451)" class="st10 st11">s</text>
	<text transform="matrix(1 0 0 1 197.4517 228.7451)" class="st10 st11"> </text>
	<text transform="matrix(1 0 0 1 199.5967 228.7451)" class="st10 st11">th</text>
	<text transform="matrix(1 0 0 1 208.0713 228.7451)" class="st10 st11">e</text>
	<text transform="matrix(1 0 0 1 212.9541 228.7451)" class="st10 st11"> </text>
	<text transform="matrix(1 0 0 1 215.0996 228.7451)" class="st10 st11">annua</text>
	<text transform="matrix(1 0 0 1 241.1611 228.7451)" class="st10 st11">l</text>
	<text transform="matrix(1 0 0 1 244.2178 228.7451)" class="st10 st11"> </text>
	<text transform="matrix(1 0 0 1 246.3633 228.7451)" class="st10 st11">plan</text>
	<text transform="matrix(1 0 0 1 265.1396 228.7451)" class="st10 st11">-</text>
	<text transform="matrix(1 0 0 1 54.0488 240.7451)" class="st10 st11">ning</text>
	<text transform="matrix(1 0 0 1 73.605 240.7451)" class="st10 st11"> </text>
	<text transform="matrix(1 0 0 1 76.5107 240.7451)" class="st10 st11">process</text>
	<text transform="matrix(1 0 0 1 109.5 240.7451)" class="st10 st11"> </text>
	<text transform="matrix(1 0 0 1 112.4053 240.7451)" class="st10 st11">make</text>
	<text transform="matrix(1 0 0 1 136.2261 240.7451)" class="st10 st11"> </text>
	<text transform="matrix(1 0 0 1 139.1318 240.7451)" class="st10 st11">you</text>
	<text transform="matrix(1 0 0 1 155.6318 240.7451)" class="st10 st11"> </text>
	<text transform="matrix(1 0 0 1 158.5371 240.7451)" class="st10 st11">cringe?</text>
	<text transform="matrix(1 0 0 1 190.9033 240.7451)" class="st10 st11"> </text>
	<text transform="matrix(1 0 0 1 193.8086 240.7451)" class="st10 st11">Many</text>
	<text transform="matrix(1 0 0 1 219.4717 240.7451)" class="st10 st11"> </text>
	<text transform="matrix(1 0 0 1 222.377 240.7451)" class="st10 st11">executives </text>
	<text transform="matrix(0.9869 0 0 1 54.0488 252.7451)" class="st10 st11">ar</text>
	<text transform="matrix(0.9869 0 0 1 62.3726 252.7451)" class="st10 st11">e</text>
	<text transform="matrix(0.9869 0 0 1 67.1909 252.7451)" class="st10 st11"> </text>
	<text transform="matrix(0.9869 0 0 1 69.3076 252.7451)" class="st10 st11">frustrate</text>
	<text transform="matrix(0.9869 0 0 1 104.98 252.7451)" class="st10 st11">d</text>
	<text transform="matrix(0.9869 0 0 1 110.4082 252.7451)" class="st10 st11"> </text>
	<text transform="matrix(0.9869 0 0 1 112.5249 252.7451)" class="st10 st11">b</text>
	<text transform="matrix(0.9869 0 0 1 117.8984 252.7451)" class="st10 st11">y</text>
	<text transform="matrix(0.9869 0 0 1 123.3267 252.7451)" class="st10 st11"> </text>
	<text transform="matrix(0.9869 0 0 1 125.4434 252.7451)" class="st10 st11">and/o</text>
	<text transform="matrix(0.9869 0 0 1 149.2876 252.7451)" class="st10 st11">r</text>
	<text transform="matrix(0.9869 0 0 1 152.9028 252.7451)" class="st10 st11"> </text>
	<text transform="matrix(0.9869 0 0 1 155.0195 252.7451)" class="st10 st11">omitte</text>
	<text transform="matrix(0.9869 0 0 1 182.4287 252.7451)" class="st10 st11">d</text>
	<text transform="matrix(0.9869 0 0 1 187.8569 252.7451)" class="st10 st11"> </text>
	<text transform="matrix(0.9869 0 0 1 189.9736 252.7451)" class="st10 st11">fro</text>
	<text transform="matrix(0.9869 0 0 1 202.4678 252.7451)" class="st10 st11">m</text>
	<text transform="matrix(0.9869 0 0 1 210.9121 252.7451)" class="st10 st11"> </text>
	<text transform="matrix(0.9869 0 0 1 213.0283 252.7451)" class="st10 st11">thei</text>
	<text transform="matrix(0.9869 0 0 1 229.0879 252.7451)" class="st10 st11">r</text>
	<text transform="matrix(0.9869 0 0 1 232.7031 252.7451)" class="st10 st11"> </text>
	<text transform="matrix(0.9869 0 0 1 234.8203 252.7451)" class="st10 st11">strateg</text>
	<text transform="matrix(0.9869 0 0 1 263.3721 252.7451)" class="st10 st11">y </text>
	<text transform="matrix(1 0 0 1 54.0488 264.7451)" class="st10 st11">process.</text>
	<text transform="matrix(1 0 0 1 89.7881 264.7451)" class="st10 st11"> </text>
	<text transform="matrix(1 0 0 1 91.9331 264.7451)" class="st10 st11">But</text>
	<text transform="matrix(1 0 0 1 107.8262 264.7451)" class="st10 st11"> </text>
	<text transform="matrix(1 0 0 1 109.9712 264.7451)" class="st10 st11">there</text>
	<text transform="matrix(1 0 0 1 131.9551 264.7451)" class="st10 st11"> </text>
	<text transform="matrix(1 0 0 1 134.1001 264.7451)" class="st10 st11">is</text>
	<text transform="matrix(1 0 0 1 141.437 264.7451)" class="st10 st11"> </text>
	<text transform="matrix(1 0 0 1 143.582 264.7451)" class="st10 st11">an</text>
	<text transform="matrix(1 0 0 1 153.9644 264.7451)" class="st10 st11"> </text>
	<text transform="matrix(1 0 0 1 156.1094 264.7451)" class="st10 st11">easy</text>
	<text transform="matrix(1 0 0 1 175.6548 264.7451)" class="st10 st11"> </text>
	<text transform="matrix(1 0 0 1 177.7998 264.7451)" class="st10 st11">fix.</text>
	<text transform="matrix(1 0 0 1 192.769 264.7451)" class="st10 st11"> </text>
	<text transform="matrix(1 0 0 1 194.9141 264.7451)" class="st10 st11">In</text>
	<text transform="matrix(1 0 0 1 204.0771 264.7451)" class="st10 st11"> </text>
	<text transform="matrix(1 0 0 1 206.2222 264.7451)" class="st10 st11">this</text>
	<text transform="matrix(1 0 0 1 222.1172 264.7451)" class="st10 st11"> </text>
	<text transform="matrix(1 0 0 1 224.2617 264.7451)" class="st10 st11">talk,</text>
	<text transform="matrix(1 0 0 1 243.5078 264.7451)" class="st10 st11"> </text>
	<text transform="matrix(1 0 0 1 245.6533 264.7451)" class="st10 st11">Stan</text>
	<text transform="matrix(1 0 0 1 265.21 264.7451)" class="st10 st11">-</text>
	<text transform="matrix(1 0 0 1 54.0488 276.7451)" class="st10 st11">ford</text>
	<text transform="matrix(1 0 0 1 72.375 276.7451)" class="st10 st11"> </text>
	<text transform="matrix(1 0 0 1 75.8521 276.7451)" class="st10 st11">Business</text>
	<text transform="matrix(1 0 0 1 114.9697 276.7451)" class="st10 st11"> </text>
	<text transform="matrix(1 0 0 1 118.4468 276.7451)" class="st10 st11">School</text>
	<text transform="matrix(1 0 0 1 149.0029 276.7451)" class="st10 st11"> </text>
	<text transform="matrix(1 0 0 1 152.4795 276.7451)" class="st10 st11">Professor</text>
	<text transform="matrix(1 0 0 1 194.0303 276.7451)" class="st10 st11"> </text>
	<text transform="matrix(1 0 0 1 197.5073 276.7451)" class="st10 st11">Jesper</text>
	<text transform="matrix(1 0 0 1 224.9971 276.7451)" class="st10 st11"> </text>
	<text transform="matrix(1 0 0 1 228.4736 276.7451)" class="st10 st11">Sørensen </text>
	<text transform="matrix(1 0 0 1 54.0488 288.7451)" class="st10 st11">wil</text>
	<text transform="matrix(1 0 0 1 68.27 288.7451)" class="st10 st11">l</text>
	<text transform="matrix(1 0 0 1 71.3262 288.7451)" class="st10 st11"> </text>
	<text transform="matrix(1 0 0 1 75.0386 288.7451)" class="st10 st11">shar</text>
	<text transform="matrix(1 0 0 1 93.585 288.7451)" class="st10 st11">e</text>
	<text transform="matrix(1 0 0 1 98.4673 288.7451)" class="st10 st11"> </text>
	<text transform="matrix(1 0 0 1 102.1797 288.7451)" class="st10 st11">insight</text>
	<text transform="matrix(1 0 0 1 132.5137 288.7451)" class="st10 st11">s</text>
	<text transform="matrix(1 0 0 1 136.7944 288.7451)" class="st10 st11"> </text>
	<text transform="matrix(1 0 0 1 140.5073 288.7451)" class="st10 st11">fro</text>
	<text transform="matrix(1 0 0 1 153.498 288.7451)" class="st10 st11">m</text>
	<text transform="matrix(1 0 0 1 162.0542 288.7451)" class="st10 st11"> </text>
	<text transform="matrix(1 0 0 1 165.7671 288.7451)" class="st10 st11">hi</text>
	<text transform="matrix(1 0 0 1 174.4331 288.7451)" class="st10 st11">s</text>
	<text transform="matrix(1 0 0 1 178.7139 288.7451)" class="st10 st11"> </text>
	<text transform="matrix(1 0 0 1 182.4263 288.7451)" class="st10 st11">ne</text>
	<text transform="matrix(1 0 0 1 192.9185 288.7451)" class="st10 st11">w</text>
	<text transform="matrix(1 0 0 1 200.8623 288.7451)" class="st10 st11"> </text>
	<text transform="matrix(1 0 0 1 204.5752 288.7451)" class="st10 st11">book</text>
	<text transform="matrix(1 0 0 1 226.7949 288.7451)" class="st10 st11">,</text>
	<text transform="matrix(1 0 0 1 229.5449 288.7451)" class="st10 st11"> </text>
	<text transform="matrix(1 0 0 1 233.2568 288.7451)" class="st10 st11">Makin</text>
	<text transform="matrix(1 0 0 1 262.2529 288.7451)" class="st10 st11">g </text>
	<text transform="matrix(0.9866 0 0 1 54.0488 300.7451)" class="st10 st11">Grea</text>
	<text transform="matrix(0.9866 0 0 1 74.9136 300.7451)" class="st10 st11">t</text>
	<text transform="matrix(0.9866 0 0 1 77.9287 300.7451)" class="st10 st11"> </text>
	<text transform="matrix(0.9866 0 0 1 80.0449 300.7451)" class="st10 st11">Strategy</text>
	<text transform="matrix(0.9866 0 0 1 115.771 300.7451)" class="st10 st11">.</text>
	<text transform="matrix(0.9866 0 0 1 118.4839 300.7451)" class="st10 st11"> </text>
	<text transform="matrix(0.9866 0 0 1 120.6001 300.7451)" class="st10 st11">H</text>
	<text transform="matrix(0.9866 0 0 1 128.3823 300.7451)" class="st10 st11">e</text>
	<text transform="matrix(0.9866 0 0 1 133.1992 300.7451)" class="st10 st11"> </text>
	<text transform="matrix(0.9866 0 0 1 135.3154 300.7451)" class="st10 st11">wil</text>
	<text transform="matrix(0.9866 0 0 1 149.0181 300.7451)" class="st10 st11">l</text>
	<text transform="matrix(0.9866 0 0 1 152.0332 300.7451)" class="st10 st11"> </text>
	<text transform="matrix(0.9866 0 0 1 154.1489 300.7451)" class="st10 st11">discus</text>
	<text transform="matrix(0.9866 0 0 1 180.9502 300.7451)" class="st10 st11">s</text>
	<text transform="matrix(0.9866 0 0 1 185.1733 300.7451)" class="st10 st11"> </text>
	<text transform="matrix(0.9866 0 0 1 187.2891 300.7451)" class="st10 st11">wha</text>
	<text transform="matrix(0.9866 0 0 1 205.2046 300.7451)" class="st10 st11">t</text>
	<text transform="matrix(0.9866 0 0 1 208.2197 300.7451)" class="st10 st11"> </text>
	<text transform="matrix(0.9866 0 0 1 210.3359 300.7451)" class="st10 st11">al</text>
	<text transform="matrix(0.9866 0 0 1 218.0576 300.7451)" class="st10 st11">l</text>
	<text transform="matrix(0.9866 0 0 1 221.0732 300.7451)" class="st10 st11"> </text>
	<text transform="matrix(0.9866 0 0 1 223.1895 300.7451)" class="st10 st11">grea</text>
	<text transform="matrix(0.9866 0 0 1 241.6426 300.7451)" class="st10 st11">t</text>
	<text transform="matrix(0.9866 0 0 1 244.6582 300.7451)" class="st10 st11"> </text>
	<text transform="matrix(0.9866 0 0 1 246.7744 300.7451)" class="st10 st11">strat</text>
	<text transform="matrix(0.9866 0 0 1 265.1846 300.7451)" class="st10 st11">-</text>
	<text transform="matrix(1.02 0 0 1 54.0488 312.7451)" class="st10 st11">egie</text>
	<text transform="matrix(1.02 0 0 1 72.9727 312.7451)" class="st10 st11">s</text>
	<text transform="matrix(1.02 0 0 1 77.3389 312.7451)" class="st10 st11 st12"> </text>
	<text transform="matrix(1.02 0 0 1 81.4233 312.7451)" class="st10 st11">hav</text>
	<text transform="matrix(1.02 0 0 1 97.8008 312.7451)" class="st10 st11">e</text>
	<text transform="matrix(1.02 0 0 1 102.7808 312.7451)" class="st10 st11 st12"> </text>
	<text transform="matrix(1.02 0 0 1 106.8657 312.7451)" class="st10 st11">i</text>
	<text transform="matrix(1.02 0 0 1 110.042 312.7451)" class="st10 st11">n</text>
	<text transform="matrix(1.02 0 0 1 115.6519 312.7451)" class="st10 st11 st12"> </text>
	<text transform="matrix(1.02 0 0 1 119.7368 312.7451)" class="st10 st11">common</text>
	<text transform="matrix(1.02 0 0 1 159.3555 312.7451)" class="st10 st11">,</text>
	<text transform="matrix(1.02 0 0 1 162.1606 312.7451)" class="st10 st11 st12"> </text>
	<text transform="matrix(1.02 0 0 1 166.2451 312.7451)" class="st10 st11">an</text>
	<text transform="matrix(1.02 0 0 1 176.9536 312.7451)" class="st10 st11">d</text>
	<text transform="matrix(1.02 0 0 1 182.5635 312.7451)" class="st10 st11 st12"> </text>
	<text transform="matrix(1.02 0 0 1 186.6479 312.7451)" class="st10 st11">introduc</text>
	<text transform="matrix(1.02 0 0 1 224.5117 312.7451)" class="st10 st11">e</text>
	<text transform="matrix(1.02 0 0 1 229.4912 312.7451)" class="st10 st11 st12"> </text>
	<text transform="matrix(1.02 0 0 1 233.5752 312.7451)" class="st10 st11">a</text>
	<text transform="matrix(1.02 0 0 1 238.6143 312.7451)" class="st10 st11">n</text>
	<text transform="matrix(1.02 0 0 1 244.2246 312.7451)" class="st10 st11 st12"> </text>
	<text transform="matrix(1.02 0 0 1 248.3086 312.7451)" class="st10 st11">eas</text>
	<text transform="matrix(1.02 0 0 1 262.8115 312.7451)" class="st10 st11">y </text>
	<text transform="matrix(1.02 0 0 1 54.0488 324.7451)" class="st10 st11">syste</text>
	<text transform="matrix(1.02 0 0 1 76.77 324.7451)" class="st10 st11">m</text>
	<text transform="matrix(1.02 0 0 1 85.4971 324.7451)" class="st10 st11 st12"> </text>
	<text transform="matrix(1.02 0 0 1 89.4253 324.7451)" class="st10 st11">o</text>
	<text transform="matrix(1.02 0 0 1 95.0918 324.7451)" class="st10 st11">f</text>
	<text transform="matrix(1.02 0 0 1 98.8281 324.7451)" class="st10 st11 st12"> </text>
	<text transform="matrix(1.02 0 0 1 102.7568 324.7451)" class="st10 st11">thre</text>
	<text transform="matrix(1.02 0 0 1 120.4253 324.7451)" class="st10 st11">e</text>
	<text transform="matrix(1.02 0 0 1 125.4053 324.7451)" class="st10 st11 st12"> </text>
	<text transform="matrix(1.02 0 0 1 129.334 324.7451)" class="st10 st11">interrelate</text>
	<text transform="matrix(1.02 0 0 1 175.4243 324.7451)" class="st10 st11">d</text>
	<text transform="matrix(1.02 0 0 1 181.0342 324.7451)" class="st10 st11 st12"> </text>
	<text transform="matrix(1.02 0 0 1 184.9629 324.7451)" class="st10 st11">activitie</text>
	<text transform="matrix(1.02 0 0 1 221.6055 324.7451)" class="st10 st11">s</text>
	<text transform="matrix(1.02 0 0 1 225.9717 324.7451)" class="st10 st11 st12"> </text>
	<text transform="matrix(1.02 0 0 1 229.8994 324.7451)" class="st10 st11">tha</text>
	<text transform="matrix(1.02 0 0 1 243.7754 324.7451)" class="st10 st11">t</text>
	<text transform="matrix(1.02 0 0 1 246.8926 324.7451)" class="st10 st11 st12"> </text>
	<text transform="matrix(1.02 0 0 1 250.8203 324.7451)" class="st10 st11">wil</text>
	<text transform="matrix(1.02 0 0 1 265.3262 324.7451)" class="st10 st11">l </text>
	<text transform="matrix(1.02 0 0 1 54.0488 336.7451)" class="st10 st11">allo</text>
	<text transform="matrix(1.02 0 0 1 71.1201 336.7451)" class="st10 st11">w</text>
	<text transform="matrix(1.02 0 0 1 79.2227 336.7451)" class="st10 st11 st12"> </text>
	<text transform="matrix(1.02 0 0 1 83.5127 336.7451)" class="st10 st11">you</text>
	<text transform="matrix(1.02 0 0 1 100.5278 336.7451)" class="st10 st11">,</text>
	<text transform="matrix(1.02 0 0 1 103.333 336.7451)" class="st10 st11 st12"> </text>
	<text transform="matrix(1.02 0 0 1 107.623 336.7451)" class="st10 st11">you</text>
	<text transform="matrix(1.02 0 0 1 124.6382 336.7451)" class="st10 st11">r</text>
	<text transform="matrix(1.02 0 0 1 128.3745 336.7451)" class="st10 st11 st12"> </text>
	<text transform="matrix(1.02 0 0 1 132.6646 336.7451)" class="st10 st11">team</text>
	<text transform="matrix(1.02 0 0 1 154.7158 336.7451)" class="st10 st11">,</text>
	<text transform="matrix(1.02 0 0 1 157.521 336.7451)" class="st10 st11 st12"> </text>
	<text transform="matrix(1.02 0 0 1 161.811 336.7451)" class="st10 st11">an</text>
	<text transform="matrix(1.02 0 0 1 172.5244 336.7451)" class="st10 st11">d</text>
	<text transform="matrix(1.02 0 0 1 178.1343 336.7451)" class="st10 st11 st12"> </text>
	<text transform="matrix(1.02 0 0 1 182.4243 336.7451)" class="st10 st11">you</text>
	<text transform="matrix(1.02 0 0 1 199.4395 336.7451)" class="st10 st11">r</text>
	<text transform="matrix(1.02 0 0 1 203.1758 336.7451)" class="st10 st11 st12"> </text>
	<text transform="matrix(1.02 0 0 1 207.4658 336.7451)" class="st10 st11">colleague</text>
	<text transform="matrix(1.02 0 0 1 251.0059 336.7451)" class="st10 st11">s</text>
	<text transform="matrix(1.02 0 0 1 255.3721 336.7451)" class="st10 st11 st12"> </text>
	<text transform="matrix(1.02 0 0 1 259.6611 336.7451)" class="st10 st11">t</text>
	<text transform="matrix(1.02 0 0 1 262.8408 336.7451)" class="st10 st11">o </text>
	<text transform="matrix(0.9836 0 0 1 54.0488 348.7451)" class="st10 st11">discuss</text>
	<text transform="matrix(0.9836 0 0 1 84.9229 348.7451)" class="st10 st11">,</text>
	<text transform="matrix(0.9836 0 0 1 87.6279 348.7451)" class="st10 st11"> </text>
	<text transform="matrix(0.9836 0 0 1 89.7378 348.7451)" class="st10 st11">debat</text>
	<text transform="matrix(0.9836 0 0 1 112.8926 348.7451)" class="st10 st11">e</text>
	<text transform="matrix(0.9836 0 0 1 117.6948 348.7451)" class="st10 st11"> </text>
	<text transform="matrix(0.9836 0 0 1 119.8047 348.7451)" class="st10 st11">an</text>
	<text transform="matrix(0.9836 0 0 1 129.9062 348.7451)" class="st10 st11">d</text>
	<text transform="matrix(0.9836 0 0 1 135.3159 348.7451)" class="st10 st11"> </text>
	<text transform="matrix(0.9836 0 0 1 137.4263 348.7451)" class="st10 st11">contribut</text>
	<text transform="matrix(0.9836 0 0 1 175.9927 348.7451)" class="st10 st11">e</text>
	<text transform="matrix(0.9836 0 0 1 180.7949 348.7451)" class="st10 st11"> </text>
	<text transform="matrix(0.9836 0 0 1 182.9048 348.7451)" class="st10 st11">t</text>
	<text transform="matrix(0.9836 0 0 1 185.8555 348.7451)" class="st10 st11">o</text>
	<text transform="matrix(0.9836 0 0 1 191.2651 348.7451)" class="st10 st11"> </text>
	<text transform="matrix(0.9836 0 0 1 193.3755 348.7451)" class="st10 st11">strateg</text>
	<text transform="matrix(0.9836 0 0 1 221.8291 348.7451)" class="st10 st11">y</text>
	<text transform="matrix(0.9836 0 0 1 227.2393 348.7451)" class="st10 st11"> </text>
	<text transform="matrix(0.9836 0 0 1 229.3496 348.7451)" class="st10 st11">i</text>
	<text transform="matrix(0.9836 0 0 1 232.2998 348.7451)" class="st10 st11">n</text>
	<text transform="matrix(0.9836 0 0 1 237.71 348.7451)" class="st10 st11"> </text>
	<text transform="matrix(0.9836 0 0 1 239.8203 348.7451)" class="st10 st11">a</text>
	<text transform="matrix(0.9836 0 0 1 244.6221 348.7451)" class="st10 st11"> </text>
	<text transform="matrix(0.9836 0 0 1 246.7324 348.7451)" class="st10 st11">mor</text>
	<text transform="matrix(0.9836 0 0 1 263.9961 348.7451)" class="st10 st11">e </text>
	<text transform="matrix(1.006 0 0 1 54.0488 360.7451)" class="st10 st11">productiv</text>
	<text transform="matrix(1.006 0 0 1 96.9526 360.7451)" class="st10 st11">e</text>
	<text transform="matrix(1.006 0 0 1 101.8643 360.7451)" class="st10 st11"> </text>
	<text transform="matrix(1.006 0 0 1 105.5991 360.7451)" class="st10 st11">an</text>
	<text transform="matrix(1.006 0 0 1 116.1533 360.7451)" class="st10 st11">d</text>
	<text transform="matrix(1.006 0 0 1 121.686 360.7451)" class="st10 st11"> </text>
	<text transform="matrix(1.006 0 0 1 125.4209 360.7451)" class="st10 st11">inclusiv</text>
	<text transform="matrix(1.006 0 0 1 160.8994 360.7451)" class="st10 st11">e</text>
	<text transform="matrix(1.006 0 0 1 165.811 360.7451)" class="st10 st11"> </text>
	<text transform="matrix(1.006 0 0 1 169.5459 360.7451)" class="st10 st11">manne</text>
	<text transform="matrix(1.006 0 0 1 199.3174 360.7451)" class="st10 st11">r</text>
	<text transform="matrix(1.006 0 0 1 203.0024 360.7451)" class="st10 st11"> </text>
	<text transform="matrix(1.006 0 0 1 206.7373 360.7451)" class="st10 st11">tha</text>
	<text transform="matrix(1.006 0 0 1 220.4209 360.7451)" class="st10 st11">t</text>
	<text transform="matrix(1.006 0 0 1 223.4951 360.7451)" class="st10 st11"> </text>
	<text transform="matrix(1.006 0 0 1 227.2295 360.7451)" class="st10 st11">improve</text>
	<text transform="matrix(1.006 0 0 1 264.4922 360.7451)" class="st10 st11">s </text>
	<text transform="matrix(1 0 0 1 54.0488 372.7451)" class="st10 st11">business outcomes, no matter your role or position.</text>
	<text transform="matrix(1 0 0 1 54.6689 28.1174)" class="st6 st13 st14">4/7: 8pm: Arguing Your Way to Strategic Clarity </text>
</g>
</svg>
