<?xml version="1.0" encoding="utf-8"?>
<!-- Generator: Adobe Illustrator 25.1.0, SVG Export Plug-In . SVG Version: 6.00 Build 0)  -->
<svg version="1.1" id="Layer_1" xmlns="http://www.w3.org/2000/svg" xmlns:xlink="http://www.w3.org/1999/xlink" x="0px" y="0px"
	 viewBox="0 0 500 500" style="enable-background:new 0 0 500 500;" xml:space="preserve">
<style type="text/css">
	.st0{fill:#FFFFFF;}
	.st1{display:none;}
	.st2{display:inline;fill:#FFFFFF;stroke:#3F5EAB;stroke-width:2;}
	.st3{fill:#D5D4D4;stroke:#3F5EAB;stroke-width:2;}
	.st4{fill:none;stroke:#3F5EAB;stroke-width:2;}
	.st5{fill:none;}
	.st6{font-family:'Times-Bold';}
	.st7{font-size:20px;}
	.st8{font-family:'Arial-BoldMT';}
	.st9{font-size:11px;}
	.st10{fill:#3F5EAB;}
	.st11{font-family:'TimesNewRomanPSMT';}
	.st12{font-size:9.3642px;}
	.st13{font-size:9.3488px;}
</style>
<rect x="60" y="62.8" class="st0" width="410.6" height="386.6"/>
<g>
	<g class="st1">
		<path class="st2" d="M439,27.1c19.6,0,35.5,15.8,35.8,35.3H33.1c0.2-19.5,16.2-35.3,35.7-35.3H439z"/>
		<path class="st2" d="M438.5,485.7c19.6,0,35.5-15.8,35.8-35.3H32.6c0.2,19.5,16.2,35.3,35.7,35.3H438.5z"/>
		<rect x="32.6" y="63.3" class="st2" width="441.7" height="386.2"/>
	</g>
	<path class="st3" d="M438.5,27.1c19.6,0,35.5,15.8,35.8,35.3H32.6c0.2-19.5,16.2-35.3,35.8-35.3H438.5z"/>
	<path class="st3" d="M438.5,485.5c19.6,0,35.5-15.8,35.8-35.3H32.6c0.2,19.5,16.2,35.3,35.8,35.3H438.5z"/>
	<rect x="32.6" y="62.4" class="st3" width="31.5" height="388"/>
	<line class="st4" x1="64.2" y1="62.4" x2="64.2" y2="449.4"/>
	<line class="st4" x1="244.7" y1="62.9" x2="244.7" y2="449.9"/>
	<path d="M40.7,75.7l-1.2,0.1c0-0.3-0.1-0.4-0.2-0.6s-0.3-0.2-0.5-0.2c-0.3,0-0.5,0.1-0.7,0.4s-0.3,0.8-0.3,1.5
		c0.3-0.4,0.7-0.6,1.2-0.6c0.5,0,1,0.2,1.4,0.6c0.4,0.4,0.6,0.9,0.6,1.6c0,0.7-0.2,1.2-0.6,1.7c-0.4,0.4-0.9,0.6-1.6,0.6
		c-0.7,0-1.2-0.3-1.7-0.8s-0.7-1.4-0.7-2.6c0-1.2,0.2-2.1,0.7-2.7c0.5-0.6,1-0.8,1.8-0.8c0.5,0,0.9,0.1,1.3,0.4
		C40.4,74.7,40.6,75.1,40.7,75.7z M37.8,78.5c0,0.4,0.1,0.7,0.3,1c0.2,0.2,0.4,0.3,0.7,0.3c0.2,0,0.4-0.1,0.6-0.3s0.2-0.5,0.2-0.9
		c0-0.4-0.1-0.8-0.3-1c-0.2-0.2-0.4-0.3-0.6-0.3s-0.5,0.1-0.6,0.3C37.8,77.8,37.8,78.1,37.8,78.5z M42.8,77.3l-1.2-0.2
		c0.1-0.5,0.4-0.8,0.7-1.1s0.8-0.3,1.4-0.3c0.6,0,1,0.1,1.3,0.2c0.3,0.1,0.5,0.3,0.6,0.5c0.1,0.2,0.2,0.6,0.2,1.2l0,1.5
		c0,0.4,0,0.8,0.1,0.9s0.1,0.4,0.2,0.7h-1.3c0-0.1-0.1-0.2-0.1-0.4c0-0.1,0-0.1,0-0.2c-0.2,0.2-0.5,0.4-0.7,0.5
		c-0.2,0.1-0.5,0.2-0.8,0.2c-0.5,0-0.9-0.1-1.2-0.4c-0.3-0.3-0.4-0.6-0.4-1c0-0.3,0.1-0.5,0.2-0.7s0.3-0.4,0.5-0.5
		c0.2-0.1,0.6-0.2,1-0.3c0.6-0.1,1-0.2,1.3-0.3v-0.1c0-0.2-0.1-0.4-0.2-0.5s-0.3-0.2-0.7-0.2c-0.2,0-0.4,0.1-0.5,0.1
		C43,77,42.9,77.1,42.8,77.3z M44.5,78.4c-0.2,0.1-0.4,0.1-0.8,0.2c-0.4,0.1-0.6,0.2-0.7,0.2c-0.2,0.1-0.2,0.3-0.2,0.5
		c0,0.2,0.1,0.3,0.2,0.5c0.1,0.1,0.3,0.2,0.5,0.2c0.2,0,0.5-0.1,0.7-0.2c0.2-0.1,0.3-0.3,0.3-0.4c0-0.1,0-0.3,0-0.6L44.5,78.4
		L44.5,78.4z M47,75.9h1.2v0.7c0.4-0.5,0.9-0.8,1.5-0.8c0.3,0,0.6,0.1,0.8,0.2c0.2,0.1,0.4,0.3,0.6,0.6c0.2-0.3,0.5-0.5,0.7-0.6
		c0.2-0.1,0.5-0.2,0.8-0.2c0.4,0,0.7,0.1,0.9,0.2c0.2,0.1,0.4,0.4,0.6,0.6c0.1,0.2,0.1,0.6,0.1,1v3.1h-1.3V78c0-0.5,0-0.8-0.1-0.9
		c-0.1-0.2-0.3-0.3-0.5-0.3c-0.2,0-0.3,0.1-0.5,0.2s-0.3,0.3-0.3,0.5c-0.1,0.2-0.1,0.6-0.1,1v2.3h-1.3v-2.7c0-0.5,0-0.8-0.1-0.9
		s-0.1-0.2-0.2-0.3c-0.1-0.1-0.2-0.1-0.4-0.1c-0.2,0-0.4,0.1-0.5,0.2s-0.3,0.3-0.3,0.5s-0.1,0.5-0.1,1v2.4H47L47,75.9L47,75.9z"/>
	<path d="M37.4,117.1c-0.3-0.1-0.6-0.3-0.7-0.6c-0.2-0.2-0.2-0.5-0.2-0.8c0-0.5,0.2-0.9,0.5-1.2c0.3-0.3,0.8-0.5,1.5-0.5
		c0.6,0,1.1,0.2,1.5,0.5c0.4,0.3,0.5,0.7,0.5,1.2c0,0.3-0.1,0.6-0.2,0.8c-0.2,0.2-0.4,0.4-0.7,0.6c0.4,0.2,0.7,0.4,0.8,0.7
		c0.2,0.3,0.3,0.6,0.3,1c0,0.6-0.2,1.1-0.6,1.5c-0.4,0.4-0.9,0.6-1.6,0.6c-0.6,0-1.1-0.2-1.5-0.5c-0.5-0.4-0.7-0.9-0.7-1.6
		c0-0.4,0.1-0.7,0.3-1C36.7,117.5,37,117.3,37.4,117.1z M37.7,115.8c0,0.3,0.1,0.5,0.2,0.6s0.3,0.2,0.6,0.2c0.2,0,0.4-0.1,0.6-0.2
		s0.2-0.3,0.2-0.6c0-0.2-0.1-0.4-0.2-0.6c-0.1-0.2-0.3-0.2-0.6-0.2c-0.2,0-0.5,0.1-0.6,0.2C37.8,115.4,37.7,115.6,37.7,115.8z
		 M37.6,118.7c0,0.4,0.1,0.6,0.3,0.8c0.2,0.2,0.4,0.3,0.7,0.3c0.3,0,0.5-0.1,0.7-0.3s0.3-0.5,0.3-0.8c0-0.3-0.1-0.6-0.3-0.8
		s-0.4-0.3-0.7-0.3c-0.3,0-0.5,0.1-0.7,0.3C37.6,118.2,37.6,118.5,37.6,118.7z M42.8,117.4l-1.2-0.2c0.1-0.5,0.4-0.8,0.7-1.1
		s0.8-0.3,1.4-0.3c0.6,0,1,0.1,1.3,0.2c0.3,0.1,0.5,0.3,0.6,0.5c0.1,0.2,0.2,0.6,0.2,1.2l0,1.5c0,0.4,0,0.8,0.1,0.9s0.1,0.4,0.2,0.7
		h-1.3c0-0.1-0.1-0.2-0.1-0.4c0-0.1,0-0.1,0-0.2c-0.2,0.2-0.5,0.4-0.7,0.5c-0.2,0.1-0.5,0.2-0.8,0.2c-0.5,0-0.9-0.1-1.2-0.4
		c-0.3-0.3-0.4-0.6-0.4-1c0-0.3,0.1-0.5,0.2-0.7s0.3-0.4,0.5-0.5c0.2-0.1,0.6-0.2,1-0.3c0.6-0.1,1-0.2,1.3-0.3v-0.1
		c0-0.2-0.1-0.4-0.2-0.5s-0.3-0.2-0.7-0.2c-0.2,0-0.4,0.1-0.5,0.1C43,117,42.9,117.2,42.8,117.4z M44.5,118.4
		c-0.2,0.1-0.4,0.1-0.8,0.2c-0.4,0.1-0.6,0.2-0.7,0.2c-0.2,0.1-0.2,0.3-0.2,0.5c0,0.2,0.1,0.3,0.2,0.5c0.1,0.1,0.3,0.2,0.5,0.2
		c0.2,0,0.5-0.1,0.7-0.2c0.2-0.1,0.3-0.3,0.3-0.4c0-0.1,0-0.3,0-0.6L44.5,118.4L44.5,118.4z M47,115.9h1.2v0.7
		c0.4-0.5,0.9-0.8,1.5-0.8c0.3,0,0.6,0.1,0.8,0.2c0.2,0.1,0.4,0.3,0.6,0.6c0.2-0.3,0.5-0.5,0.7-0.6c0.2-0.1,0.5-0.2,0.8-0.2
		c0.4,0,0.7,0.1,0.9,0.2c0.2,0.1,0.4,0.4,0.6,0.6c0.1,0.2,0.1,0.6,0.1,1v3.1h-1.3V118c0-0.5,0-0.8-0.1-0.9c-0.1-0.2-0.3-0.3-0.5-0.3
		c-0.2,0-0.3,0.1-0.5,0.2s-0.3,0.3-0.3,0.5c-0.1,0.2-0.1,0.6-0.1,1v2.3h-1.3v-2.7c0-0.5,0-0.8-0.1-0.9s-0.1-0.2-0.2-0.3
		c-0.1-0.1-0.2-0.1-0.4-0.1c-0.2,0-0.4,0.1-0.5,0.2s-0.3,0.3-0.3,0.5s-0.1,0.5-0.1,1v2.4H47L47,115.9L47,115.9z"/>
	<path d="M39.6,160.3h-1.3v-4.9c-0.5,0.4-1,0.8-1.7,1v-1.2c0.3-0.1,0.7-0.3,1.1-0.6c0.4-0.3,0.7-0.7,0.8-1.1h1V160.3z M43.7,153.6
		c0.7,0,1.2,0.2,1.5,0.7c0.4,0.6,0.7,1.5,0.7,2.8s-0.2,2.2-0.7,2.8c-0.4,0.5-0.9,0.7-1.5,0.7s-1.2-0.2-1.6-0.8
		c-0.4-0.5-0.6-1.4-0.6-2.7c0-1.3,0.2-2.2,0.7-2.7C42.6,153.8,43.1,153.6,43.7,153.6z M43.7,154.6c-0.2,0-0.3,0.1-0.4,0.1
		c-0.1,0.1-0.2,0.3-0.3,0.5c-0.1,0.3-0.1,0.9-0.1,1.7c0,0.8,0,1.3,0.1,1.6c0.1,0.3,0.2,0.5,0.3,0.6c0.1,0.1,0.3,0.1,0.4,0.1
		s0.3-0.1,0.4-0.1c0.1-0.1,0.2-0.3,0.3-0.5c0.1-0.3,0.1-0.9,0.1-1.7s0-1.3-0.1-1.6c-0.1-0.3-0.2-0.5-0.3-0.6
		C44,154.7,43.9,154.6,43.7,154.6z M48,156.9l-1.2-0.2c0.1-0.5,0.4-0.8,0.7-1.1s0.8-0.3,1.4-0.3c0.6,0,1,0.1,1.3,0.2
		c0.3,0.1,0.5,0.3,0.6,0.5c0.1,0.2,0.2,0.6,0.2,1.1l0,1.5c0,0.4,0,0.8,0.1,0.9s0.1,0.4,0.2,0.6H50c0-0.1-0.1-0.2-0.1-0.4
		c0-0.1,0-0.1,0-0.1c-0.2,0.2-0.5,0.4-0.7,0.5c-0.2,0.1-0.5,0.2-0.8,0.2c-0.5,0-0.9-0.1-1.2-0.4c-0.3-0.3-0.4-0.6-0.4-1
		c0-0.3,0.1-0.5,0.2-0.7s0.3-0.4,0.5-0.5c0.2-0.1,0.6-0.2,1-0.3c0.6-0.1,1-0.2,1.3-0.3V157c0-0.2-0.1-0.4-0.2-0.5s-0.3-0.2-0.7-0.2
		c-0.2,0-0.4,0.1-0.5,0.1C48.2,156.6,48.1,156.7,48,156.9z M49.8,158c-0.2,0.1-0.4,0.1-0.8,0.2s-0.6,0.1-0.7,0.2
		c-0.2,0.1-0.2,0.3-0.2,0.5c0,0.2,0.1,0.3,0.2,0.5s0.3,0.2,0.5,0.2c0.2,0,0.5-0.1,0.7-0.2c0.2-0.1,0.3-0.3,0.3-0.4
		c0-0.1,0-0.3,0-0.6L49.8,158L49.8,158z M52.2,155.4h1.2v0.7c0.4-0.5,0.9-0.8,1.5-0.8c0.3,0,0.6,0.1,0.8,0.2s0.4,0.3,0.6,0.6
		c0.2-0.3,0.5-0.5,0.7-0.6c0.2-0.1,0.5-0.2,0.8-0.2c0.4,0,0.7,0.1,0.9,0.2c0.2,0.1,0.4,0.4,0.6,0.6c0.1,0.2,0.1,0.6,0.1,1v3.1h-1.3
		v-2.8c0-0.5,0-0.8-0.1-0.9c-0.1-0.2-0.3-0.3-0.5-0.3c-0.2,0-0.3,0.1-0.5,0.2s-0.3,0.3-0.3,0.5c-0.1,0.2-0.1,0.6-0.1,1v2.3h-1.3
		v-2.7c0-0.5,0-0.8-0.1-0.9s-0.1-0.2-0.2-0.3c-0.1-0.1-0.2-0.1-0.4-0.1c-0.2,0-0.4,0.1-0.5,0.2s-0.3,0.3-0.3,0.5
		c-0.1,0.2-0.1,0.5-0.1,1v2.4h-1.3L52.2,155.4L52.2,155.4z"/>
	<path d="M39.6,200.4h-1.3v-4.9c-0.5,0.4-1,0.8-1.7,1v-1.2c0.3-0.1,0.7-0.3,1.1-0.6c0.4-0.3,0.7-0.7,0.8-1.1h1V200.4z M45.9,199.1
		v1.2h-4.5c0-0.4,0.2-0.9,0.4-1.3c0.2-0.4,0.7-0.9,1.5-1.6c0.6-0.5,0.9-0.9,1.1-1.1c0.2-0.3,0.3-0.5,0.3-0.8c0-0.3-0.1-0.5-0.2-0.7
		c-0.2-0.2-0.4-0.2-0.6-0.2s-0.5,0.1-0.6,0.2s-0.2,0.4-0.3,0.8l-1.3-0.1c0.1-0.7,0.3-1.2,0.7-1.5s0.9-0.5,1.5-0.5
		c0.7,0,1.2,0.2,1.6,0.5s0.6,0.8,0.6,1.3c0,0.3-0.1,0.6-0.2,0.9c-0.1,0.3-0.3,0.6-0.5,0.9c-0.2,0.2-0.4,0.5-0.8,0.9
		s-0.7,0.6-0.8,0.7c-0.1,0.1-0.2,0.2-0.3,0.4L45.9,199.1L45.9,199.1z M47,195.5h1.2v0.7c0.4-0.5,0.9-0.8,1.5-0.8
		c0.3,0,0.6,0.1,0.8,0.2s0.4,0.3,0.6,0.6c0.2-0.3,0.5-0.5,0.7-0.6c0.2-0.1,0.5-0.2,0.8-0.2c0.4,0,0.7,0.1,0.9,0.2
		c0.2,0.1,0.4,0.4,0.6,0.6c0.1,0.2,0.1,0.6,0.1,1v3.1h-1.3v-2.8c0-0.5,0-0.8-0.1-0.9c-0.1-0.2-0.3-0.3-0.5-0.3
		c-0.2,0-0.3,0.1-0.5,0.2s-0.3,0.3-0.3,0.5c-0.1,0.2-0.1,0.6-0.1,1v2.3h-1.3v-2.7c0-0.5,0-0.8-0.1-0.9s-0.1-0.2-0.2-0.3
		c-0.1-0.1-0.2-0.1-0.4-0.1c-0.2,0-0.4,0.1-0.5,0.2s-0.3,0.3-0.3,0.5c-0.1,0.2-0.1,0.5-0.1,1v2.4H47L47,195.5L47,195.5z"/>
	<path d="M40.7,239.6v1.2h-4.5c0-0.4,0.2-0.9,0.4-1.3c0.2-0.4,0.7-0.9,1.5-1.6c0.6-0.5,0.9-0.9,1.1-1.1c0.2-0.3,0.3-0.5,0.3-0.8
		c0-0.3-0.1-0.5-0.2-0.7c-0.2-0.2-0.4-0.2-0.6-0.2s-0.5,0.1-0.6,0.2s-0.2,0.4-0.3,0.8l-1.3-0.1c0.1-0.7,0.3-1.2,0.7-1.5
		s0.9-0.5,1.5-0.5c0.7,0,1.2,0.2,1.6,0.5s0.6,0.8,0.6,1.3c0,0.3-0.1,0.6-0.2,0.9c-0.1,0.3-0.3,0.6-0.5,0.9c-0.2,0.2-0.4,0.5-0.8,0.9
		s-0.7,0.6-0.8,0.7c-0.1,0.1-0.2,0.2-0.3,0.4L40.7,239.6L40.7,239.6z M41.8,236H43v0.7c0.2-0.2,0.4-0.4,0.6-0.6
		c0.3-0.1,0.6-0.2,0.9-0.2c0.6,0,1,0.2,1.4,0.7c0.4,0.4,0.6,1.1,0.6,1.9c0,0.8-0.2,1.4-0.6,1.9c-0.4,0.4-0.9,0.7-1.5,0.7
		c-0.3,0-0.5-0.1-0.7-0.2c-0.2-0.1-0.5-0.3-0.7-0.6v2.5h-1.3V236z M43.1,238.3c0,0.6,0.1,0.9,0.3,1.2c0.2,0.3,0.5,0.4,0.8,0.4
		c0.3,0,0.5-0.1,0.8-0.4s0.3-0.6,0.3-1.2c0-0.5-0.1-0.9-0.3-1.1c-0.2-0.2-0.5-0.4-0.8-0.4c-0.3,0-0.6,0.1-0.8,0.4
		C43.2,237.5,43.1,237.8,43.1,238.3z M47.5,236h1.2v0.7c0.4-0.5,0.9-0.8,1.5-0.8c0.3,0,0.6,0.1,0.8,0.2s0.4,0.3,0.6,0.6
		c0.2-0.3,0.5-0.5,0.7-0.6c0.2-0.1,0.5-0.2,0.8-0.2c0.4,0,0.7,0.1,0.9,0.2c0.2,0.1,0.4,0.4,0.6,0.6c0.1,0.2,0.1,0.6,0.1,1v3.1h-1.3
		v-2.8c0-0.5,0-0.8-0.1-0.9c-0.1-0.2-0.3-0.3-0.5-0.3c-0.2,0-0.3,0.1-0.5,0.2s-0.3,0.3-0.3,0.5c-0.1,0.2-0.1,0.6-0.1,1v2.3h-1.3
		v-2.7c0-0.5,0-0.8-0.1-0.9s-0.1-0.2-0.2-0.3c-0.1-0.1-0.2-0.1-0.4-0.1c-0.2,0-0.4,0.1-0.5,0.2s-0.3,0.3-0.3,0.5
		c-0.1,0.2-0.1,0.5-0.1,1v2.4h-1.3V236z"/>
	<path d="M38.8,280.4V279h-2.8v-1.1l2.9-4.3h1.1v4.3h0.8v1.1h-0.8v1.4L38.8,280.4L38.8,280.4z M38.8,277.9v-2.3l-1.5,2.3H38.8z
		 M41.8,275.5H43v0.7c0.2-0.2,0.4-0.4,0.6-0.6c0.3-0.1,0.6-0.2,0.9-0.2c0.6,0,1,0.2,1.4,0.7c0.4,0.4,0.6,1.1,0.6,1.9
		c0,0.8-0.2,1.5-0.6,1.9c-0.4,0.5-0.9,0.7-1.5,0.7c-0.3,0-0.5,0-0.7-0.2c-0.2-0.1-0.5-0.3-0.7-0.5v2.5h-1.3V275.5z M43.1,277.9
		c0,0.5,0.1,1,0.3,1.2c0.2,0.3,0.5,0.4,0.8,0.4c0.3,0,0.5-0.1,0.8-0.4s0.3-0.6,0.3-1.2c0-0.5-0.1-0.9-0.3-1.1
		c-0.2-0.2-0.5-0.4-0.8-0.4c-0.3,0-0.6,0.1-0.8,0.4S43.1,277.4,43.1,277.9z M47.5,275.5h1.2v0.7c0.4-0.5,0.9-0.8,1.5-0.8
		c0.3,0,0.6,0.1,0.8,0.2s0.4,0.3,0.6,0.6c0.2-0.3,0.5-0.5,0.7-0.6c0.2-0.1,0.5-0.2,0.8-0.2c0.4,0,0.7,0.1,0.9,0.2
		c0.2,0.1,0.4,0.4,0.6,0.6c0.1,0.2,0.1,0.5,0.1,1v3.1h-1.3v-2.8c0-0.5,0-0.8-0.1-0.9c-0.1-0.2-0.3-0.3-0.5-0.3
		c-0.2,0-0.3,0.1-0.5,0.2c-0.2,0.1-0.3,0.3-0.3,0.5c-0.1,0.2-0.1,0.5-0.1,1v2.3h-1.3v-2.7c0-0.5,0-0.8-0.1-0.9s-0.1-0.2-0.2-0.3
		c-0.1-0.1-0.2-0.1-0.4-0.1c-0.2,0-0.4,0-0.5,0.2c-0.2,0.1-0.3,0.3-0.3,0.5c-0.1,0.2-0.1,0.5-0.1,1v2.4h-1.3V275.5z"/>
	<path d="M40.7,315.3l-1.2,0.1c0-0.3-0.1-0.5-0.2-0.6s-0.3-0.2-0.5-0.2c-0.3,0-0.5,0.1-0.7,0.4s-0.3,0.8-0.3,1.5
		c0.3-0.4,0.7-0.6,1.2-0.6c0.5,0,1,0.2,1.4,0.6c0.4,0.4,0.6,0.9,0.6,1.6c0,0.7-0.2,1.2-0.6,1.7c-0.4,0.4-0.9,0.6-1.6,0.6
		c-0.7,0-1.2-0.3-1.7-0.8s-0.7-1.4-0.7-2.6c0-1.2,0.2-2.1,0.7-2.7c0.5-0.5,1-0.8,1.8-0.8c0.5,0,0.9,0.1,1.3,0.4
		C40.4,314.4,40.6,314.8,40.7,315.3z M37.8,318.1c0,0.4,0.1,0.7,0.3,1c0.2,0.2,0.4,0.3,0.7,0.3c0.2,0,0.4-0.1,0.6-0.3
		s0.2-0.5,0.2-0.9c0-0.4-0.1-0.8-0.3-1c-0.2-0.2-0.4-0.3-0.6-0.3s-0.5,0.1-0.6,0.3C37.8,317.5,37.8,317.8,37.8,318.1z M41.8,315.5
		H43v0.7c0.2-0.2,0.4-0.4,0.6-0.6c0.3-0.1,0.6-0.2,0.9-0.2c0.6,0,1,0.2,1.4,0.7c0.4,0.4,0.6,1.1,0.6,1.9c0,0.8-0.2,1.5-0.6,1.9
		c-0.4,0.5-0.9,0.7-1.5,0.7c-0.3,0-0.5,0-0.7-0.2c-0.2-0.1-0.5-0.3-0.7-0.5v2.5h-1.3V315.5z M43.1,317.9c0,0.5,0.1,1,0.3,1.2
		c0.2,0.3,0.5,0.4,0.8,0.4c0.3,0,0.5-0.1,0.8-0.4s0.3-0.6,0.3-1.2c0-0.5-0.1-0.9-0.3-1.1c-0.2-0.2-0.5-0.4-0.8-0.4
		c-0.3,0-0.6,0.1-0.8,0.4C43.2,317.1,43.1,317.4,43.1,317.9z M47.5,315.5h1.2v0.7c0.4-0.5,0.9-0.8,1.5-0.8c0.3,0,0.6,0.1,0.8,0.2
		s0.4,0.3,0.6,0.6c0.2-0.3,0.5-0.5,0.7-0.6c0.2-0.1,0.5-0.2,0.8-0.2c0.4,0,0.7,0.1,0.9,0.2c0.2,0.1,0.4,0.4,0.6,0.6
		c0.1,0.2,0.1,0.5,0.1,1v3.1h-1.3v-2.8c0-0.5,0-0.8-0.1-0.9c-0.1-0.2-0.3-0.3-0.5-0.3c-0.2,0-0.3,0.1-0.5,0.2
		c-0.2,0.1-0.3,0.3-0.3,0.5c-0.1,0.2-0.1,0.5-0.1,1v2.3h-1.3v-2.7c0-0.5,0-0.8-0.1-0.9s-0.1-0.2-0.2-0.3c-0.1-0.1-0.2-0.1-0.4-0.1
		c-0.2,0-0.4,0-0.5,0.2c-0.2,0.1-0.3,0.3-0.3,0.5c-0.1,0.2-0.1,0.5-0.1,1v2.4h-1.3V315.5z"/>
	<path d="M37.4,356.8c-0.3-0.1-0.6-0.3-0.7-0.6c-0.2-0.2-0.2-0.5-0.2-0.8c0-0.5,0.2-0.9,0.5-1.2c0.3-0.3,0.8-0.5,1.5-0.5
		c0.6,0,1.1,0.2,1.5,0.5c0.4,0.3,0.5,0.7,0.5,1.2c0,0.3-0.1,0.6-0.2,0.8c-0.2,0.2-0.4,0.4-0.7,0.6c0.4,0.1,0.7,0.4,0.8,0.7
		c0.2,0.3,0.3,0.6,0.3,1c0,0.6-0.2,1.1-0.6,1.5c-0.4,0.4-0.9,0.6-1.6,0.6c-0.6,0-1.1-0.2-1.5-0.5c-0.5-0.4-0.7-0.9-0.7-1.6
		c0-0.4,0.1-0.7,0.3-1C36.7,357.2,37,357,37.4,356.8z M37.7,355.5c0,0.3,0.1,0.5,0.2,0.6s0.3,0.2,0.6,0.2c0.2,0,0.4-0.1,0.6-0.2
		s0.2-0.4,0.2-0.6c0-0.2-0.1-0.4-0.2-0.6c-0.1-0.1-0.3-0.2-0.6-0.2c-0.2,0-0.5,0.1-0.6,0.2C37.8,355.1,37.7,355.3,37.7,355.5z
		 M37.6,358.4c0,0.4,0.1,0.6,0.3,0.8c0.2,0.2,0.4,0.3,0.7,0.3c0.3,0,0.5-0.1,0.7-0.3s0.3-0.5,0.3-0.8c0-0.3-0.1-0.6-0.3-0.8
		s-0.4-0.3-0.7-0.3c-0.3,0-0.5,0.1-0.7,0.3C37.6,357.9,37.6,358.1,37.6,358.4z M41.8,355.6H43v0.7c0.2-0.2,0.4-0.4,0.6-0.6
		c0.3-0.1,0.6-0.2,0.9-0.2c0.6,0,1,0.2,1.4,0.7c0.4,0.4,0.6,1.1,0.6,1.9c0,0.8-0.2,1.5-0.6,1.9c-0.4,0.5-0.9,0.7-1.5,0.7
		c-0.3,0-0.5,0-0.7-0.2c-0.2-0.1-0.5-0.3-0.7-0.5v2.5h-1.3V355.6z M43.1,357.9c0,0.5,0.1,1,0.3,1.2c0.2,0.3,0.5,0.4,0.8,0.4
		c0.3,0,0.5-0.1,0.8-0.4s0.3-0.6,0.3-1.2c0-0.5-0.1-0.9-0.3-1.1c-0.2-0.2-0.5-0.4-0.8-0.4c-0.3,0-0.6,0.1-0.8,0.4
		C43.2,357.1,43.1,357.4,43.1,357.9z M47.5,355.6h1.2v0.7c0.4-0.5,0.9-0.8,1.5-0.8c0.3,0,0.6,0.1,0.8,0.2s0.4,0.3,0.6,0.6
		c0.2-0.3,0.5-0.5,0.7-0.6c0.2-0.1,0.5-0.2,0.8-0.2c0.4,0,0.7,0.1,0.9,0.2c0.2,0.1,0.4,0.4,0.6,0.6c0.1,0.2,0.1,0.5,0.1,1v3.1h-1.3
		v-2.8c0-0.5,0-0.8-0.1-0.9c-0.1-0.2-0.3-0.3-0.5-0.3c-0.2,0-0.3,0.1-0.5,0.2c-0.2,0.1-0.3,0.3-0.3,0.5c-0.1,0.2-0.1,0.5-0.1,1v2.3
		h-1.3v-2.7c0-0.5,0-0.8-0.1-0.9s-0.1-0.2-0.2-0.3c-0.1-0.1-0.2-0.1-0.4-0.1c-0.2,0-0.4,0-0.5,0.2c-0.2,0.1-0.3,0.3-0.3,0.5
		c-0.1,0.2-0.1,0.5-0.1,1v2.4h-1.3V355.6z"/>
	<path d="M39.6,400.5h-1.3v-4.9c-0.5,0.4-1,0.8-1.7,1v-1.2c0.3-0.1,0.7-0.3,1.1-0.6c0.4-0.3,0.7-0.7,0.8-1.1h1V400.5z M43.7,393.7
		c0.7,0,1.2,0.2,1.5,0.7c0.4,0.5,0.7,1.5,0.7,2.8s-0.2,2.2-0.7,2.8c-0.4,0.5-0.9,0.7-1.5,0.7s-1.2-0.2-1.6-0.8
		c-0.4-0.5-0.6-1.4-0.6-2.7c0-1.3,0.2-2.2,0.7-2.7C42.6,393.9,43.1,393.7,43.7,393.7z M43.7,394.8c-0.2,0-0.3,0-0.4,0.1
		s-0.2,0.3-0.3,0.5c-0.1,0.3-0.1,0.9-0.1,1.7s0,1.3,0.1,1.6c0.1,0.3,0.2,0.5,0.3,0.6s0.3,0.1,0.4,0.1s0.3,0,0.4-0.1s0.2-0.3,0.3-0.5
		c0.1-0.3,0.1-0.9,0.1-1.7c0-0.8,0-1.3-0.1-1.6c-0.1-0.3-0.2-0.5-0.3-0.6C44,394.8,43.9,394.8,43.7,394.8z M47,395.6h1.2v0.7
		c0.2-0.2,0.4-0.4,0.6-0.6c0.3-0.1,0.6-0.2,0.9-0.2c0.6,0,1,0.2,1.4,0.7c0.4,0.4,0.6,1.1,0.6,1.9c0,0.8-0.2,1.5-0.6,1.9
		c-0.4,0.5-0.9,0.7-1.5,0.7c-0.3,0-0.5,0-0.7-0.2c-0.2-0.1-0.5-0.3-0.7-0.5v2.5H47L47,395.6L47,395.6L47,395.6z M48.3,398
		c0,0.5,0.1,1,0.3,1.2c0.2,0.3,0.5,0.4,0.8,0.4c0.3,0,0.5-0.1,0.8-0.4s0.3-0.6,0.3-1.2c0-0.5-0.1-0.9-0.3-1.1
		c-0.2-0.2-0.5-0.4-0.8-0.4c-0.3,0-0.6,0.1-0.8,0.4C48.4,397.1,48.3,397.5,48.3,398z M52.7,395.6h1.2v0.7c0.4-0.5,0.9-0.8,1.5-0.8
		c0.3,0,0.6,0.1,0.8,0.2s0.4,0.3,0.6,0.6c0.2-0.3,0.5-0.5,0.7-0.6c0.2-0.1,0.5-0.2,0.8-0.2c0.4,0,0.7,0.1,0.9,0.2
		c0.2,0.1,0.4,0.4,0.6,0.6c0.1,0.2,0.1,0.5,0.1,1v3.1h-1.3v-2.8c0-0.5,0-0.8-0.1-0.9c-0.1-0.2-0.3-0.3-0.5-0.3
		c-0.2,0-0.3,0.1-0.5,0.2c-0.2,0.1-0.3,0.3-0.3,0.5c-0.1,0.2-0.1,0.5-0.1,1v2.3h-1.3v-2.7c0-0.5,0-0.8-0.1-0.9s-0.1-0.2-0.2-0.3
		c-0.1-0.1-0.2-0.1-0.4-0.1c-0.2,0-0.4,0-0.5,0.2c-0.2,0.1-0.3,0.3-0.3,0.5c-0.1,0.2-0.1,0.5-0.1,1v2.4h-1.3L52.7,395.6L52.7,395.6z
		"/>
	<path d="M39.6,439.1h-1.3v-4.9c-0.5,0.4-1,0.8-1.7,1V434c0.3-0.1,0.7-0.3,1.1-0.6c0.4-0.3,0.7-0.7,0.8-1.1h1V439.1z M45.9,437.9
		v1.2h-4.5c0-0.5,0.2-0.9,0.4-1.3c0.2-0.4,0.7-1,1.5-1.6c0.6-0.5,0.9-0.9,1.1-1.1c0.2-0.3,0.3-0.5,0.3-0.8c0-0.3-0.1-0.5-0.2-0.7
		c-0.2-0.2-0.4-0.2-0.6-0.2s-0.5,0.1-0.6,0.2s-0.2,0.4-0.3,0.8l-1.3-0.1c0.1-0.7,0.3-1.2,0.7-1.5s0.9-0.5,1.5-0.5
		c0.7,0,1.2,0.2,1.6,0.5c0.4,0.4,0.6,0.8,0.6,1.3c0,0.3-0.1,0.6-0.2,0.9c-0.1,0.3-0.3,0.6-0.5,0.9c-0.2,0.2-0.4,0.5-0.8,0.9
		s-0.7,0.6-0.8,0.7s-0.2,0.2-0.3,0.4L45.9,437.9L45.9,437.9z M47,434.2h1.2v0.7c0.2-0.2,0.4-0.4,0.6-0.6c0.3-0.1,0.6-0.2,0.9-0.2
		c0.6,0,1,0.2,1.4,0.7c0.4,0.4,0.6,1.1,0.6,1.9c0,0.8-0.2,1.5-0.6,1.9c-0.4,0.5-0.9,0.7-1.5,0.7c-0.3,0-0.5,0-0.7-0.2
		c-0.2-0.1-0.5-0.3-0.7-0.5v2.5H47L47,434.2L47,434.2L47,434.2z M48.3,436.6c0,0.5,0.1,1,0.3,1.2c0.2,0.3,0.5,0.4,0.8,0.4
		c0.3,0,0.5-0.1,0.8-0.4s0.3-0.6,0.3-1.2c0-0.5-0.1-0.9-0.3-1.1c-0.2-0.2-0.5-0.4-0.8-0.4c-0.3,0-0.6,0.1-0.8,0.4
		C48.4,435.7,48.3,436.1,48.3,436.6z M52.7,434.2h1.2v0.7c0.4-0.5,0.9-0.8,1.5-0.8c0.3,0,0.6,0.1,0.8,0.2s0.4,0.3,0.6,0.6
		c0.2-0.3,0.5-0.5,0.7-0.6c0.2-0.1,0.5-0.2,0.8-0.2c0.4,0,0.7,0.1,0.9,0.2c0.2,0.1,0.4,0.4,0.6,0.6c0.1,0.2,0.1,0.5,0.1,1v3.1h-1.3
		v-2.8c0-0.5,0-0.8-0.1-0.9c-0.1-0.2-0.3-0.3-0.5-0.3c-0.2,0-0.3,0.1-0.5,0.2c-0.2,0.1-0.3,0.3-0.3,0.5c-0.1,0.2-0.1,0.5-0.1,1v2.3
		h-1.3v-2.7c0-0.5,0-0.8-0.1-0.9s-0.1-0.2-0.2-0.3c-0.1-0.1-0.2-0.1-0.4-0.1c-0.2,0-0.4,0-0.5,0.2c-0.2,0.1-0.3,0.3-0.3,0.5
		c-0.1,0.2-0.1,0.5-0.1,1v2.4h-1.3L52.7,434.2L52.7,434.2z"/>
	<line class="st4" x1="474.3" y1="62.8" x2="474.3" y2="449.9"/>
	<rect x="64.8" y="8.8" class="st5" width="204.1" height="52.9"/>
	<text transform="matrix(1 0 0 1 64.8402 51.1349)" class="st6 st7">april 9</text>
	<rect x="255.8" y="70.5" class="st5" width="83.7" height="39.6"/>
	<text transform="matrix(1 0 0 1 255.8498 78.3769)" class="st8 st9">no times listed:</text>
	<path class="st10" d="M217.7,402.3H82.3c-5.7,0-10.4-4.7-10.4-10.4v-55.7c0-5.7,4.7-10.4,10.4-10.4h135.4c5.7,0,10.4,4.7,10.4,10.4
		v55.7C228.1,397.7,223.5,402.3,217.7,402.3z"/>
	<rect x="87.3" y="348.6" class="st5" width="130.8" height="21.9"/>
	<text transform="matrix(1 0 0 1 87.3066 355.0929)"><tspan x="0" y="0" class="st0 st11 st12">4/2 Apothecary Raree: Foolery! </tspan><tspan x="0" y="13.4" class="st0 st11 st12">(San Francisco)</tspan></text>
	<path class="st10" d="M398.9,137.1H263.8c-5.7,0-10.4-4.7-10.4-10.4v-26c0-5.7,4.7-10.4,10.4-10.4h135.2c5.7,0,10.4,4.7,10.4,10.4
		v26C409.3,132.4,404.7,137.1,398.9,137.1z"/>
	<rect x="268.7" y="102.8" class="st5" width="130.6" height="21.9"/>
	<text transform="matrix(1 0 0 1 268.7375 109.258)"><tspan x="0" y="0" class="st0 st11 st13">3/20-4/2 Wing Chun/martial arts </tspan><tspan x="0" y="13.4" class="st0 st11 st13">(daly city)</tspan></text>
	<path class="st10" d="M398.9,207.3H263.8c-5.7,0-10.4-4.7-10.4-10.4v-37.2c0-5.7,4.7-10.4,10.4-10.4h135.2
		c5.7,0,10.4,4.7,10.4,10.4v37.2C409.3,202.7,404.7,207.3,398.9,207.3z"/>
	<rect x="268.7" y="161.8" class="st5" width="130.6" height="36.6"/>
	<text transform="matrix(1 0 0 1 268.7375 168.2975)"><tspan x="0" y="0" class="st0 st11 st13">3/20-4/2 GPS Treasure Hunt - </tspan><tspan x="0" y="13.4" class="st0 st11 st13">Chance to Win $1,000 (san jose </tspan><tspan x="0" y="26.7" class="st0 st11 st13">downtown)</tspan></text>
	<path class="st10" d="M398.9,278.1H263.8c-5.7,0-10.4-4.7-10.4-10.4v-37.6c0-5.7,4.7-10.4,10.4-10.4h135.2
		c5.7,0,10.4,4.7,10.4,10.4v37.6C409.3,273.5,404.7,278.1,398.9,278.1z"/>
	<rect x="268.7" y="232.2" class="st5" width="130.6" height="38.9"/>
	<text transform="matrix(1 0 0 1 268.7375 238.7429)"><tspan x="0" y="0" class="st0 st11 st13">3/21-4/3 Infinitum (Modern Era </tspan><tspan x="0" y="13.4" class="st0 st11 st13">Motivatinal/Support+Self Help </tspan><tspan x="0" y="26.7" class="st0 st11 st13">Group) (alameda)</tspan></text>
	<path class="st10" d="M398.9,349.6H263.8c-5.7,0-10.4-4.7-10.4-10.4v-35.9c0-5.7,4.7-10.4,10.4-10.4h135.2
		c5.7,0,10.4,4.7,10.4,10.4v35.9C409.3,344.9,404.7,349.6,398.9,349.6z"/>
	<rect x="268.7" y="303.4" class="st5" width="130.6" height="41"/>
	<text transform="matrix(1 0 0 1 268.7375 309.861)"><tspan x="0" y="0" class="st0 st11 st13">3/29-4/11 Research Subjects </tspan><tspan x="0" y="13.4" class="st0 st11 st13">Needed - PAID STUDY (south </tspan><tspan x="0" y="26.7" class="st0 st11 st13">san francisco)</tspan></text>
	<path class="st10" d="M398.9,415.1H263.8c-5.7,0-10.4-4.7-10.4-10.4v-35.9c0-5.7,4.7-10.4,10.4-10.4h135.2
		c5.7,0,10.4,4.7,10.4,10.4v35.9C409.3,410.5,404.7,415.1,398.9,415.1z"/>
	<rect x="268.7" y="368.9" class="st5" width="130.6" height="41"/>
	<text transform="matrix(1 0 0 1 268.7375 375.4046)"><tspan x="0" y="0" class="st0 st11 st13">4/2-4/3 Wings of History Air </tspan><tspan x="0" y="13.4" class="st0 st11 st13">Museum Surplus Book &amp; Model </tspan><tspan x="0" y="26.7" class="st0 st11 st13">Sale (morgan hill)</tspan></text>
</g>
</svg>
