<svg width="956" height="1044" viewBox="0 0 956 1044" fill="none" xmlns="http://www.w3.org/2000/svg">
<g filter="url(#filter0_d)">
<path d="M879.079 54C920.675 54 954.458 87.452 954.994 128.921H17.0013C17.5366 87.452 51.3198 54 92.916 54H879.079Z" fill="white" stroke="#2A58CE" stroke-width="2"/>
<path d="M878.084 1028C919.681 1028 953.464 994.548 953.999 953.079H16.0067C16.542 994.548 50.3251 1028 91.9213 1028H878.084Z" fill="white" stroke="#2A58CE" stroke-width="2"/>
<rect x="16" y="130.921" width="938.005" height="820.158" fill="white" stroke="#2A58CE" stroke-width="2"/>
</g>
<path d="M878 54C919.64 54 953.458 87.4873 953.994 129H16.0065C16.5418 87.4873 50.3603 54 92 54H878Z" fill="#D5D4D4" stroke="#2A58CE" stroke-width="2"/>
<path d="M878 1028C919.64 1028 953.458 994.513 953.994 953H16.0065C16.5418 994.513 50.3603 1028 92 1028H878Z" fill="#D5D4D4" stroke="#2A58CE" stroke-width="2"/>
<g filter="url(#filter1_d)">
<path d="M100.371 33.7383L106.387 34.748C105.613 36.9538 104.389 38.6367 102.713 39.7969C101.051 40.9427 98.9674 41.5156 96.4609 41.5156C92.4935 41.5156 89.5573 40.2194 87.6523 37.627C86.1484 35.5501 85.3965 32.929 85.3965 29.7637C85.3965 25.9824 86.3848 23.0247 88.3613 20.8906C90.3379 18.7422 92.8372 17.668 95.8594 17.668C99.2539 17.668 101.932 18.7923 103.895 21.041C105.857 23.2754 106.795 26.7057 106.709 31.332H91.584C91.627 33.1224 92.1139 34.5189 93.0449 35.5215C93.9759 36.5098 95.1361 37.0039 96.5254 37.0039C97.4707 37.0039 98.2656 36.7461 98.9102 36.2305C99.5547 35.7148 100.042 34.8841 100.371 33.7383ZM100.715 27.6367C100.672 25.8893 100.221 24.5645 99.3613 23.6621C98.502 22.7454 97.4564 22.2871 96.2246 22.2871C94.9069 22.2871 93.8184 22.7669 92.959 23.7266C92.0996 24.6862 91.6771 25.9896 91.6914 27.6367H100.715ZM117.924 41L108.729 18.1836H115.066L119.363 29.8281L120.609 33.7168C120.939 32.7285 121.146 32.0768 121.232 31.7617C121.433 31.1172 121.648 30.4727 121.877 29.8281L126.217 18.1836H132.426L123.359 41H117.924ZM149.355 33.7383L155.371 34.748C154.598 36.9538 153.373 38.6367 151.697 39.7969C150.036 40.9427 147.952 41.5156 145.445 41.5156C141.478 41.5156 138.542 40.2194 136.637 37.627C135.133 35.5501 134.381 32.929 134.381 29.7637C134.381 25.9824 135.369 23.0247 137.346 20.8906C139.322 18.7422 141.822 17.668 144.844 17.668C148.238 17.668 150.917 18.7923 152.879 21.041C154.841 23.2754 155.779 26.7057 155.693 31.332H140.568C140.611 33.1224 141.098 34.5189 142.029 35.5215C142.96 36.5098 144.12 37.0039 145.51 37.0039C146.455 37.0039 147.25 36.7461 147.895 36.2305C148.539 35.7148 149.026 34.8841 149.355 33.7383ZM149.699 27.6367C149.656 25.8893 149.205 24.5645 148.346 23.6621C147.486 22.7454 146.441 22.2871 145.209 22.2871C143.891 22.2871 142.803 22.7669 141.943 23.7266C141.084 24.6862 140.661 25.9896 140.676 27.6367H149.699ZM181.389 41H175.352V29.3555C175.352 26.8919 175.223 25.3021 174.965 24.5859C174.707 23.8555 174.285 23.2897 173.697 22.8887C173.124 22.4876 172.43 22.2871 171.613 22.2871C170.568 22.2871 169.63 22.5736 168.799 23.1465C167.968 23.7194 167.395 24.4785 167.08 25.4238C166.779 26.3691 166.629 28.1165 166.629 30.666V41H160.592V18.1836H166.199V21.5352C168.19 18.957 170.697 17.668 173.719 17.668C175.051 17.668 176.268 17.9115 177.371 18.3984C178.474 18.8711 179.305 19.4798 179.863 20.2246C180.436 20.9694 180.83 21.8145 181.045 22.7598C181.274 23.7051 181.389 25.0586 181.389 26.8203V41ZM197.996 18.1836V22.9961H193.871V32.1914C193.871 34.0534 193.907 35.1419 193.979 35.457C194.064 35.7578 194.243 36.0085 194.516 36.209C194.802 36.4095 195.146 36.5098 195.547 36.5098C196.105 36.5098 196.915 36.3164 197.975 35.9297L198.49 40.6133C197.087 41.2148 195.497 41.5156 193.721 41.5156C192.632 41.5156 191.651 41.3366 190.777 40.9785C189.904 40.6061 189.259 40.1335 188.844 39.5605C188.443 38.9733 188.163 38.1855 188.006 37.1973C187.877 36.4954 187.812 35.0775 187.812 32.9434V22.9961H185.041V18.1836H187.812V13.6504L193.871 10.127V18.1836H197.996ZM200.059 34.4902L206.117 33.5664C206.375 34.7409 206.898 35.6361 207.686 36.252C208.473 36.8535 209.576 37.1543 210.994 37.1543C212.555 37.1543 213.73 36.8678 214.518 36.2949C215.048 35.8939 215.312 35.3568 215.312 34.6836C215.312 34.2253 215.169 33.8457 214.883 33.5449C214.582 33.2585 213.909 32.9935 212.863 32.75C207.993 31.6758 204.907 30.6947 203.604 29.8066C201.799 28.5749 200.896 26.8633 200.896 24.6719C200.896 22.6953 201.677 21.0339 203.238 19.6875C204.799 18.3411 207.22 17.668 210.5 17.668C213.622 17.668 215.943 18.1764 217.461 19.1934C218.979 20.2103 220.025 21.7142 220.598 23.7051L214.904 24.7578C214.661 23.8698 214.195 23.1895 213.508 22.7168C212.835 22.2441 211.868 22.0078 210.607 22.0078C209.018 22.0078 207.879 22.2298 207.191 22.6738C206.733 22.9889 206.504 23.3971 206.504 23.8984C206.504 24.3281 206.704 24.6934 207.105 24.9941C207.65 25.3952 209.526 25.9609 212.734 26.6914C215.957 27.4219 218.206 28.3171 219.48 29.377C220.741 30.4512 221.371 31.9479 221.371 33.8672C221.371 35.9583 220.497 37.7559 218.75 39.2598C217.003 40.7637 214.417 41.5156 210.994 41.5156C207.886 41.5156 205.423 40.8854 203.604 39.625C201.799 38.3646 200.617 36.653 200.059 34.4902ZM227.838 24.2207V18.1836H233.875V24.2207H227.838ZM227.838 41V34.9629H233.875V41H227.838ZM253.125 18.1836H258.689V21.2988C260.68 18.8783 263.051 17.668 265.801 17.668C267.262 17.668 268.529 17.9688 269.604 18.5703C270.678 19.1719 271.559 20.0814 272.246 21.2988C273.249 20.0814 274.33 19.1719 275.49 18.5703C276.65 17.9688 277.889 17.668 279.207 17.668C280.883 17.668 282.301 18.0117 283.461 18.6992C284.621 19.3724 285.488 20.3678 286.061 21.6855C286.476 22.6595 286.684 24.235 286.684 26.4121V41H280.646V27.959C280.646 25.696 280.439 24.235 280.023 23.5762C279.465 22.7168 278.605 22.2871 277.445 22.2871C276.6 22.2871 275.805 22.5449 275.061 23.0605C274.316 23.5762 273.779 24.3353 273.449 25.3379C273.12 26.3262 272.955 27.8945 272.955 30.043V41H266.918V28.4961C266.918 26.276 266.811 24.8438 266.596 24.1992C266.381 23.5547 266.044 23.0749 265.586 22.7598C265.142 22.4447 264.533 22.2871 263.76 22.2871C262.829 22.2871 261.991 22.5378 261.246 23.0391C260.501 23.5404 259.964 24.2637 259.635 25.209C259.32 26.1543 259.162 27.7227 259.162 29.9141V41H253.125V18.1836ZM297.232 25.1445L291.754 24.1562C292.37 21.9505 293.43 20.3177 294.934 19.2578C296.438 18.1979 298.672 17.668 301.637 17.668C304.329 17.668 306.335 17.9902 307.652 18.6348C308.97 19.265 309.894 20.0742 310.424 21.0625C310.968 22.0365 311.24 23.834 311.24 26.4551L311.176 33.502C311.176 35.5072 311.269 36.9896 311.455 37.9492C311.656 38.8945 312.021 39.9115 312.551 41H306.578C306.421 40.599 306.227 40.0046 305.998 39.2168C305.898 38.8587 305.826 38.6224 305.783 38.5078C304.752 39.5104 303.649 40.2624 302.475 40.7637C301.3 41.265 300.047 41.5156 298.715 41.5156C296.366 41.5156 294.511 40.8783 293.15 39.6035C291.804 38.3288 291.131 36.7174 291.131 34.7695C291.131 33.4805 291.439 32.3346 292.055 31.332C292.671 30.3151 293.53 29.5417 294.633 29.0117C295.75 28.4674 297.354 27.9948 299.445 27.5938C302.267 27.0638 304.222 26.5697 305.311 26.1113V25.5098C305.311 24.3496 305.024 23.526 304.451 23.0391C303.878 22.5378 302.797 22.2871 301.207 22.2871C300.133 22.2871 299.295 22.502 298.693 22.9316C298.092 23.347 297.605 24.0846 297.232 25.1445ZM305.311 30.043C304.537 30.3008 303.312 30.6087 301.637 30.9668C299.961 31.3249 298.865 31.6758 298.35 32.0195C297.562 32.5781 297.168 33.2871 297.168 34.1465C297.168 34.9915 297.483 35.722 298.113 36.3379C298.743 36.9538 299.546 37.2617 300.52 37.2617C301.608 37.2617 302.646 36.9036 303.635 36.1875C304.365 35.6432 304.845 34.9772 305.074 34.1895C305.232 33.6738 305.311 32.6927 305.311 31.2461V30.043ZM322.992 41H316.955V18.1836H322.562V21.4277C323.522 19.8952 324.382 18.8854 325.141 18.3984C325.914 17.9115 326.788 17.668 327.762 17.668C329.137 17.668 330.462 18.0475 331.736 18.8066L329.867 24.0703C328.85 23.4115 327.905 23.082 327.031 23.082C326.186 23.082 325.47 23.3184 324.883 23.791C324.296 24.2493 323.83 25.0872 323.486 26.3047C323.157 27.5221 322.992 30.0716 322.992 33.9531V41ZM354.252 24.9297L348.301 26.0039C348.1 24.8151 347.642 23.9199 346.926 23.3184C346.224 22.7168 345.307 22.416 344.176 22.416C342.672 22.416 341.469 22.9388 340.566 23.9844C339.678 25.0156 339.234 26.7487 339.234 29.1836C339.234 31.8906 339.686 33.8027 340.588 34.9199C341.505 36.0371 342.729 36.5957 344.262 36.5957C345.408 36.5957 346.346 36.2734 347.076 35.6289C347.807 34.9701 348.322 33.8457 348.623 32.2559L354.553 33.2656C353.937 35.987 352.755 38.0423 351.008 39.4316C349.26 40.821 346.919 41.5156 343.982 41.5156C340.645 41.5156 337.981 40.4629 335.99 38.3574C334.014 36.252 333.025 33.3372 333.025 29.6133C333.025 25.8464 334.021 22.9173 336.012 20.8262C338.003 18.7207 340.695 17.668 344.09 17.668C346.868 17.668 349.074 18.2695 350.707 19.4727C352.354 20.6615 353.536 22.4805 354.252 24.9297ZM364.865 9.50391V21.084C366.813 18.8066 369.141 17.668 371.848 17.668C373.237 17.668 374.49 17.9258 375.607 18.4414C376.725 18.957 377.562 19.6159 378.121 20.418C378.694 21.2201 379.081 22.1081 379.281 23.082C379.496 24.056 379.604 25.5671 379.604 27.6152V41H373.566V28.9473C373.566 26.5553 373.452 25.0371 373.223 24.3926C372.993 23.748 372.585 23.2396 371.998 22.8672C371.425 22.4805 370.702 22.2871 369.828 22.2871C368.826 22.2871 367.93 22.5306 367.143 23.0176C366.355 23.5046 365.775 24.2422 365.402 25.2305C365.044 26.2044 364.865 27.651 364.865 29.5703V41H358.828V9.50391H364.865ZM417.094 35.3926V41H395.932C396.161 38.8802 396.848 36.875 397.994 34.9844C399.14 33.0794 401.403 30.5586 404.783 27.4219C407.505 24.8867 409.173 23.168 409.789 22.2656C410.62 21.0195 411.035 19.7878 411.035 18.5703C411.035 17.224 410.67 16.1927 409.939 15.4766C409.223 14.7461 408.228 14.3809 406.953 14.3809C405.693 14.3809 404.69 14.7604 403.945 15.5195C403.201 16.2786 402.771 17.5391 402.656 19.3008L396.641 18.6992C396.999 15.3763 398.123 12.9915 400.014 11.5449C401.904 10.0983 404.268 9.375 407.104 9.375C410.212 9.375 412.654 10.2129 414.43 11.8887C416.206 13.5645 417.094 15.6484 417.094 18.1406C417.094 19.5586 416.836 20.9121 416.32 22.2012C415.819 23.4759 415.017 24.8151 413.914 26.2188C413.184 27.1497 411.866 28.4889 409.961 30.2363C408.056 31.9837 406.846 33.1439 406.33 33.7168C405.829 34.2897 405.421 34.8483 405.105 35.3926H417.094ZM426.375 24.0059C424.814 23.347 423.675 22.4447 422.959 21.2988C422.257 20.1387 421.906 18.8711 421.906 17.4961C421.906 15.1471 422.723 13.2064 424.355 11.6738C426.003 10.1413 428.337 9.375 431.359 9.375C434.353 9.375 436.673 10.1413 438.32 11.6738C439.982 13.2064 440.812 15.1471 440.812 17.4961C440.812 18.957 440.433 20.2604 439.674 21.4062C438.915 22.5378 437.848 23.4043 436.473 24.0059C438.22 24.7077 439.545 25.7318 440.447 27.0781C441.364 28.4245 441.822 29.9785 441.822 31.7402C441.822 34.6478 440.891 37.0111 439.029 38.8301C437.182 40.6491 434.718 41.5586 431.639 41.5586C428.774 41.5586 426.389 40.8066 424.484 39.3027C422.236 37.5267 421.111 35.0918 421.111 31.998C421.111 30.2936 421.534 28.7324 422.379 27.3145C423.224 25.8822 424.556 24.7793 426.375 24.0059ZM427.621 17.9258C427.621 19.1289 427.958 20.0671 428.631 20.7402C429.318 21.4134 430.228 21.75 431.359 21.75C432.505 21.75 433.422 21.4134 434.109 20.7402C434.797 20.0527 435.141 19.1074 435.141 17.9043C435.141 16.7728 434.797 15.8704 434.109 15.1973C433.436 14.5098 432.541 14.166 431.424 14.166C430.264 14.166 429.34 14.5098 428.652 15.1973C427.965 15.8848 427.621 16.7943 427.621 17.9258ZM427.062 31.418C427.062 33.0794 427.485 34.3757 428.33 35.3066C429.189 36.2376 430.257 36.7031 431.531 36.7031C432.777 36.7031 433.809 36.2591 434.625 35.3711C435.441 34.4688 435.85 33.1725 435.85 31.4824C435.85 30.0072 435.434 28.8255 434.604 27.9375C433.773 27.0352 432.72 26.584 431.445 26.584C429.97 26.584 428.867 27.0924 428.137 28.1094C427.421 29.1263 427.062 30.2292 427.062 31.418ZM446.291 32.5996V26.5625H458.15V32.5996H446.291ZM478.389 25.1445L472.91 24.1562C473.526 21.9505 474.586 20.3177 476.09 19.2578C477.594 18.1979 479.828 17.668 482.793 17.668C485.486 17.668 487.491 17.9902 488.809 18.6348C490.126 19.265 491.05 20.0742 491.58 21.0625C492.124 22.0365 492.396 23.834 492.396 26.4551L492.332 33.502C492.332 35.5072 492.425 36.9896 492.611 37.9492C492.812 38.8945 493.177 39.9115 493.707 41H487.734C487.577 40.599 487.383 40.0046 487.154 39.2168C487.054 38.8587 486.982 38.6224 486.939 38.5078C485.908 39.5104 484.805 40.2624 483.631 40.7637C482.456 41.265 481.203 41.5156 479.871 41.5156C477.522 41.5156 475.667 40.8783 474.307 39.6035C472.96 38.3288 472.287 36.7174 472.287 34.7695C472.287 33.4805 472.595 32.3346 473.211 31.332C473.827 30.3151 474.686 29.5417 475.789 29.0117C476.906 28.4674 478.51 27.9948 480.602 27.5938C483.423 27.0638 485.378 26.5697 486.467 26.1113V25.5098C486.467 24.3496 486.18 23.526 485.607 23.0391C485.035 22.5378 483.953 22.2871 482.363 22.2871C481.289 22.2871 480.451 22.502 479.85 22.9316C479.248 23.347 478.761 24.0846 478.389 25.1445ZM486.467 30.043C485.693 30.3008 484.469 30.6087 482.793 30.9668C481.117 31.3249 480.021 31.6758 479.506 32.0195C478.718 32.5781 478.324 33.2871 478.324 34.1465C478.324 34.9915 478.639 35.722 479.27 36.3379C479.9 36.9538 480.702 37.2617 481.676 37.2617C482.764 37.2617 483.803 36.9036 484.791 36.1875C485.521 35.6432 486.001 34.9772 486.23 34.1895C486.388 33.6738 486.467 32.6927 486.467 31.2461V30.043ZM498.197 18.1836H503.826V21.5352C504.557 20.3893 505.545 19.4583 506.791 18.7422C508.037 18.026 509.419 17.668 510.938 17.668C513.587 17.668 515.836 18.7064 517.684 20.7832C519.531 22.86 520.455 25.7533 520.455 29.4629C520.455 33.2728 519.524 36.2376 517.662 38.3574C515.8 40.4629 513.544 41.5156 510.895 41.5156C509.634 41.5156 508.488 41.265 507.457 40.7637C506.44 40.2624 505.366 39.403 504.234 38.1855V49.6797H498.197V18.1836ZM504.17 29.2051C504.17 31.7689 504.678 33.6667 505.695 34.8984C506.712 36.1159 507.951 36.7246 509.412 36.7246C510.816 36.7246 511.983 36.166 512.914 35.0488C513.845 33.9173 514.311 32.0697 514.311 29.5059C514.311 27.1139 513.831 25.3379 512.871 24.1777C511.911 23.0176 510.723 22.4375 509.305 22.4375C507.829 22.4375 506.605 23.0104 505.631 24.1562C504.657 25.2878 504.17 26.9707 504.17 29.2051ZM531.047 41H525.01V18.1836H530.617V21.4277C531.577 19.8952 532.436 18.8854 533.195 18.3984C533.969 17.9115 534.842 17.668 535.816 17.668C537.191 17.668 538.516 18.0475 539.791 18.8066L537.922 24.0703C536.905 23.4115 535.96 23.082 535.086 23.082C534.241 23.082 533.525 23.3184 532.938 23.791C532.35 24.2493 531.885 25.0872 531.541 26.3047C531.212 27.5221 531.047 30.0716 531.047 33.9531V41ZM542.412 15.0898V9.50391H548.449V15.0898H542.412ZM542.412 41V18.1836H548.449V41H542.412ZM554.658 41V9.50391H560.695V41H554.658ZM577.646 32.6426L583.49 31.9336C583.676 33.4232 584.178 34.5618 584.994 35.3496C585.811 36.1374 586.799 36.5312 587.959 36.5312C589.205 36.5312 590.251 36.0586 591.096 35.1133C591.955 34.168 592.385 32.8932 592.385 31.2891C592.385 29.7708 591.977 28.5677 591.16 27.6797C590.344 26.7917 589.348 26.3477 588.174 26.3477C587.4 26.3477 586.477 26.498 585.402 26.7988L586.068 21.8789C587.701 21.9219 588.947 21.571 589.807 20.8262C590.666 20.0671 591.096 19.0645 591.096 17.8184C591.096 16.7585 590.781 15.9134 590.15 15.2832C589.52 14.653 588.682 14.3379 587.637 14.3379C586.605 14.3379 585.725 14.696 584.994 15.4121C584.264 16.1283 583.82 17.1738 583.662 18.5488L578.098 17.6035C578.484 15.6986 579.064 14.1803 579.838 13.0488C580.626 11.903 581.714 11.0078 583.104 10.3633C584.507 9.70443 586.076 9.375 587.809 9.375C590.773 9.375 593.151 10.3203 594.941 12.2109C596.417 13.7578 597.154 15.5052 597.154 17.4531C597.154 20.2174 595.643 22.4232 592.621 24.0703C594.426 24.457 595.865 25.3236 596.939 26.6699C598.028 28.0163 598.572 29.6419 598.572 31.5469C598.572 34.3112 597.562 36.6673 595.543 38.6152C593.523 40.5632 591.01 41.5371 588.002 41.5371C585.152 41.5371 582.788 40.7207 580.912 39.0879C579.036 37.4408 577.947 35.2923 577.646 32.6426Z" fill="black"/>
</g>
<path d="M135.705 991.54V996H118.872C119.054 994.314 119.601 992.719 120.512 991.215C121.424 989.7 123.224 987.694 125.913 985.199C128.077 983.183 129.405 981.815 129.895 981.098C130.555 980.106 130.886 979.127 130.886 978.158C130.886 977.087 130.595 976.267 130.014 975.697C129.444 975.116 128.653 974.826 127.639 974.826C126.636 974.826 125.839 975.128 125.246 975.731C124.654 976.335 124.312 977.338 124.221 978.739L119.436 978.261C119.72 975.618 120.615 973.721 122.119 972.57C123.623 971.419 125.502 970.844 127.758 970.844C130.231 970.844 132.173 971.51 133.586 972.843C134.999 974.176 135.705 975.834 135.705 977.816C135.705 978.944 135.5 980.021 135.09 981.046C134.691 982.06 134.053 983.126 133.176 984.242C132.595 984.983 131.547 986.048 130.031 987.438C128.516 988.828 127.553 989.751 127.143 990.207C126.744 990.662 126.42 991.107 126.169 991.54H135.705ZM143.088 982.482C141.846 981.958 140.94 981.24 140.371 980.329C139.812 979.406 139.533 978.397 139.533 977.304C139.533 975.435 140.183 973.891 141.481 972.672C142.792 971.453 144.649 970.844 147.053 970.844C149.434 970.844 151.28 971.453 152.59 972.672C153.911 973.891 154.572 975.435 154.572 977.304C154.572 978.466 154.27 979.503 153.667 980.414C153.063 981.314 152.214 982.003 151.12 982.482C152.51 983.04 153.564 983.855 154.282 984.926C155.011 985.997 155.375 987.233 155.375 988.634C155.375 990.947 154.635 992.827 153.154 994.274C151.684 995.721 149.724 996.444 147.275 996.444C144.996 996.444 143.099 995.846 141.584 994.65C139.795 993.237 138.901 991.3 138.901 988.839C138.901 987.484 139.237 986.242 139.909 985.114C140.581 983.974 141.641 983.097 143.088 982.482ZM144.079 977.646C144.079 978.603 144.347 979.349 144.882 979.884C145.429 980.42 146.153 980.688 147.053 980.688C147.964 980.688 148.693 980.42 149.24 979.884C149.787 979.337 150.061 978.585 150.061 977.628C150.061 976.728 149.787 976.011 149.24 975.475C148.705 974.928 147.993 974.655 147.104 974.655C146.181 974.655 145.446 974.928 144.899 975.475C144.353 976.022 144.079 976.745 144.079 977.646ZM143.635 988.378C143.635 989.7 143.971 990.731 144.643 991.471C145.327 992.212 146.175 992.582 147.189 992.582C148.181 992.582 149.001 992.229 149.65 991.522C150.3 990.805 150.625 989.774 150.625 988.429C150.625 987.256 150.294 986.316 149.633 985.609C148.972 984.892 148.135 984.533 147.121 984.533C145.948 984.533 145.07 984.937 144.489 985.746C143.92 986.555 143.635 987.432 143.635 988.378Z" fill="#2A58CE"/>
<path d="M252.153 92.8506H256.58V95.3286C258.163 93.4032 260.049 92.4404 262.236 92.4404C263.398 92.4404 264.407 92.6797 265.261 93.1582C266.116 93.6367 266.816 94.3602 267.363 95.3286C268.161 94.3602 269.021 93.6367 269.944 93.1582C270.867 92.6797 271.852 92.4404 272.9 92.4404C274.233 92.4404 275.361 92.7139 276.284 93.2607C277.207 93.7962 277.896 94.5881 278.352 95.6362C278.682 96.411 278.848 97.6642 278.848 99.396V111H274.045V100.626C274.045 98.8263 273.88 97.6642 273.55 97.1401C273.105 96.4565 272.422 96.1147 271.499 96.1147C270.827 96.1147 270.194 96.3198 269.602 96.73C269.01 97.1401 268.582 97.744 268.32 98.5415C268.058 99.3276 267.927 100.575 267.927 102.284V111H263.125V101.054C263.125 99.2878 263.04 98.1484 262.869 97.6357C262.698 97.123 262.43 96.7414 262.065 96.4907C261.712 96.2401 261.228 96.1147 260.613 96.1147C259.872 96.1147 259.206 96.3141 258.613 96.7129C258.021 97.1117 257.594 97.687 257.332 98.439C257.081 99.1909 256.956 100.438 256.956 102.182V111H252.153V92.8506Z" fill="#2A58CE"/>
<path d="M260.705 991.54V996H243.872C244.054 994.314 244.601 992.719 245.512 991.215C246.424 989.7 248.224 987.694 250.913 985.199C253.077 983.183 254.405 981.815 254.895 981.098C255.555 980.106 255.886 979.127 255.886 978.158C255.886 977.087 255.595 976.267 255.014 975.697C254.444 975.116 253.653 974.826 252.639 974.826C251.636 974.826 250.839 975.128 250.246 975.731C249.654 976.335 249.312 977.338 249.221 978.739L244.436 978.261C244.72 975.618 245.615 973.721 247.119 972.57C248.623 971.419 250.502 970.844 252.758 970.844C255.231 970.844 257.173 971.51 258.586 972.843C259.999 974.176 260.705 975.834 260.705 977.816C260.705 978.944 260.5 980.021 260.09 981.046C259.691 982.06 259.053 983.126 258.176 984.242C257.595 984.983 256.547 986.048 255.031 987.438C253.516 988.828 252.553 989.751 252.143 990.207C251.744 990.662 251.42 991.107 251.169 991.54H260.705ZM264.072 990.207L268.72 989.694C268.834 990.639 269.13 991.34 269.609 991.796C270.087 992.252 270.72 992.479 271.506 992.479C272.497 992.479 273.34 992.024 274.035 991.112C274.73 990.201 275.174 988.31 275.368 985.438C274.16 986.84 272.651 987.541 270.839 987.541C268.868 987.541 267.165 986.783 265.729 985.268C264.305 983.741 263.593 981.758 263.593 979.32C263.593 976.78 264.345 974.735 265.849 973.185C267.364 971.624 269.29 970.844 271.625 970.844C274.166 970.844 276.251 971.829 277.88 973.8C279.51 975.76 280.324 978.99 280.324 983.49C280.324 988.07 279.475 991.374 277.778 993.402C276.08 995.43 273.87 996.444 271.147 996.444C269.187 996.444 267.604 995.926 266.396 994.889C265.188 993.841 264.414 992.28 264.072 990.207ZM274.941 979.713C274.941 978.164 274.582 976.962 273.864 976.107C273.158 975.253 272.338 974.826 271.403 974.826C270.515 974.826 269.774 975.179 269.182 975.885C268.601 976.58 268.31 977.725 268.31 979.32C268.31 980.938 268.629 982.129 269.267 982.892C269.905 983.644 270.703 984.02 271.66 984.02C272.583 984.02 273.357 983.655 273.984 982.926C274.622 982.197 274.941 981.126 274.941 979.713Z" fill="#2A58CE"/>
<path d="M398.835 92.8506V96.6787H395.554V103.993C395.554 105.474 395.582 106.34 395.639 106.591C395.708 106.83 395.85 107.029 396.066 107.189C396.294 107.348 396.568 107.428 396.887 107.428C397.331 107.428 397.975 107.274 398.818 106.967L399.228 110.692C398.111 111.171 396.847 111.41 395.434 111.41C394.568 111.41 393.788 111.268 393.093 110.983C392.398 110.687 391.885 110.311 391.555 109.855C391.236 109.388 391.014 108.761 390.888 107.975C390.786 107.417 390.734 106.289 390.734 104.591V96.6787H388.53V92.8506H390.734V89.2446L395.554 86.4419V92.8506H398.835Z" fill="#2A58CE"/>
<path d="M376.316 989.352L380.964 988.788C381.112 989.973 381.511 990.879 382.161 991.505C382.81 992.132 383.596 992.445 384.519 992.445C385.51 992.445 386.342 992.069 387.014 991.317C387.698 990.565 388.04 989.551 388.04 988.275C388.04 987.068 387.715 986.111 387.065 985.404C386.416 984.698 385.624 984.345 384.69 984.345C384.075 984.345 383.34 984.464 382.485 984.704L383.015 980.79C384.314 980.824 385.305 980.545 385.989 979.953C386.672 979.349 387.014 978.551 387.014 977.56C387.014 976.717 386.764 976.045 386.262 975.543C385.761 975.042 385.094 974.792 384.263 974.792C383.442 974.792 382.742 975.076 382.161 975.646C381.58 976.216 381.226 977.047 381.101 978.141L376.675 977.389C376.982 975.874 377.444 974.666 378.059 973.766C378.686 972.855 379.552 972.143 380.657 971.63C381.773 971.106 383.021 970.844 384.399 970.844C386.758 970.844 388.649 971.596 390.073 973.1C391.247 974.33 391.833 975.72 391.833 977.27C391.833 979.468 390.632 981.223 388.228 982.533C389.663 982.841 390.808 983.53 391.663 984.601C392.528 985.672 392.961 986.965 392.961 988.48C392.961 990.679 392.158 992.554 390.552 994.103C388.945 995.653 386.946 996.427 384.553 996.427C382.286 996.427 380.406 995.778 378.914 994.479C377.421 993.169 376.555 991.46 376.316 989.352ZM404.087 970.844C406.514 970.844 408.411 971.71 409.778 973.441C411.407 975.492 412.222 978.893 412.222 983.644C412.222 988.384 411.401 991.79 409.761 993.864C408.405 995.573 406.514 996.427 404.087 996.427C401.649 996.427 399.683 995.493 398.191 993.625C396.698 991.745 395.952 988.401 395.952 983.593C395.952 978.876 396.772 975.481 398.413 973.407C399.769 971.698 401.66 970.844 404.087 970.844ZM404.087 974.826C403.506 974.826 402.987 975.014 402.532 975.39C402.076 975.754 401.723 976.415 401.472 977.372C401.142 978.614 400.977 980.705 400.977 983.644C400.977 986.583 401.125 988.606 401.421 989.711C401.717 990.805 402.087 991.534 402.532 991.898C402.987 992.263 403.506 992.445 404.087 992.445C404.668 992.445 405.186 992.263 405.642 991.898C406.098 991.522 406.451 990.856 406.702 989.899C407.032 988.668 407.197 986.583 407.197 983.644C407.197 980.705 407.049 978.688 406.753 977.594C406.457 976.489 406.081 975.754 405.625 975.39C405.181 975.014 404.668 974.826 404.087 974.826Z" fill="#2A58CE"/>
<path d="M506.896 111L501.154 92.8506H505.819L509.22 104.745L512.348 92.8506H516.979L520.004 104.745L523.473 92.8506H528.207L522.379 111H517.765L514.638 99.3276L511.562 111H506.896Z" fill="#2A58CE"/>
<path d="M500.316 989.352L504.964 988.788C505.112 989.973 505.511 990.879 506.161 991.505C506.81 992.132 507.596 992.445 508.519 992.445C509.51 992.445 510.342 992.069 511.014 991.317C511.698 990.565 512.04 989.551 512.04 988.275C512.04 987.068 511.715 986.111 511.065 985.404C510.416 984.698 509.624 984.345 508.69 984.345C508.075 984.345 507.34 984.464 506.485 984.704L507.015 980.79C508.314 980.824 509.305 980.545 509.989 979.953C510.672 979.349 511.014 978.551 511.014 977.56C511.014 976.717 510.764 976.045 510.262 975.543C509.761 975.042 509.094 974.792 508.263 974.792C507.442 974.792 506.742 975.076 506.161 975.646C505.58 976.216 505.226 977.047 505.101 978.141L500.675 977.389C500.982 975.874 501.444 974.666 502.059 973.766C502.686 972.855 503.552 972.143 504.657 971.63C505.773 971.106 507.021 970.844 508.399 970.844C510.758 970.844 512.649 971.596 514.073 973.1C515.247 974.33 515.833 975.72 515.833 977.27C515.833 979.468 514.632 981.223 512.228 982.533C513.663 982.841 514.808 983.53 515.663 984.601C516.528 985.672 516.961 986.965 516.961 988.48C516.961 990.679 516.158 992.554 514.552 994.103C512.945 995.653 510.946 996.427 508.553 996.427C506.286 996.427 504.406 995.778 502.914 994.479C501.421 993.169 500.555 991.46 500.316 989.352ZM532.257 996H527.455V977.902C525.7 979.542 523.632 980.756 521.251 981.542V977.184C522.504 976.774 523.866 975.999 525.335 974.86C526.805 973.709 527.813 972.37 528.36 970.844H532.257V996Z" fill="#2A58CE"/>
<path d="M636.835 92.8506V96.6787H633.554V103.993C633.554 105.474 633.582 106.34 633.639 106.591C633.708 106.83 633.85 107.029 634.066 107.189C634.294 107.348 634.568 107.428 634.887 107.428C635.331 107.428 635.975 107.274 636.818 106.967L637.228 110.692C636.111 111.171 634.847 111.41 633.434 111.41C632.568 111.41 631.788 111.268 631.093 110.983C630.398 110.687 629.885 110.311 629.555 109.855C629.236 109.388 629.014 108.761 628.888 107.975C628.786 107.417 628.734 106.289 628.734 104.591V96.6787H626.53V92.8506H628.734V89.2446L633.554 86.4419V92.8506H636.835ZM644.953 85.9463V95.1577C646.502 93.3462 648.354 92.4404 650.507 92.4404C651.612 92.4404 652.609 92.6455 653.498 93.0557C654.386 93.4658 655.053 93.9899 655.497 94.6279C655.953 95.266 656.26 95.9723 656.42 96.7471C656.591 97.5218 656.676 98.7238 656.676 100.353V111H651.874V101.413C651.874 99.5099 651.783 98.3022 651.601 97.7896C651.418 97.2769 651.094 96.8724 650.626 96.5762C650.171 96.2686 649.595 96.1147 648.9 96.1147C648.103 96.1147 647.391 96.3084 646.764 96.6958C646.138 97.0832 645.676 97.6699 645.38 98.4561C645.095 99.2308 644.953 100.382 644.953 101.908V111H640.15V85.9463H644.953Z" fill="#2A58CE"/>
<path d="M642.774 996H637.972V977.902C636.218 979.542 634.15 980.756 631.769 981.542V977.184C633.022 976.774 634.383 975.999 635.853 974.86C637.323 973.709 638.331 972.37 638.878 970.844H642.774V996Z" fill="#2A58CE"/>
<path d="M765.41 92.8506H768.076V91.4834C768.076 89.9567 768.236 88.8174 768.555 88.0654C768.885 87.3135 769.483 86.7039 770.349 86.2368C771.226 85.7583 772.332 85.519 773.665 85.519C775.032 85.519 776.37 85.7241 777.681 86.1343L777.031 89.4839C776.268 89.3016 775.533 89.2104 774.827 89.2104C774.132 89.2104 773.63 89.3757 773.323 89.7061C773.027 90.0251 772.878 90.646 772.878 91.5688V92.8506H776.467V96.6274H772.878V111H768.076V96.6274H765.41V92.8506Z" fill="#2A58CE"/>
<path d="M772.705 991.54V996H755.872C756.054 994.314 756.601 992.719 757.512 991.215C758.424 989.7 760.224 987.694 762.913 985.199C765.077 983.183 766.405 981.815 766.895 981.098C767.555 980.106 767.886 979.127 767.886 978.158C767.886 977.087 767.595 976.267 767.014 975.697C766.444 975.116 765.653 974.826 764.639 974.826C763.636 974.826 762.839 975.128 762.246 975.731C761.654 976.335 761.312 977.338 761.221 978.739L756.436 978.261C756.72 975.618 757.615 973.721 759.119 972.57C760.623 971.419 762.502 970.844 764.758 970.844C767.231 970.844 769.173 971.51 770.586 972.843C771.999 974.176 772.705 975.834 772.705 977.816C772.705 978.944 772.5 980.021 772.09 981.046C771.691 982.06 771.053 983.126 770.176 984.242C769.595 984.983 768.547 986.048 767.031 987.438C765.516 988.828 764.553 989.751 764.143 990.207C763.744 990.662 763.42 991.107 763.169 991.54H772.705Z" fill="#2A58CE"/>
<path d="M129.82 107.822L134.64 107.087C134.845 108.021 135.261 108.733 135.887 109.223C136.514 109.702 137.391 109.941 138.519 109.941C139.761 109.941 140.695 109.713 141.322 109.257C141.743 108.938 141.954 108.511 141.954 107.976C141.954 107.611 141.84 107.309 141.612 107.07C141.373 106.842 140.838 106.631 140.006 106.438C136.132 105.583 133.677 104.803 132.64 104.096C131.205 103.116 130.487 101.755 130.487 100.012C130.487 98.4395 131.108 97.1178 132.35 96.0469C133.591 94.9759 135.517 94.4404 138.126 94.4404C140.61 94.4404 142.455 94.8449 143.663 95.6538C144.871 96.4627 145.702 97.659 146.158 99.2427L141.629 100.08C141.436 99.3737 141.065 98.8325 140.519 98.4565C139.983 98.0806 139.214 97.8926 138.211 97.8926C136.947 97.8926 136.041 98.0692 135.494 98.4224C135.13 98.673 134.947 98.9977 134.947 99.3965C134.947 99.7383 135.107 100.029 135.426 100.268C135.859 100.587 137.351 101.037 139.903 101.618C142.467 102.199 144.256 102.911 145.27 103.754C146.272 104.609 146.773 105.799 146.773 107.326C146.773 108.99 146.078 110.419 144.688 111.616C143.299 112.812 141.242 113.41 138.519 113.41C136.047 113.41 134.087 112.909 132.64 111.906C131.205 110.904 130.265 109.542 129.82 107.822Z" fill="#2A58CE"/>
<path d="M876.316 989.352L880.964 988.788C881.112 989.973 881.511 990.879 882.161 991.505C882.81 992.132 883.596 992.445 884.519 992.445C885.51 992.445 886.342 992.069 887.014 991.317C887.698 990.565 888.04 989.551 888.04 988.275C888.04 987.068 887.715 986.111 887.065 985.404C886.416 984.698 885.624 984.345 884.69 984.345C884.075 984.345 883.34 984.464 882.485 984.704L883.015 980.79C884.314 980.824 885.305 980.545 885.989 979.953C886.672 979.349 887.014 978.551 887.014 977.56C887.014 976.717 886.764 976.045 886.262 975.543C885.761 975.042 885.094 974.792 884.263 974.792C883.442 974.792 882.742 975.076 882.161 975.646C881.58 976.216 881.226 977.047 881.101 978.141L876.675 977.389C876.982 975.874 877.444 974.666 878.059 973.766C878.686 972.855 879.552 972.143 880.657 971.63C881.773 971.106 883.021 970.844 884.399 970.844C886.758 970.844 888.649 971.596 890.073 973.1C891.247 974.33 891.833 975.72 891.833 977.27C891.833 979.468 890.632 981.223 888.228 982.533C889.663 982.841 890.808 983.53 891.663 984.601C892.528 985.672 892.961 986.965 892.961 988.48C892.961 990.679 892.158 992.554 890.552 994.103C888.945 995.653 886.946 996.427 884.553 996.427C882.286 996.427 880.406 995.778 878.914 994.479C877.421 993.169 876.555 991.46 876.316 989.352Z" fill="#2A58CE"/>
<path d="M884.82 105.822L889.64 105.087C889.845 106.021 890.261 106.733 890.887 107.223C891.514 107.702 892.391 107.941 893.519 107.941C894.761 107.941 895.695 107.713 896.322 107.257C896.743 106.938 896.954 106.511 896.954 105.976C896.954 105.611 896.84 105.309 896.612 105.07C896.373 104.842 895.838 104.631 895.006 104.438C891.132 103.583 888.677 102.803 887.64 102.096C886.205 101.116 885.487 99.7549 885.487 98.0117C885.487 96.4395 886.108 95.1178 887.35 94.0469C888.591 92.9759 890.517 92.4404 893.126 92.4404C895.61 92.4404 897.455 92.8449 898.663 93.6538C899.871 94.4627 900.702 95.659 901.158 97.2427L896.629 98.0801C896.436 97.3737 896.065 96.8325 895.519 96.4565C894.983 96.0806 894.214 95.8926 893.211 95.8926C891.947 95.8926 891.041 96.0692 890.494 96.4224C890.13 96.673 889.947 96.9977 889.947 97.3965C889.947 97.7383 890.107 98.0288 890.426 98.2681C890.859 98.5871 892.351 99.0371 894.903 99.6182C897.467 100.199 899.256 100.911 900.27 101.754C901.272 102.609 901.773 103.799 901.773 105.326C901.773 106.99 901.078 108.419 899.688 109.616C898.299 110.812 896.242 111.41 893.519 111.41C891.047 111.41 889.087 110.909 887.64 109.906C886.205 108.904 885.265 107.542 884.82 105.822Z" fill="#2A58CE"/>
<rect x="16" y="131" width="67" height="820" fill="#D5D4D4" stroke="#2A58CE" stroke-width="2"/>
<line x1="82" y1="130" x2="82" y2="952" stroke="#2A58CE" stroke-width="4"/>
<line x1="207" y1="130" x2="207" y2="952" stroke="#2A58CE" stroke-width="4"/>
<path d="M33.1465 157.189L30.4902 157.482C30.4251 156.936 30.2559 156.532 29.9824 156.271C29.709 156.011 29.3542 155.881 28.918 155.881C28.3385 155.881 27.847 156.141 27.4434 156.662C27.0462 157.183 26.7956 158.267 26.6914 159.914C27.375 159.107 28.2246 158.703 29.2402 158.703C30.3861 158.703 31.3659 159.139 32.1797 160.012C33 160.884 33.4102 162.01 33.4102 163.391C33.4102 164.855 32.9805 166.031 32.1211 166.916C31.2617 167.801 30.1582 168.244 28.8105 168.244C27.3652 168.244 26.1771 167.684 25.2461 166.564C24.3151 165.438 23.8496 163.596 23.8496 161.037C23.8496 158.413 24.3346 156.522 25.3047 155.363C26.2747 154.204 27.5345 153.625 29.084 153.625C30.1712 153.625 31.0697 153.931 31.7793 154.543C32.4954 155.148 32.9512 156.031 33.1465 157.189ZM26.9258 163.176C26.9258 164.068 27.1309 164.758 27.541 165.246C27.9512 165.728 28.4199 165.969 28.9473 165.969C29.4551 165.969 29.8783 165.77 30.2168 165.373C30.5553 164.976 30.7246 164.325 30.7246 163.42C30.7246 162.489 30.5423 161.809 30.1777 161.379C29.8132 160.943 29.3574 160.725 28.8105 160.725C28.2832 160.725 27.8372 160.933 27.4727 161.35C27.1081 161.76 26.9258 162.368 26.9258 163.176ZM37.6191 160.793L35.1289 160.344C35.4089 159.341 35.8906 158.599 36.5742 158.117C37.2578 157.635 38.2734 157.395 39.6211 157.395C40.8451 157.395 41.7565 157.541 42.3555 157.834C42.9544 158.12 43.3743 158.488 43.6152 158.938C43.8626 159.38 43.9863 160.197 43.9863 161.389L43.957 164.592C43.957 165.503 43.9993 166.177 44.084 166.613C44.1751 167.043 44.3411 167.505 44.582 168H41.8672C41.7956 167.818 41.7077 167.548 41.6035 167.189C41.5579 167.027 41.5254 166.919 41.5059 166.867C41.0371 167.323 40.5358 167.665 40.002 167.893C39.4681 168.12 38.8984 168.234 38.293 168.234C37.2253 168.234 36.3822 167.945 35.7637 167.365C35.1517 166.786 34.8457 166.053 34.8457 165.168C34.8457 164.582 34.9857 164.061 35.2656 163.605C35.5456 163.143 35.9362 162.792 36.4375 162.551C36.9453 162.303 37.6745 162.089 38.625 161.906C39.9076 161.665 40.7962 161.441 41.291 161.232V160.959C41.291 160.432 41.1608 160.057 40.9004 159.836C40.64 159.608 40.1484 159.494 39.4258 159.494C38.9375 159.494 38.5566 159.592 38.2832 159.787C38.0098 159.976 37.7884 160.311 37.6191 160.793ZM41.291 163.02C40.9395 163.137 40.3828 163.277 39.6211 163.439C38.8594 163.602 38.3613 163.762 38.127 163.918C37.7689 164.172 37.5898 164.494 37.5898 164.885C37.5898 165.269 37.7331 165.601 38.0195 165.881C38.306 166.161 38.6706 166.301 39.1133 166.301C39.6081 166.301 40.0801 166.138 40.5293 165.812C40.8613 165.565 41.0794 165.262 41.1836 164.904C41.2552 164.67 41.291 164.224 41.291 163.566V163.02ZM46.4961 157.629H49.0254V159.045C49.9303 157.945 51.0078 157.395 52.2578 157.395C52.9219 157.395 53.498 157.531 53.9863 157.805C54.4746 158.078 54.875 158.492 55.1875 159.045C55.6432 158.492 56.1348 158.078 56.6621 157.805C57.1895 157.531 57.7526 157.395 58.3516 157.395C59.1133 157.395 59.7578 157.551 60.2852 157.863C60.8125 158.169 61.2064 158.622 61.4668 159.221C61.6556 159.663 61.75 160.38 61.75 161.369V168H59.0059V162.072C59.0059 161.044 58.9115 160.38 58.7227 160.08C58.4688 159.689 58.0781 159.494 57.5508 159.494C57.1667 159.494 56.8053 159.611 56.4668 159.846C56.1283 160.08 55.8841 160.425 55.7344 160.881C55.5846 161.33 55.5098 162.043 55.5098 163.02V168H52.7656V162.316C52.7656 161.307 52.7168 160.656 52.6191 160.363C52.5215 160.07 52.3685 159.852 52.1602 159.709C51.9583 159.566 51.6816 159.494 51.3301 159.494C50.9069 159.494 50.526 159.608 50.1875 159.836C49.849 160.064 49.6048 160.393 49.4551 160.822C49.3118 161.252 49.2402 161.965 49.2402 162.961V168H46.4961V157.629Z" fill="#2A58CE"/>
<path d="M26.2031 245.275C25.4935 244.976 24.9759 244.566 24.6504 244.045C24.3314 243.518 24.1719 242.941 24.1719 242.316C24.1719 241.249 24.543 240.367 25.2852 239.67C26.0339 238.973 27.0951 238.625 28.4688 238.625C29.8294 238.625 30.8841 238.973 31.6328 239.67C32.388 240.367 32.7656 241.249 32.7656 242.316C32.7656 242.98 32.5931 243.573 32.248 244.094C31.903 244.608 31.418 245.002 30.793 245.275C31.5872 245.594 32.1895 246.06 32.5996 246.672C33.0163 247.284 33.2246 247.99 33.2246 248.791C33.2246 250.113 32.8014 251.187 31.9551 252.014C31.1152 252.84 29.9954 253.254 28.5957 253.254C27.2936 253.254 26.2096 252.912 25.3438 252.229C24.3216 251.421 23.8105 250.314 23.8105 248.908C23.8105 248.133 24.0026 247.424 24.3867 246.779C24.7708 246.128 25.3763 245.627 26.2031 245.275ZM26.7695 242.512C26.7695 243.059 26.9225 243.485 27.2285 243.791C27.541 244.097 27.9544 244.25 28.4688 244.25C28.9896 244.25 29.4062 244.097 29.7188 243.791C30.0312 243.479 30.1875 243.049 30.1875 242.502C30.1875 241.988 30.0312 241.577 29.7188 241.271C29.4128 240.959 29.0059 240.803 28.498 240.803C27.9707 240.803 27.5508 240.959 27.2383 241.271C26.9258 241.584 26.7695 241.997 26.7695 242.512ZM26.5156 248.645C26.5156 249.4 26.7077 249.989 27.0918 250.412C27.4824 250.835 27.9674 251.047 28.5469 251.047C29.1133 251.047 29.582 250.845 29.9531 250.441C30.3242 250.031 30.5098 249.442 30.5098 248.674C30.5098 248.003 30.321 247.466 29.9434 247.062C29.5658 246.652 29.0872 246.447 28.5078 246.447C27.8372 246.447 27.3359 246.678 27.0039 247.141C26.6784 247.603 26.5156 248.104 26.5156 248.645ZM37.6191 245.793L35.1289 245.344C35.4089 244.341 35.8906 243.599 36.5742 243.117C37.2578 242.635 38.2734 242.395 39.6211 242.395C40.8451 242.395 41.7565 242.541 42.3555 242.834C42.9544 243.12 43.3743 243.488 43.6152 243.938C43.8626 244.38 43.9863 245.197 43.9863 246.389L43.957 249.592C43.957 250.503 43.9993 251.177 44.084 251.613C44.1751 252.043 44.3411 252.505 44.582 253H41.8672C41.7956 252.818 41.7077 252.548 41.6035 252.189C41.5579 252.027 41.5254 251.919 41.5059 251.867C41.0371 252.323 40.5358 252.665 40.002 252.893C39.4681 253.12 38.8984 253.234 38.293 253.234C37.2253 253.234 36.3822 252.945 35.7637 252.365C35.1517 251.786 34.8457 251.053 34.8457 250.168C34.8457 249.582 34.9857 249.061 35.2656 248.605C35.5456 248.143 35.9362 247.792 36.4375 247.551C36.9453 247.303 37.6745 247.089 38.625 246.906C39.9076 246.665 40.7962 246.441 41.291 246.232V245.959C41.291 245.432 41.1608 245.057 40.9004 244.836C40.64 244.608 40.1484 244.494 39.4258 244.494C38.9375 244.494 38.5566 244.592 38.2832 244.787C38.0098 244.976 37.7884 245.311 37.6191 245.793ZM41.291 248.02C40.9395 248.137 40.3828 248.277 39.6211 248.439C38.8594 248.602 38.3613 248.762 38.127 248.918C37.7689 249.172 37.5898 249.494 37.5898 249.885C37.5898 250.269 37.7331 250.601 38.0195 250.881C38.306 251.161 38.6706 251.301 39.1133 251.301C39.6081 251.301 40.0801 251.138 40.5293 250.812C40.8613 250.565 41.0794 250.262 41.1836 249.904C41.2552 249.67 41.291 249.224 41.291 248.566V248.02ZM46.4961 242.629H49.0254V244.045C49.9303 242.945 51.0078 242.395 52.2578 242.395C52.9219 242.395 53.498 242.531 53.9863 242.805C54.4746 243.078 54.875 243.492 55.1875 244.045C55.6432 243.492 56.1348 243.078 56.6621 242.805C57.1895 242.531 57.7526 242.395 58.3516 242.395C59.1133 242.395 59.7578 242.551 60.2852 242.863C60.8125 243.169 61.2064 243.622 61.4668 244.221C61.6556 244.663 61.75 245.38 61.75 246.369V253H59.0059V247.072C59.0059 246.044 58.9115 245.38 58.7227 245.08C58.4688 244.689 58.0781 244.494 57.5508 244.494C57.1667 244.494 56.8053 244.611 56.4668 244.846C56.1283 245.08 55.8841 245.425 55.7344 245.881C55.5846 246.33 55.5098 247.043 55.5098 248.02V253H52.7656V247.316C52.7656 246.307 52.7168 245.656 52.6191 245.363C52.5215 245.07 52.3685 244.852 52.1602 244.709C51.9583 244.566 51.6816 244.494 51.3301 244.494C50.9069 244.494 50.526 244.608 50.1875 244.836C49.849 245.064 49.6048 245.393 49.4551 245.822C49.3118 246.252 49.2402 246.965 49.2402 247.961V253H46.4961V242.629Z" fill="#2A58CE"/>
<path d="M30.8711 337H28.127V326.658C27.1243 327.596 25.9427 328.289 24.582 328.738V326.248C25.2982 326.014 26.0762 325.571 26.916 324.92C27.7559 324.262 28.332 323.497 28.6445 322.625H30.8711V337ZM39.6211 322.625C41.0078 322.625 42.0918 323.12 42.873 324.109C43.804 325.281 44.2695 327.225 44.2695 329.939C44.2695 332.648 43.8008 334.594 42.8633 335.779C42.0885 336.756 41.0078 337.244 39.6211 337.244C38.2279 337.244 37.1048 336.71 36.252 335.643C35.3991 334.568 34.9727 332.658 34.9727 329.91C34.9727 327.215 35.4414 325.275 36.3789 324.09C37.1536 323.113 38.2344 322.625 39.6211 322.625ZM39.6211 324.9C39.2891 324.9 38.9928 325.008 38.7324 325.223C38.472 325.431 38.2702 325.809 38.127 326.355C37.9382 327.065 37.8438 328.26 37.8438 329.939C37.8438 331.619 37.9284 332.775 38.0977 333.406C38.2669 334.031 38.4785 334.448 38.7324 334.656C38.9928 334.865 39.2891 334.969 39.6211 334.969C39.9531 334.969 40.2493 334.865 40.5098 334.656C40.7702 334.441 40.972 334.061 41.1152 333.514C41.304 332.811 41.3984 331.619 41.3984 329.939C41.3984 328.26 41.3138 327.107 41.1445 326.482C40.9753 325.851 40.7604 325.431 40.5 325.223C40.2461 325.008 39.9531 324.9 39.6211 324.9ZM48.752 329.793L46.2617 329.344C46.5417 328.341 47.0234 327.599 47.707 327.117C48.3906 326.635 49.4062 326.395 50.7539 326.395C51.9779 326.395 52.8893 326.541 53.4883 326.834C54.0872 327.12 54.5072 327.488 54.748 327.938C54.9954 328.38 55.1191 329.197 55.1191 330.389L55.0898 333.592C55.0898 334.503 55.1322 335.177 55.2168 335.613C55.3079 336.043 55.474 336.505 55.7148 337H53C52.9284 336.818 52.8405 336.548 52.7363 336.189C52.6908 336.027 52.6582 335.919 52.6387 335.867C52.1699 336.323 51.6686 336.665 51.1348 336.893C50.6009 337.12 50.0312 337.234 49.4258 337.234C48.3581 337.234 47.515 336.945 46.8965 336.365C46.2845 335.786 45.9785 335.053 45.9785 334.168C45.9785 333.582 46.1185 333.061 46.3984 332.605C46.6784 332.143 47.069 331.792 47.5703 331.551C48.0781 331.303 48.8073 331.089 49.7578 330.906C51.0404 330.665 51.929 330.441 52.4238 330.232V329.959C52.4238 329.432 52.2936 329.057 52.0332 328.836C51.7728 328.608 51.2812 328.494 50.5586 328.494C50.0703 328.494 49.6895 328.592 49.416 328.787C49.1426 328.976 48.9212 329.311 48.752 329.793ZM52.4238 332.02C52.0723 332.137 51.5156 332.277 50.7539 332.439C49.9922 332.602 49.4941 332.762 49.2598 332.918C48.9017 333.172 48.7227 333.494 48.7227 333.885C48.7227 334.269 48.8659 334.601 49.1523 334.881C49.4388 335.161 49.8034 335.301 50.2461 335.301C50.7409 335.301 51.2129 335.138 51.6621 334.812C51.9941 334.565 52.2122 334.262 52.3164 333.904C52.388 333.67 52.4238 333.224 52.4238 332.566V332.02ZM57.6289 326.629H60.1582V328.045C61.0632 326.945 62.1406 326.395 63.3906 326.395C64.0547 326.395 64.6309 326.531 65.1191 326.805C65.6074 327.078 66.0078 327.492 66.3203 328.045C66.776 327.492 67.2676 327.078 67.7949 326.805C68.3223 326.531 68.8854 326.395 69.4844 326.395C70.2461 326.395 70.8906 326.551 71.418 326.863C71.9453 327.169 72.3392 327.622 72.5996 328.221C72.7884 328.663 72.8828 329.38 72.8828 330.369V337H70.1387V331.072C70.1387 330.044 70.0443 329.38 69.8555 329.08C69.6016 328.689 69.2109 328.494 68.6836 328.494C68.2995 328.494 67.9382 328.611 67.5996 328.846C67.2611 329.08 67.0169 329.425 66.8672 329.881C66.7174 330.33 66.6426 331.043 66.6426 332.02V337H63.8984V331.316C63.8984 330.307 63.8496 329.656 63.752 329.363C63.6543 329.07 63.5013 328.852 63.293 328.709C63.0911 328.566 62.8145 328.494 62.4629 328.494C62.0397 328.494 61.6589 328.608 61.3203 328.836C60.9818 329.064 60.7376 329.393 60.5879 329.822C60.4447 330.252 60.373 330.965 60.373 331.961V337H57.6289V326.629Z" fill="#2A58CE"/>
<path d="M30.8711 422H28.127V411.658C27.1243 412.596 25.9427 413.289 24.582 413.738V411.248C25.2982 411.014 26.0762 410.571 26.916 409.92C27.7559 409.262 28.332 408.497 28.6445 407.625H30.8711V422ZM44.25 419.451V422H34.6309C34.735 421.036 35.0475 420.125 35.5684 419.266C36.0892 418.4 37.1178 417.254 38.6543 415.828C39.8913 414.676 40.6497 413.895 40.9297 413.484C41.3073 412.918 41.4961 412.358 41.4961 411.805C41.4961 411.193 41.3301 410.724 40.998 410.398C40.6725 410.066 40.2201 409.9 39.6406 409.9C39.0677 409.9 38.612 410.073 38.2734 410.418C37.9349 410.763 37.7396 411.336 37.6875 412.137L34.9531 411.863C35.1159 410.353 35.627 409.269 36.4863 408.611C37.3457 407.954 38.4199 407.625 39.709 407.625C41.1217 407.625 42.2318 408.006 43.0391 408.768C43.8464 409.529 44.25 410.477 44.25 411.609C44.25 412.254 44.1328 412.869 43.8984 413.455C43.6706 414.035 43.306 414.643 42.8047 415.281C42.4727 415.704 41.8737 416.313 41.0078 417.107C40.1419 417.902 39.5918 418.429 39.3574 418.689C39.1296 418.95 38.944 419.204 38.8008 419.451H44.25ZM46.4961 411.629H49.0254V413.045C49.9303 411.945 51.0078 411.395 52.2578 411.395C52.9219 411.395 53.498 411.531 53.9863 411.805C54.4746 412.078 54.875 412.492 55.1875 413.045C55.6432 412.492 56.1348 412.078 56.6621 411.805C57.1895 411.531 57.7526 411.395 58.3516 411.395C59.1133 411.395 59.7578 411.551 60.2852 411.863C60.8125 412.169 61.2064 412.622 61.4668 413.221C61.6556 413.663 61.75 414.38 61.75 415.369V422H59.0059V416.072C59.0059 415.044 58.9115 414.38 58.7227 414.08C58.4688 413.689 58.0781 413.494 57.5508 413.494C57.1667 413.494 56.8053 413.611 56.4668 413.846C56.1283 414.08 55.8841 414.425 55.7344 414.881C55.5846 415.33 55.5098 416.043 55.5098 417.02V422H52.7656V416.316C52.7656 415.307 52.7168 414.656 52.6191 414.363C52.5215 414.07 52.3685 413.852 52.1602 413.709C51.9583 413.566 51.6816 413.494 51.3301 413.494C50.9069 413.494 50.526 413.608 50.1875 413.836C49.849 414.064 49.6048 414.393 49.4551 414.822C49.3118 415.252 49.2402 415.965 49.2402 416.961V422H46.4961V411.629Z" fill="#2A58CE"/>
<path d="M33.1172 505.451V508H23.498C23.6022 507.036 23.9147 506.125 24.4355 505.266C24.9564 504.4 25.985 503.254 27.5215 501.828C28.7585 500.676 29.5169 499.895 29.7969 499.484C30.1745 498.918 30.3633 498.358 30.3633 497.805C30.3633 497.193 30.1973 496.724 29.8652 496.398C29.5397 496.066 29.0872 495.9 28.5078 495.9C27.9349 495.9 27.4792 496.073 27.1406 496.418C26.8021 496.763 26.6068 497.336 26.5547 498.137L23.8203 497.863C23.9831 496.353 24.4941 495.269 25.3535 494.611C26.2129 493.954 27.2871 493.625 28.5762 493.625C29.9889 493.625 31.099 494.006 31.9062 494.768C32.7135 495.529 33.1172 496.477 33.1172 497.609C33.1172 498.254 33 498.869 32.7656 499.455C32.5378 500.035 32.1732 500.643 31.6719 501.281C31.3398 501.704 30.7409 502.313 29.875 503.107C29.0091 503.902 28.459 504.429 28.2246 504.689C27.9967 504.95 27.8112 505.204 27.668 505.451H33.1172ZM35.4902 497.629H38.0488V499.152C38.3809 498.632 38.8301 498.208 39.3965 497.883C39.9629 497.557 40.5911 497.395 41.2812 497.395C42.4857 497.395 43.5078 497.867 44.3477 498.811C45.1875 499.755 45.6074 501.07 45.6074 502.756C45.6074 504.488 45.1842 505.835 44.3379 506.799C43.4915 507.756 42.4661 508.234 41.2617 508.234C40.6888 508.234 40.168 508.12 39.6992 507.893C39.237 507.665 38.7487 507.274 38.2344 506.721V511.945H35.4902V497.629ZM38.2051 502.639C38.2051 503.804 38.4362 504.667 38.8984 505.227C39.3607 505.78 39.9238 506.057 40.5879 506.057C41.2259 506.057 41.7565 505.803 42.1797 505.295C42.6029 504.781 42.8145 503.941 42.8145 502.775C42.8145 501.688 42.5964 500.881 42.1602 500.354C41.724 499.826 41.1836 499.562 40.5391 499.562C39.8685 499.562 39.3118 499.823 38.8691 500.344C38.4264 500.858 38.2051 501.623 38.2051 502.639ZM47.5898 497.629H50.1191V499.045C51.0241 497.945 52.1016 497.395 53.3516 497.395C54.0156 497.395 54.5918 497.531 55.0801 497.805C55.5684 498.078 55.9688 498.492 56.2812 499.045C56.737 498.492 57.2285 498.078 57.7559 497.805C58.2832 497.531 58.8464 497.395 59.4453 497.395C60.207 497.395 60.8516 497.551 61.3789 497.863C61.9062 498.169 62.3001 498.622 62.5605 499.221C62.7493 499.663 62.8438 500.38 62.8438 501.369V508H60.0996V502.072C60.0996 501.044 60.0052 500.38 59.8164 500.08C59.5625 499.689 59.1719 499.494 58.6445 499.494C58.2604 499.494 57.8991 499.611 57.5605 499.846C57.222 500.08 56.9779 500.425 56.8281 500.881C56.6784 501.33 56.6035 502.043 56.6035 503.02V508H53.8594V502.316C53.8594 501.307 53.8105 500.656 53.7129 500.363C53.6152 500.07 53.4622 499.852 53.2539 499.709C53.0521 499.566 52.7754 499.494 52.4238 499.494C52.0007 499.494 51.6198 499.608 51.2812 499.836C50.9427 500.064 50.6986 500.393 50.5488 500.822C50.4056 501.252 50.334 501.965 50.334 502.961V508H47.5898V497.629Z" fill="#2A58CE"/>
<path d="M29.2305 592V589.119H23.3711V586.717L29.582 577.625H31.8867V586.707H33.6641V589.119H31.8867V592H29.2305ZM29.2305 586.707V581.814L25.9395 586.707H29.2305ZM35.4902 581.629H38.0488V583.152C38.3809 582.632 38.8301 582.208 39.3965 581.883C39.9629 581.557 40.5911 581.395 41.2812 581.395C42.4857 581.395 43.5078 581.867 44.3477 582.811C45.1875 583.755 45.6074 585.07 45.6074 586.756C45.6074 588.488 45.1842 589.835 44.3379 590.799C43.4915 591.756 42.4661 592.234 41.2617 592.234C40.6888 592.234 40.168 592.12 39.6992 591.893C39.237 591.665 38.7487 591.274 38.2344 590.721V595.945H35.4902V581.629ZM38.2051 586.639C38.2051 587.804 38.4362 588.667 38.8984 589.227C39.3607 589.78 39.9238 590.057 40.5879 590.057C41.2259 590.057 41.7565 589.803 42.1797 589.295C42.6029 588.781 42.8145 587.941 42.8145 586.775C42.8145 585.688 42.5964 584.881 42.1602 584.354C41.724 583.826 41.1836 583.562 40.5391 583.562C39.8685 583.562 39.3118 583.823 38.8691 584.344C38.4264 584.858 38.2051 585.623 38.2051 586.639ZM47.5898 581.629H50.1191V583.045C51.0241 581.945 52.1016 581.395 53.3516 581.395C54.0156 581.395 54.5918 581.531 55.0801 581.805C55.5684 582.078 55.9688 582.492 56.2812 583.045C56.737 582.492 57.2285 582.078 57.7559 581.805C58.2832 581.531 58.8464 581.395 59.4453 581.395C60.207 581.395 60.8516 581.551 61.3789 581.863C61.9062 582.169 62.3001 582.622 62.5605 583.221C62.7493 583.663 62.8438 584.38 62.8438 585.369V592H60.0996V586.072C60.0996 585.044 60.0052 584.38 59.8164 584.08C59.5625 583.689 59.1719 583.494 58.6445 583.494C58.2604 583.494 57.8991 583.611 57.5605 583.846C57.222 584.08 56.9779 584.425 56.8281 584.881C56.6784 585.33 56.6035 586.043 56.6035 587.02V592H53.8594V586.316C53.8594 585.307 53.8105 584.656 53.7129 584.363C53.6152 584.07 53.4622 583.852 53.2539 583.709C53.0521 583.566 52.7754 583.494 52.4238 583.494C52.0007 583.494 51.6198 583.608 51.2812 583.836C50.9427 584.064 50.6986 584.393 50.5488 584.822C50.4056 585.252 50.334 585.965 50.334 586.961V592H47.5898V581.629Z" fill="#2A58CE"/>
<path d="M33.1465 666.189L30.4902 666.482C30.4251 665.936 30.2559 665.532 29.9824 665.271C29.709 665.011 29.3542 664.881 28.918 664.881C28.3385 664.881 27.847 665.141 27.4434 665.662C27.0462 666.183 26.7956 667.267 26.6914 668.914C27.375 668.107 28.2246 667.703 29.2402 667.703C30.3861 667.703 31.3659 668.139 32.1797 669.012C33 669.884 33.4102 671.01 33.4102 672.391C33.4102 673.855 32.9805 675.031 32.1211 675.916C31.2617 676.801 30.1582 677.244 28.8105 677.244C27.3652 677.244 26.1771 676.684 25.2461 675.564C24.3151 674.438 23.8496 672.596 23.8496 670.037C23.8496 667.413 24.3346 665.522 25.3047 664.363C26.2747 663.204 27.5345 662.625 29.084 662.625C30.1712 662.625 31.0697 662.931 31.7793 663.543C32.4954 664.148 32.9512 665.031 33.1465 666.189ZM26.9258 672.176C26.9258 673.068 27.1309 673.758 27.541 674.246C27.9512 674.728 28.4199 674.969 28.9473 674.969C29.4551 674.969 29.8783 674.77 30.2168 674.373C30.5553 673.976 30.7246 673.325 30.7246 672.42C30.7246 671.489 30.5423 670.809 30.1777 670.379C29.8132 669.943 29.3574 669.725 28.8105 669.725C28.2832 669.725 27.8372 669.933 27.4727 670.35C27.1081 670.76 26.9258 671.368 26.9258 672.176ZM35.4902 666.629H38.0488V668.152C38.3809 667.632 38.8301 667.208 39.3965 666.883C39.9629 666.557 40.5911 666.395 41.2812 666.395C42.4857 666.395 43.5078 666.867 44.3477 667.811C45.1875 668.755 45.6074 670.07 45.6074 671.756C45.6074 673.488 45.1842 674.835 44.3379 675.799C43.4915 676.756 42.4661 677.234 41.2617 677.234C40.6888 677.234 40.168 677.12 39.6992 676.893C39.237 676.665 38.7487 676.274 38.2344 675.721V680.945H35.4902V666.629ZM38.2051 671.639C38.2051 672.804 38.4362 673.667 38.8984 674.227C39.3607 674.78 39.9238 675.057 40.5879 675.057C41.2259 675.057 41.7565 674.803 42.1797 674.295C42.6029 673.781 42.8145 672.941 42.8145 671.775C42.8145 670.688 42.5964 669.881 42.1602 669.354C41.724 668.826 41.1836 668.562 40.5391 668.562C39.8685 668.562 39.3118 668.823 38.8691 669.344C38.4264 669.858 38.2051 670.623 38.2051 671.639ZM47.5898 666.629H50.1191V668.045C51.0241 666.945 52.1016 666.395 53.3516 666.395C54.0156 666.395 54.5918 666.531 55.0801 666.805C55.5684 667.078 55.9688 667.492 56.2812 668.045C56.737 667.492 57.2285 667.078 57.7559 666.805C58.2832 666.531 58.8464 666.395 59.4453 666.395C60.207 666.395 60.8516 666.551 61.3789 666.863C61.9062 667.169 62.3001 667.622 62.5605 668.221C62.7493 668.663 62.8438 669.38 62.8438 670.369V677H60.0996V671.072C60.0996 670.044 60.0052 669.38 59.8164 669.08C59.5625 668.689 59.1719 668.494 58.6445 668.494C58.2604 668.494 57.8991 668.611 57.5605 668.846C57.222 669.08 56.9779 669.425 56.8281 669.881C56.6784 670.33 56.6035 671.043 56.6035 672.02V677H53.8594V671.316C53.8594 670.307 53.8105 669.656 53.7129 669.363C53.6152 669.07 53.4622 668.852 53.2539 668.709C53.0521 668.566 52.7754 668.494 52.4238 668.494C52.0007 668.494 51.6198 668.608 51.2812 668.836C50.9427 669.064 50.6986 669.393 50.5488 669.822C50.4056 670.252 50.334 670.965 50.334 671.961V677H47.5898V666.629Z" fill="#2A58CE"/>
<path d="M26.2031 754.275C25.4935 753.976 24.9759 753.566 24.6504 753.045C24.3314 752.518 24.1719 751.941 24.1719 751.316C24.1719 750.249 24.543 749.367 25.2852 748.67C26.0339 747.973 27.0951 747.625 28.4688 747.625C29.8294 747.625 30.8841 747.973 31.6328 748.67C32.388 749.367 32.7656 750.249 32.7656 751.316C32.7656 751.98 32.5931 752.573 32.248 753.094C31.903 753.608 31.418 754.002 30.793 754.275C31.5872 754.594 32.1895 755.06 32.5996 755.672C33.0163 756.284 33.2246 756.99 33.2246 757.791C33.2246 759.113 32.8014 760.187 31.9551 761.014C31.1152 761.84 29.9954 762.254 28.5957 762.254C27.2936 762.254 26.2096 761.912 25.3438 761.229C24.3216 760.421 23.8105 759.314 23.8105 757.908C23.8105 757.133 24.0026 756.424 24.3867 755.779C24.7708 755.128 25.3763 754.627 26.2031 754.275ZM26.7695 751.512C26.7695 752.059 26.9225 752.485 27.2285 752.791C27.541 753.097 27.9544 753.25 28.4688 753.25C28.9896 753.25 29.4062 753.097 29.7188 752.791C30.0312 752.479 30.1875 752.049 30.1875 751.502C30.1875 750.988 30.0312 750.577 29.7188 750.271C29.4128 749.959 29.0059 749.803 28.498 749.803C27.9707 749.803 27.5508 749.959 27.2383 750.271C26.9258 750.584 26.7695 750.997 26.7695 751.512ZM26.5156 757.645C26.5156 758.4 26.7077 758.989 27.0918 759.412C27.4824 759.835 27.9674 760.047 28.5469 760.047C29.1133 760.047 29.582 759.845 29.9531 759.441C30.3242 759.031 30.5098 758.442 30.5098 757.674C30.5098 757.003 30.321 756.466 29.9434 756.062C29.5658 755.652 29.0872 755.447 28.5078 755.447C27.8372 755.447 27.3359 755.678 27.0039 756.141C26.6784 756.603 26.5156 757.104 26.5156 757.645ZM35.4902 751.629H38.0488V753.152C38.3809 752.632 38.8301 752.208 39.3965 751.883C39.9629 751.557 40.5911 751.395 41.2812 751.395C42.4857 751.395 43.5078 751.867 44.3477 752.811C45.1875 753.755 45.6074 755.07 45.6074 756.756C45.6074 758.488 45.1842 759.835 44.3379 760.799C43.4915 761.756 42.4661 762.234 41.2617 762.234C40.6888 762.234 40.168 762.12 39.6992 761.893C39.237 761.665 38.7487 761.274 38.2344 760.721V765.945H35.4902V751.629ZM38.2051 756.639C38.2051 757.804 38.4362 758.667 38.8984 759.227C39.3607 759.78 39.9238 760.057 40.5879 760.057C41.2259 760.057 41.7565 759.803 42.1797 759.295C42.6029 758.781 42.8145 757.941 42.8145 756.775C42.8145 755.688 42.5964 754.881 42.1602 754.354C41.724 753.826 41.1836 753.562 40.5391 753.562C39.8685 753.562 39.3118 753.823 38.8691 754.344C38.4264 754.858 38.2051 755.623 38.2051 756.639ZM47.5898 751.629H50.1191V753.045C51.0241 751.945 52.1016 751.395 53.3516 751.395C54.0156 751.395 54.5918 751.531 55.0801 751.805C55.5684 752.078 55.9688 752.492 56.2812 753.045C56.737 752.492 57.2285 752.078 57.7559 751.805C58.2832 751.531 58.8464 751.395 59.4453 751.395C60.207 751.395 60.8516 751.551 61.3789 751.863C61.9062 752.169 62.3001 752.622 62.5605 753.221C62.7493 753.663 62.8438 754.38 62.8438 755.369V762H60.0996V756.072C60.0996 755.044 60.0052 754.38 59.8164 754.08C59.5625 753.689 59.1719 753.494 58.6445 753.494C58.2604 753.494 57.8991 753.611 57.5605 753.846C57.222 754.08 56.9779 754.425 56.8281 754.881C56.6784 755.33 56.6035 756.043 56.6035 757.02V762H53.8594V756.316C53.8594 755.307 53.8105 754.656 53.7129 754.363C53.6152 754.07 53.4622 753.852 53.2539 753.709C53.0521 753.566 52.7754 753.494 52.4238 753.494C52.0007 753.494 51.6198 753.608 51.2812 753.836C50.9427 754.064 50.6986 754.393 50.5488 754.822C50.4056 755.252 50.334 755.965 50.334 756.961V762H47.5898V751.629Z" fill="#2A58CE"/>
<path d="M30.8711 847H28.127V836.658C27.1243 837.596 25.9427 838.289 24.582 838.738V836.248C25.2982 836.014 26.0762 835.571 26.916 834.92C27.7559 834.262 28.332 833.497 28.6445 832.625H30.8711V847ZM39.6211 832.625C41.0078 832.625 42.0918 833.12 42.873 834.109C43.804 835.281 44.2695 837.225 44.2695 839.939C44.2695 842.648 43.8008 844.594 42.8633 845.779C42.0885 846.756 41.0078 847.244 39.6211 847.244C38.2279 847.244 37.1048 846.71 36.252 845.643C35.3991 844.568 34.9727 842.658 34.9727 839.91C34.9727 837.215 35.4414 835.275 36.3789 834.09C37.1536 833.113 38.2344 832.625 39.6211 832.625ZM39.6211 834.9C39.2891 834.9 38.9928 835.008 38.7324 835.223C38.472 835.431 38.2702 835.809 38.127 836.355C37.9382 837.065 37.8438 838.26 37.8438 839.939C37.8438 841.619 37.9284 842.775 38.0977 843.406C38.2669 844.031 38.4785 844.448 38.7324 844.656C38.9928 844.865 39.2891 844.969 39.6211 844.969C39.9531 844.969 40.2493 844.865 40.5098 844.656C40.7702 844.441 40.972 844.061 41.1152 843.514C41.304 842.811 41.3984 841.619 41.3984 839.939C41.3984 838.26 41.3138 837.107 41.1445 836.482C40.9753 835.851 40.7604 835.431 40.5 835.223C40.2461 835.008 39.9531 834.9 39.6211 834.9ZM46.623 836.629H49.1816V838.152C49.5137 837.632 49.9629 837.208 50.5293 836.883C51.0957 836.557 51.724 836.395 52.4141 836.395C53.6185 836.395 54.6406 836.867 55.4805 837.811C56.3203 838.755 56.7402 840.07 56.7402 841.756C56.7402 843.488 56.3171 844.835 55.4707 845.799C54.6243 846.756 53.599 847.234 52.3945 847.234C51.8216 847.234 51.3008 847.12 50.832 846.893C50.3698 846.665 49.8815 846.274 49.3672 845.721V850.945H46.623V836.629ZM49.3379 841.639C49.3379 842.804 49.569 843.667 50.0312 844.227C50.4935 844.78 51.0566 845.057 51.7207 845.057C52.3587 845.057 52.8893 844.803 53.3125 844.295C53.7357 843.781 53.9473 842.941 53.9473 841.775C53.9473 840.688 53.7292 839.881 53.293 839.354C52.8568 838.826 52.3164 838.562 51.6719 838.562C51.0013 838.562 50.4447 838.823 50.002 839.344C49.5592 839.858 49.3379 840.623 49.3379 841.639ZM58.7227 836.629H61.252V838.045C62.1569 836.945 63.2344 836.395 64.4844 836.395C65.1484 836.395 65.7246 836.531 66.2129 836.805C66.7012 837.078 67.1016 837.492 67.4141 838.045C67.8698 837.492 68.3613 837.078 68.8887 836.805C69.416 836.531 69.9792 836.395 70.5781 836.395C71.3398 836.395 71.9844 836.551 72.5117 836.863C73.0391 837.169 73.4329 837.622 73.6934 838.221C73.8822 838.663 73.9766 839.38 73.9766 840.369V847H71.2324V841.072C71.2324 840.044 71.138 839.38 70.9492 839.08C70.6953 838.689 70.3047 838.494 69.7773 838.494C69.3932 838.494 69.0319 838.611 68.6934 838.846C68.3548 839.08 68.1107 839.425 67.9609 839.881C67.8112 840.33 67.7363 841.043 67.7363 842.02V847H64.9922V841.316C64.9922 840.307 64.9434 839.656 64.8457 839.363C64.748 839.07 64.5951 838.852 64.3867 838.709C64.1849 838.566 63.9082 838.494 63.5566 838.494C63.1335 838.494 62.7526 838.608 62.4141 838.836C62.0755 839.064 61.8314 839.393 61.6816 839.822C61.5384 840.252 61.4668 840.965 61.4668 841.961V847H58.7227V836.629Z" fill="#2A58CE"/>
<path d="M30.8711 929H28.127V918.658C27.1243 919.596 25.9427 920.289 24.582 920.738V918.248C25.2982 918.014 26.0762 917.571 26.916 916.92C27.7559 916.262 28.332 915.497 28.6445 914.625H30.8711V929ZM44.25 926.451V929H34.6309C34.735 928.036 35.0475 927.125 35.5684 926.266C36.0892 925.4 37.1178 924.254 38.6543 922.828C39.8913 921.676 40.6497 920.895 40.9297 920.484C41.3073 919.918 41.4961 919.358 41.4961 918.805C41.4961 918.193 41.3301 917.724 40.998 917.398C40.6725 917.066 40.2201 916.9 39.6406 916.9C39.0677 916.9 38.612 917.073 38.2734 917.418C37.9349 917.763 37.7396 918.336 37.6875 919.137L34.9531 918.863C35.1159 917.353 35.627 916.269 36.4863 915.611C37.3457 914.954 38.4199 914.625 39.709 914.625C41.1217 914.625 42.2318 915.006 43.0391 915.768C43.8464 916.529 44.25 917.477 44.25 918.609C44.25 919.254 44.1328 919.869 43.8984 920.455C43.6706 921.035 43.306 921.643 42.8047 922.281C42.4727 922.704 41.8737 923.313 41.0078 924.107C40.1419 924.902 39.5918 925.429 39.3574 925.689C39.1296 925.95 38.944 926.204 38.8008 926.451H44.25ZM46.623 918.629H49.1816V920.152C49.5137 919.632 49.9629 919.208 50.5293 918.883C51.0957 918.557 51.724 918.395 52.4141 918.395C53.6185 918.395 54.6406 918.867 55.4805 919.811C56.3203 920.755 56.7402 922.07 56.7402 923.756C56.7402 925.488 56.3171 926.835 55.4707 927.799C54.6243 928.756 53.599 929.234 52.3945 929.234C51.8216 929.234 51.3008 929.12 50.832 928.893C50.3698 928.665 49.8815 928.274 49.3672 927.721V932.945H46.623V918.629ZM49.3379 923.639C49.3379 924.804 49.569 925.667 50.0312 926.227C50.4935 926.78 51.0566 927.057 51.7207 927.057C52.3587 927.057 52.8893 926.803 53.3125 926.295C53.7357 925.781 53.9473 924.941 53.9473 923.775C53.9473 922.688 53.7292 921.881 53.293 921.354C52.8568 920.826 52.3164 920.562 51.6719 920.562C51.0013 920.562 50.4447 920.823 50.002 921.344C49.5592 921.858 49.3379 922.623 49.3379 923.639ZM58.7227 918.629H61.252V920.045C62.1569 918.945 63.2344 918.395 64.4844 918.395C65.1484 918.395 65.7246 918.531 66.2129 918.805C66.7012 919.078 67.1016 919.492 67.4141 920.045C67.8698 919.492 68.3613 919.078 68.8887 918.805C69.416 918.531 69.9792 918.395 70.5781 918.395C71.3398 918.395 71.9844 918.551 72.5117 918.863C73.0391 919.169 73.4329 919.622 73.6934 920.221C73.8822 920.663 73.9766 921.38 73.9766 922.369V929H71.2324V923.072C71.2324 922.044 71.138 921.38 70.9492 921.08C70.6953 920.689 70.3047 920.494 69.7773 920.494C69.3932 920.494 69.0319 920.611 68.6934 920.846C68.3548 921.08 68.1107 921.425 67.9609 921.881C67.8112 922.33 67.7363 923.043 67.7363 924.02V929H64.9922V923.316C64.9922 922.307 64.9434 921.656 64.8457 921.363C64.748 921.07 64.5951 920.852 64.3867 920.709C64.1849 920.566 63.9082 920.494 63.5566 920.494C63.1335 920.494 62.7526 920.608 62.4141 920.836C62.0755 921.064 61.8314 921.393 61.6816 921.822C61.5384 922.252 61.4668 922.965 61.4668 923.961V929H58.7227V918.629Z" fill="#2A58CE"/>
<line x1="331" y1="130" x2="331" y2="952" stroke="#2A58CE" stroke-width="4"/>
<line x1="456" y1="130" x2="456" y2="952" stroke="#2A58CE" stroke-width="4"/>
<line x1="579" y1="130" x2="579" y2="952" stroke="#2A58CE" stroke-width="4"/>
<line x1="704" y1="130" x2="704" y2="952" stroke="#2A58CE" stroke-width="4"/>
<line x1="828" y1="130" x2="828" y2="952" stroke="#2A58CE" stroke-width="4"/>
<line x1="953" y1="130" x2="953" y2="952" stroke="#2A58CE" stroke-width="4"/>
<defs>
<filter id="filter0_d" x="0" y="53" width="956" height="991" filterUnits="userSpaceOnUse" color-interpolation-filters="sRGB">
<feFlood flood-opacity="0" result="BackgroundImageFix"/>
<feColorMatrix in="SourceAlpha" type="matrix" values="0 0 0 0 0 0 0 0 0 0 0 0 0 0 0 0 0 0 127 0"/>
<feOffset dx="-10" dy="10"/>
<feGaussianBlur stdDeviation="2.5"/>
<feColorMatrix type="matrix" values="0 0 0 0 0 0 0 0 0 0 0 0 0 0 0 0 0 0 0.3 0"/>
<feBlend mode="normal" in2="BackgroundImageFix" result="effect1_dropShadow"/>
<feBlend mode="normal" in="SourceGraphic" in2="effect1_dropShadow" result="shape"/>
</filter>
<filter id="filter1_d" x="76.3965" y="9.375" width="522.176" height="49.3047" filterUnits="userSpaceOnUse" color-interpolation-filters="sRGB">
<feFlood flood-opacity="0" result="BackgroundImageFix"/>
<feColorMatrix in="SourceAlpha" type="matrix" values="0 0 0 0 0 0 0 0 0 0 0 0 0 0 0 0 0 0 127 0"/>
<feOffset dx="-5" dy="5"/>
<feGaussianBlur stdDeviation="2"/>
<feColorMatrix type="matrix" values="0 0 0 0 0 0 0 0 0 0 0 0 0 0 0 0 0 0 0.25 0"/>
<feBlend mode="normal" in2="BackgroundImageFix" result="effect1_dropShadow"/>
<feBlend mode="normal" in="SourceGraphic" in2="effect1_dropShadow" result="shape"/>
</filter>
</defs>
</svg>
