<?xml version="1.0" encoding="utf-8"?>
<!-- Generator: Adobe Illustrator 25.1.0, SVG Export Plug-In . SVG Version: 6.00 Build 0)  -->
<svg version="1.1" id="Layer_1" xmlns="http://www.w3.org/2000/svg" xmlns:xlink="http://www.w3.org/1999/xlink" x="0px" y="0px"
	 viewBox="0 0 500 500" style="enable-background:new 0 0 500 500;" xml:space="preserve">
<style type="text/css">
	.st0{fill:#FFFFFF;}
	.st1{display:none;}
	.st2{display:inline;fill:#FFFFFF;stroke:#3F5EAB;stroke-width:2;}
	.st3{fill:#D5D4D4;stroke:#3F5EAB;stroke-width:2;}
	.st4{fill:#3F5EAB;}
	.st5{fill:none;stroke:#3F5EAB;stroke-width:2;}
	.st6{fill:none;}
	.st7{font-family:'Arial-BoldMT';}
	.st8{font-size:20px;}
	.st9{font-size:16px;}
</style>
<rect x="60" y="62.85" class="st0" width="410.6" height="386.59"/>
<g>
	<g class="st1">
		<path class="st2" d="M439.02,27.07c19.59,0,35.49,15.75,35.75,35.28H33.09c0.25-19.53,16.16-35.28,35.75-35.28H439.02z"/>
		<path class="st2" d="M438.55,485.7c19.59,0,35.49-15.75,35.75-35.28H32.62c0.25,19.53,16.16,35.28,35.75,35.28H438.55z"/>
		<rect x="32.62" y="63.29" class="st2" width="441.68" height="386.19"/>
	</g>
	<path class="st3" d="M438.51,27.07c19.61,0,35.53,15.77,35.78,35.32H32.62C32.87,42.84,48.8,27.07,68.4,27.07H438.51z"/>
	<path class="st3" d="M438.51,485.48c19.61,0,35.53-15.77,35.78-35.32H32.62c0.25,19.55,16.18,35.32,35.78,35.32H438.51z"/>
	<path class="st4" d="M143.81,42.36h2.08v1.17c0.75-0.91,1.63-1.36,2.66-1.36c0.55,0,1.02,0.11,1.42,0.34s0.73,0.57,0.99,1.02
		c0.38-0.46,0.78-0.8,1.22-1.02s0.9-0.34,1.39-0.34c0.63,0,1.16,0.13,1.59,0.39c0.43,0.25,0.76,0.63,0.97,1.12
		c0.16,0.36,0.23,0.95,0.23,1.77v5.46h-2.26v-4.88c0-0.85-0.08-1.39-0.23-1.64c-0.21-0.32-0.53-0.48-0.97-0.48
		c-0.32,0-0.61,0.1-0.89,0.29c-0.28,0.19-0.48,0.48-0.6,0.85c-0.12,0.37-0.19,0.96-0.19,1.76v4.1h-2.26v-4.68
		c0-0.83-0.04-1.37-0.12-1.61s-0.21-0.42-0.38-0.54c-0.17-0.12-0.39-0.18-0.68-0.18c-0.35,0-0.66,0.09-0.94,0.28
		s-0.48,0.46-0.6,0.81c-0.12,0.35-0.18,0.94-0.18,1.76v4.15h-2.26L143.81,42.36L143.81,42.36z"/>
	<path class="st4" d="M212.88,42.36v1.8h-1.54v3.44c0,0.7,0.01,1.11,0.04,1.22s0.1,0.21,0.2,0.28c0.11,0.07,0.24,0.11,0.39,0.11
		c0.21,0,0.51-0.07,0.91-0.22l0.19,1.75c-0.53,0.23-1.12,0.34-1.79,0.34c-0.41,0-0.78-0.07-1.1-0.2c-0.33-0.14-0.57-0.32-0.72-0.53
		c-0.15-0.22-0.25-0.52-0.31-0.89c-0.05-0.26-0.07-0.79-0.07-1.59v-3.73h-1.04v-1.8h1.04v-1.7l2.27-1.32v3.02h1.53V42.36z"/>
	<path class="st4" d="M263.77,50.91l-2.7-8.55h2.2l1.6,5.6l1.47-5.6h2.18l1.42,5.6l1.63-5.6h2.23l-2.74,8.55h-2.17l-1.47-5.5
		l-1.45,5.5H263.77z"/>
	<path class="st4" d="M324.95,42.36v1.8h-1.54v3.44c0,0.7,0.01,1.11,0.04,1.22s0.1,0.21,0.2,0.28c0.11,0.07,0.24,0.11,0.39,0.11
		c0.21,0,0.51-0.07,0.91-0.22l0.19,1.75c-0.53,0.23-1.12,0.34-1.79,0.34c-0.41,0-0.78-0.07-1.1-0.2c-0.33-0.14-0.57-0.32-0.72-0.53
		c-0.15-0.22-0.25-0.52-0.31-0.89c-0.05-0.26-0.07-0.79-0.07-1.59v-3.73h-1.04v-1.8h1.04v-1.7l2.27-1.32v3.02h1.53V42.36z
		 M328.77,39.11v4.34c0.73-0.85,1.6-1.28,2.62-1.28c0.52,0,0.99,0.1,1.41,0.29c0.42,0.19,0.73,0.44,0.94,0.74
		c0.21,0.3,0.36,0.63,0.43,1c0.08,0.36,0.12,0.93,0.12,1.7v5.01h-2.26V46.4c0-0.9-0.04-1.46-0.13-1.71
		c-0.09-0.24-0.24-0.43-0.46-0.57c-0.21-0.14-0.49-0.22-0.81-0.22c-0.38,0-0.71,0.09-1.01,0.27c-0.29,0.18-0.51,0.46-0.65,0.83
		c-0.13,0.36-0.2,0.91-0.2,1.63v4.28h-2.26v-11.8C326.51,39.11,328.77,39.11,328.77,39.11z"/>
	<path class="st4" d="M385.49,42.36h1.26v-0.64c0-0.72,0.08-1.26,0.23-1.61c0.16-0.35,0.44-0.64,0.84-0.86
		c0.41-0.23,0.93-0.34,1.56-0.34c0.64,0,1.27,0.1,1.89,0.29l-0.31,1.58c-0.36-0.09-0.71-0.13-1.04-0.13c-0.33,0-0.56,0.08-0.71,0.23
		c-0.14,0.15-0.21,0.44-0.21,0.88v0.6h1.69v1.78H389v6.77h-2.26v-6.77h-1.26L385.49,42.36L385.49,42.36z"/>
	<path class="st4" d="M86.21,49.41l2.27-0.35c0.1,0.44,0.29,0.78,0.59,1.01c0.3,0.23,0.71,0.34,1.24,0.34
		c0.58,0,1.02-0.11,1.32-0.32c0.2-0.15,0.3-0.35,0.3-0.6c0-0.17-0.05-0.31-0.16-0.43c-0.11-0.11-0.36-0.21-0.76-0.3
		c-1.82-0.4-2.98-0.77-3.47-1.1c-0.68-0.46-1.01-1.1-1.01-1.92c0-0.74,0.29-1.36,0.88-1.87c0.58-0.5,1.49-0.76,2.72-0.76
		c1.17,0,2.04,0.19,2.61,0.57s0.96,0.94,1.17,1.69l-2.13,0.39c-0.09-0.33-0.27-0.59-0.52-0.76c-0.25-0.18-0.61-0.27-1.09-0.27
		c-0.6,0-1.02,0.08-1.28,0.25c-0.17,0.12-0.26,0.27-0.26,0.46c0,0.16,0.08,0.3,0.23,0.41c0.2,0.15,0.91,0.36,2.11,0.64
		c1.21,0.27,2.05,0.61,2.53,1.01c0.47,0.4,0.71,0.96,0.71,1.68c0,0.78-0.33,1.46-0.98,2.02s-1.62,0.84-2.9,0.84
		c-1.16,0-2.09-0.24-2.77-0.71C86.86,50.86,86.42,50.22,86.21,49.41z"/>
	<path class="st4" d="M441.72,48.47l2.27-0.35c0.1,0.44,0.29,0.78,0.59,1.01s0.71,0.34,1.24,0.34c0.58,0,1.02-0.11,1.32-0.32
		c0.2-0.15,0.3-0.35,0.3-0.6c0-0.17-0.05-0.31-0.16-0.43c-0.11-0.11-0.36-0.21-0.76-0.3c-1.82-0.4-2.98-0.77-3.47-1.1
		c-0.68-0.46-1.01-1.1-1.01-1.92c0-0.74,0.29-1.36,0.88-1.87c0.58-0.5,1.49-0.76,2.72-0.76c1.17,0,2.04,0.19,2.61,0.57
		c0.57,0.38,0.96,0.94,1.17,1.69l-2.13,0.39c-0.09-0.33-0.27-0.59-0.52-0.76c-0.25-0.18-0.61-0.27-1.09-0.27
		c-0.6,0-1.02,0.08-1.28,0.25c-0.17,0.12-0.26,0.27-0.26,0.46c0,0.16,0.08,0.3,0.23,0.41c0.2,0.15,0.91,0.36,2.11,0.64
		c1.21,0.27,2.05,0.61,2.53,1.01c0.47,0.4,0.71,0.96,0.71,1.68c0,0.78-0.33,1.46-0.98,2.02c-0.65,0.56-1.62,0.84-2.9,0.84
		c-1.16,0-2.09-0.24-2.77-0.71C442.37,49.92,441.93,49.28,441.72,48.47z"/>
	<rect x="32.62" y="62.39" class="st3" width="31.55" height="387.99"/>
	<line class="st5" x1="64.17" y1="62.38" x2="64.17" y2="449.44"/>
	<line class="st5" x1="122.76" y1="62.85" x2="122.76" y2="449.91"/>
	<path class="st4" d="M40.69,75.66l-1.25,0.14c-0.03-0.26-0.11-0.45-0.24-0.57s-0.3-0.18-0.5-0.18c-0.27,0-0.5,0.12-0.69,0.37
		s-0.31,0.76-0.35,1.53c0.32-0.38,0.72-0.57,1.2-0.57c0.54,0,1,0.21,1.38,0.62c0.39,0.41,0.58,0.94,0.58,1.59
		c0,0.69-0.2,1.24-0.61,1.66c-0.4,0.42-0.92,0.63-1.56,0.63c-0.68,0-1.24-0.26-1.68-0.79s-0.66-1.4-0.66-2.6
		c0-1.24,0.23-2.13,0.69-2.67c0.46-0.55,1.05-0.82,1.78-0.82c0.51,0,0.94,0.14,1.27,0.43C40.38,74.7,40.6,75.11,40.69,75.66z
		 M37.76,78.48c0,0.42,0.1,0.74,0.29,0.97c0.19,0.23,0.41,0.34,0.66,0.34c0.24,0,0.44-0.09,0.6-0.28s0.24-0.49,0.24-0.92
		c0-0.44-0.09-0.76-0.26-0.96c-0.17-0.21-0.39-0.31-0.64-0.31s-0.46,0.1-0.63,0.29C37.85,77.81,37.76,78.09,37.76,78.48z
		 M42.79,77.35l-1.17-0.21c0.13-0.47,0.36-0.82,0.68-1.05s0.8-0.34,1.43-0.34c0.58,0,1.01,0.07,1.29,0.21
		c0.28,0.13,0.48,0.31,0.59,0.52c0.12,0.21,0.17,0.59,0.17,1.15l-0.01,1.51c0,0.43,0.02,0.75,0.06,0.95s0.12,0.42,0.23,0.65h-1.28
		c-0.03-0.09-0.08-0.21-0.12-0.38c-0.02-0.08-0.04-0.13-0.05-0.15c-0.22,0.21-0.46,0.38-0.71,0.48c-0.25,0.11-0.52,0.16-0.8,0.16
		c-0.5,0-0.9-0.14-1.19-0.41c-0.29-0.27-0.43-0.62-0.43-1.03c0-0.28,0.07-0.52,0.2-0.74s0.32-0.38,0.55-0.5
		c0.24-0.12,0.58-0.22,1.03-0.3c0.6-0.11,1.02-0.22,1.26-0.32v-0.13c0-0.25-0.06-0.42-0.18-0.53s-0.35-0.16-0.69-0.16
		c-0.23,0-0.41,0.05-0.54,0.14C42.98,76.97,42.87,77.13,42.79,77.35z M44.52,78.4c-0.17,0.06-0.43,0.12-0.79,0.2
		c-0.36,0.08-0.59,0.15-0.7,0.23c-0.17,0.12-0.25,0.27-0.25,0.46c0,0.18,0.07,0.34,0.2,0.47c0.13,0.13,0.31,0.2,0.52,0.2
		c0.23,0,0.46-0.08,0.67-0.23c0.16-0.12,0.26-0.26,0.31-0.43c0.03-0.11,0.05-0.32,0.05-0.63L44.52,78.4L44.52,78.4z M46.97,75.86
		h1.19v0.67c0.43-0.52,0.93-0.78,1.52-0.78c0.31,0,0.58,0.06,0.81,0.19c0.23,0.13,0.42,0.32,0.57,0.58
		c0.21-0.26,0.45-0.46,0.69-0.58c0.25-0.13,0.51-0.19,0.8-0.19c0.36,0,0.66,0.07,0.91,0.22c0.25,0.14,0.43,0.36,0.56,0.64
		c0.09,0.21,0.13,0.55,0.13,1.01v3.12h-1.29v-2.79c0-0.48-0.04-0.8-0.13-0.94c-0.12-0.18-0.3-0.28-0.55-0.28
		c-0.18,0-0.35,0.06-0.51,0.17s-0.27,0.27-0.34,0.49c-0.07,0.21-0.11,0.55-0.11,1.01v2.34h-1.29v-2.68c0-0.48-0.02-0.78-0.07-0.92
		s-0.12-0.24-0.22-0.31c-0.1-0.07-0.23-0.1-0.39-0.1c-0.2,0-0.38,0.05-0.54,0.16s-0.27,0.26-0.34,0.46s-0.1,0.54-0.1,1.01v2.37
		h-1.29L46.97,75.86L46.97,75.86z"/>
	<path class="st4" d="M37.42,117.13c-0.33-0.14-0.58-0.33-0.73-0.58c-0.15-0.25-0.23-0.52-0.23-0.81c0-0.5,0.17-0.92,0.52-1.25
		c0.35-0.33,0.85-0.49,1.5-0.49c0.64,0,1.14,0.16,1.49,0.49c0.36,0.33,0.53,0.74,0.53,1.25c0,0.31-0.08,0.59-0.24,0.84
		c-0.16,0.24-0.39,0.43-0.69,0.56c0.37,0.15,0.66,0.37,0.85,0.66c0.2,0.29,0.29,0.62,0.29,1c0,0.62-0.2,1.13-0.6,1.52
		c-0.4,0.39-0.92,0.58-1.58,0.58c-0.61,0-1.12-0.16-1.53-0.48c-0.48-0.38-0.72-0.9-0.72-1.56c0-0.36,0.09-0.7,0.27-1
		C36.74,117.54,37.03,117.3,37.42,117.13z M37.69,115.83c0,0.26,0.07,0.46,0.22,0.6s0.34,0.22,0.58,0.22c0.25,0,0.44-0.07,0.59-0.22
		s0.22-0.35,0.22-0.61c0-0.24-0.07-0.44-0.22-0.58c-0.14-0.15-0.34-0.22-0.57-0.22c-0.25,0-0.45,0.07-0.59,0.22
		C37.76,115.4,37.69,115.59,37.69,115.83z M37.57,118.72c0,0.36,0.09,0.63,0.27,0.83c0.18,0.2,0.41,0.3,0.69,0.3
		c0.27,0,0.49-0.1,0.66-0.29s0.26-0.47,0.26-0.83c0-0.32-0.09-0.57-0.27-0.76s-0.4-0.29-0.68-0.29c-0.32,0-0.55,0.11-0.71,0.33
		C37.64,118.23,37.57,118.47,37.57,118.72z M42.79,117.38l-1.17-0.21c0.13-0.47,0.36-0.82,0.68-1.05s0.8-0.34,1.43-0.34
		c0.58,0,1.01,0.07,1.29,0.21c0.28,0.13,0.48,0.31,0.59,0.52c0.12,0.21,0.17,0.59,0.17,1.15l-0.01,1.51c0,0.43,0.02,0.75,0.06,0.95
		s0.12,0.42,0.23,0.65h-1.28c-0.03-0.09-0.08-0.21-0.12-0.38c-0.02-0.08-0.04-0.13-0.05-0.15c-0.22,0.21-0.46,0.38-0.71,0.48
		c-0.25,0.11-0.52,0.16-0.8,0.16c-0.5,0-0.9-0.14-1.19-0.41c-0.29-0.27-0.43-0.62-0.43-1.03c0-0.28,0.07-0.52,0.2-0.74
		s0.32-0.38,0.55-0.5c0.24-0.12,0.58-0.22,1.03-0.3c0.6-0.11,1.02-0.22,1.26-0.32v-0.13c0-0.25-0.06-0.42-0.18-0.53
		s-0.35-0.16-0.69-0.16c-0.23,0-0.41,0.05-0.54,0.14C42.98,116.99,42.87,117.15,42.79,117.38z M44.52,118.43
		c-0.17,0.06-0.43,0.12-0.79,0.2c-0.36,0.08-0.59,0.15-0.7,0.23c-0.17,0.12-0.25,0.27-0.25,0.46c0,0.18,0.07,0.34,0.2,0.47
		c0.13,0.13,0.31,0.2,0.52,0.2c0.23,0,0.46-0.08,0.67-0.23c0.16-0.12,0.26-0.26,0.31-0.43c0.03-0.11,0.05-0.32,0.05-0.63
		L44.52,118.43L44.52,118.43z M46.97,115.89h1.19v0.67c0.43-0.52,0.93-0.78,1.52-0.78c0.31,0,0.58,0.06,0.81,0.19
		c0.23,0.13,0.42,0.32,0.57,0.58c0.21-0.26,0.45-0.46,0.69-0.58c0.25-0.13,0.51-0.19,0.8-0.19c0.36,0,0.66,0.07,0.91,0.22
		c0.25,0.14,0.43,0.36,0.56,0.64c0.09,0.21,0.13,0.55,0.13,1.01v3.12h-1.29v-2.79c0-0.48-0.04-0.8-0.13-0.94
		c-0.12-0.18-0.3-0.28-0.55-0.28c-0.18,0-0.35,0.06-0.51,0.17s-0.27,0.27-0.34,0.49c-0.07,0.21-0.11,0.55-0.11,1.01v2.34h-1.29
		v-2.68c0-0.48-0.02-0.78-0.07-0.92s-0.12-0.24-0.22-0.31c-0.1-0.07-0.23-0.1-0.39-0.1c-0.2,0-0.38,0.05-0.54,0.16
		s-0.27,0.26-0.34,0.46s-0.1,0.54-0.1,1.01v2.37h-1.29L46.97,115.89L46.97,115.89z"/>
	<path class="st4" d="M39.62,160.33h-1.29v-4.87c-0.47,0.44-1.03,0.77-1.67,0.98v-1.17c0.34-0.11,0.7-0.32,1.1-0.63
		c0.4-0.31,0.67-0.67,0.81-1.08h1.05V160.33z M43.74,153.56c0.65,0,1.16,0.23,1.53,0.7c0.44,0.55,0.66,1.47,0.66,2.75
		s-0.22,2.19-0.66,2.75c-0.36,0.46-0.87,0.69-1.53,0.69s-1.18-0.25-1.59-0.75c-0.4-0.51-0.6-1.41-0.6-2.7
		c0-1.27,0.22-2.18,0.66-2.74C42.58,153.79,43.08,153.56,43.74,153.56z M43.74,154.63c-0.16,0-0.3,0.05-0.42,0.15
		c-0.12,0.1-0.22,0.28-0.29,0.53c-0.09,0.33-0.13,0.9-0.13,1.69c0,0.79,0.04,1.34,0.12,1.63c0.08,0.29,0.18,0.49,0.3,0.59
		c0.12,0.1,0.26,0.15,0.42,0.15s0.3-0.05,0.42-0.15c0.12-0.1,0.22-0.28,0.29-0.54c0.09-0.33,0.13-0.89,0.13-1.68
		s-0.04-1.33-0.12-1.63c-0.08-0.3-0.18-0.49-0.3-0.59C44.03,154.68,43.89,154.63,43.74,154.63z M48.04,156.93l-1.17-0.21
		c0.13-0.47,0.36-0.82,0.68-1.05s0.8-0.34,1.43-0.34c0.58,0,1.01,0.07,1.29,0.21c0.28,0.13,0.48,0.31,0.59,0.52
		c0.12,0.21,0.17,0.59,0.17,1.15l-0.01,1.51c0,0.43,0.02,0.75,0.06,0.95s0.12,0.42,0.23,0.65h-1.28c-0.03-0.09-0.08-0.21-0.12-0.38
		c-0.02-0.08-0.04-0.13-0.05-0.15c-0.22,0.21-0.46,0.38-0.71,0.48c-0.25,0.11-0.52,0.16-0.8,0.16c-0.5,0-0.9-0.14-1.19-0.41
		c-0.29-0.27-0.43-0.62-0.43-1.03c0-0.28,0.07-0.52,0.2-0.74s0.32-0.38,0.55-0.5c0.24-0.12,0.58-0.22,1.03-0.3
		c0.6-0.11,1.02-0.22,1.26-0.32V157c0-0.25-0.06-0.42-0.18-0.53s-0.35-0.16-0.69-0.16c-0.23,0-0.41,0.05-0.54,0.14
		C48.22,156.55,48.12,156.7,48.04,156.93z M49.77,157.98c-0.17,0.06-0.43,0.12-0.79,0.2s-0.59,0.15-0.7,0.23
		c-0.17,0.12-0.25,0.27-0.25,0.46c0,0.18,0.07,0.34,0.2,0.47s0.31,0.2,0.52,0.2c0.23,0,0.46-0.08,0.67-0.23
		c0.16-0.12,0.26-0.26,0.31-0.43c0.03-0.11,0.05-0.32,0.05-0.63L49.77,157.98L49.77,157.98z M52.22,155.44h1.19v0.67
		c0.43-0.52,0.93-0.78,1.52-0.78c0.31,0,0.58,0.06,0.81,0.19s0.42,0.32,0.57,0.58c0.21-0.26,0.45-0.46,0.69-0.58
		c0.25-0.13,0.51-0.19,0.8-0.19c0.36,0,0.66,0.07,0.91,0.22c0.25,0.14,0.43,0.36,0.56,0.64c0.09,0.21,0.13,0.55,0.13,1.01v3.12
		h-1.29v-2.79c0-0.48-0.04-0.8-0.13-0.94c-0.12-0.18-0.3-0.28-0.55-0.28c-0.18,0-0.35,0.06-0.51,0.17s-0.27,0.27-0.34,0.49
		c-0.07,0.21-0.11,0.55-0.11,1.01v2.34h-1.29v-2.68c0-0.48-0.02-0.78-0.07-0.92s-0.12-0.24-0.22-0.31c-0.1-0.07-0.23-0.1-0.39-0.1
		c-0.2,0-0.38,0.05-0.54,0.16s-0.27,0.26-0.34,0.46c-0.07,0.2-0.1,0.54-0.1,1.01v2.37h-1.29L52.22,155.44L52.22,155.44z"/>
	<path class="st4" d="M39.62,200.35h-1.29v-4.87c-0.47,0.44-1.03,0.77-1.67,0.98v-1.17c0.34-0.11,0.7-0.32,1.1-0.63
		c0.4-0.31,0.67-0.67,0.81-1.08h1.05V200.35z M45.92,199.15v1.2h-4.53c0.05-0.45,0.2-0.88,0.44-1.29c0.25-0.41,0.73-0.95,1.45-1.62
		c0.58-0.54,0.94-0.91,1.07-1.1c0.18-0.27,0.27-0.53,0.27-0.79c0-0.29-0.08-0.51-0.23-0.66c-0.15-0.16-0.37-0.23-0.64-0.23
		s-0.48,0.08-0.64,0.24s-0.25,0.43-0.28,0.81l-1.29-0.13c0.08-0.71,0.32-1.22,0.72-1.53s0.91-0.46,1.52-0.46
		c0.67,0,1.19,0.18,1.57,0.54s0.57,0.8,0.57,1.34c0,0.3-0.06,0.59-0.17,0.87c-0.11,0.27-0.28,0.56-0.51,0.86
		c-0.16,0.2-0.44,0.49-0.85,0.86s-0.67,0.62-0.78,0.74c-0.11,0.12-0.19,0.24-0.26,0.36L45.92,199.15L45.92,199.15z M46.97,195.47
		h1.19v0.67c0.43-0.52,0.93-0.78,1.52-0.78c0.31,0,0.58,0.06,0.81,0.19s0.42,0.32,0.57,0.58c0.21-0.26,0.45-0.46,0.69-0.58
		c0.25-0.13,0.51-0.19,0.8-0.19c0.36,0,0.66,0.07,0.91,0.22c0.25,0.14,0.43,0.36,0.56,0.64c0.09,0.21,0.13,0.55,0.13,1.01v3.12
		h-1.29v-2.79c0-0.48-0.04-0.8-0.13-0.94c-0.12-0.18-0.3-0.28-0.55-0.28c-0.18,0-0.35,0.06-0.51,0.17s-0.27,0.27-0.34,0.49
		c-0.07,0.21-0.11,0.55-0.11,1.01v2.34h-1.29v-2.68c0-0.48-0.02-0.78-0.07-0.92s-0.12-0.24-0.22-0.31c-0.1-0.07-0.23-0.1-0.39-0.1
		c-0.2,0-0.38,0.05-0.54,0.16s-0.27,0.26-0.34,0.46c-0.07,0.2-0.1,0.54-0.1,1.01v2.37h-1.29L46.97,195.47L46.97,195.47z"/>
	<path class="st4" d="M40.68,239.64v1.2h-4.53c0.05-0.45,0.2-0.88,0.44-1.29c0.25-0.41,0.73-0.95,1.45-1.62
		c0.58-0.54,0.94-0.91,1.07-1.1c0.18-0.27,0.27-0.53,0.27-0.79c0-0.29-0.08-0.51-0.23-0.66c-0.15-0.16-0.37-0.23-0.64-0.23
		s-0.48,0.08-0.64,0.24s-0.25,0.43-0.28,0.81l-1.29-0.13c0.08-0.71,0.32-1.22,0.72-1.53s0.91-0.46,1.52-0.46
		c0.67,0,1.19,0.18,1.57,0.54s0.57,0.8,0.57,1.34c0,0.3-0.06,0.59-0.17,0.87c-0.11,0.27-0.28,0.56-0.51,0.86
		c-0.16,0.2-0.44,0.49-0.85,0.86s-0.67,0.62-0.78,0.74c-0.11,0.12-0.19,0.24-0.26,0.36L40.68,239.64L40.68,239.64z M41.79,235.96
		h1.2v0.72c0.16-0.24,0.37-0.44,0.63-0.6c0.27-0.15,0.56-0.23,0.89-0.23c0.57,0,1.05,0.22,1.44,0.67c0.4,0.44,0.59,1.06,0.59,1.86
		c0,0.82-0.2,1.45-0.6,1.9c-0.4,0.45-0.88,0.68-1.45,0.68c-0.27,0-0.51-0.05-0.74-0.16c-0.22-0.11-0.45-0.29-0.69-0.55v2.46h-1.27
		V235.96z M43.07,238.32c0,0.55,0.11,0.95,0.33,1.22c0.22,0.26,0.48,0.39,0.8,0.39c0.3,0,0.55-0.12,0.75-0.36s0.3-0.64,0.3-1.19
		c0-0.51-0.1-0.89-0.31-1.14c-0.21-0.25-0.46-0.37-0.76-0.37c-0.32,0-0.58,0.12-0.79,0.37C43.18,237.48,43.07,237.84,43.07,238.32z
		 M47.49,235.96h1.19v0.67c0.43-0.52,0.93-0.78,1.52-0.78c0.31,0,0.58,0.06,0.81,0.19s0.42,0.32,0.57,0.58
		c0.21-0.26,0.45-0.46,0.69-0.58c0.25-0.13,0.51-0.19,0.8-0.19c0.36,0,0.66,0.07,0.91,0.22c0.25,0.14,0.43,0.36,0.56,0.64
		c0.09,0.21,0.13,0.55,0.13,1.01v3.12h-1.29v-2.79c0-0.48-0.04-0.8-0.13-0.94c-0.12-0.18-0.3-0.28-0.55-0.28
		c-0.18,0-0.35,0.06-0.51,0.17s-0.27,0.27-0.34,0.49c-0.07,0.21-0.11,0.55-0.11,1.01v2.34h-1.29v-2.68c0-0.48-0.02-0.78-0.07-0.92
		s-0.12-0.24-0.22-0.31c-0.1-0.07-0.23-0.1-0.39-0.1c-0.2,0-0.38,0.05-0.54,0.16s-0.27,0.26-0.34,0.46c-0.07,0.2-0.1,0.54-0.1,1.01
		v2.37h-1.3V235.96z"/>
	<path class="st4" d="M38.84,280.4v-1.36h-2.75v-1.13l2.92-4.28h1.09v4.28h0.84v1.14H40.1v1.36h-1.26V280.4z M38.84,277.91v-2.3
		l-1.55,2.3H38.84z M41.79,275.52h1.2v0.72c0.16-0.24,0.37-0.44,0.63-0.6c0.27-0.15,0.56-0.23,0.89-0.23c0.57,0,1.05,0.22,1.44,0.67
		c0.4,0.44,0.59,1.06,0.59,1.86c0,0.82-0.2,1.45-0.6,1.9c-0.4,0.45-0.88,0.68-1.45,0.68c-0.27,0-0.51-0.05-0.74-0.16
		c-0.22-0.11-0.45-0.29-0.69-0.55v2.46h-1.27V275.52z M43.07,277.87c0,0.55,0.11,0.95,0.33,1.22c0.22,0.26,0.48,0.39,0.8,0.39
		c0.3,0,0.55-0.12,0.75-0.36s0.3-0.64,0.3-1.19c0-0.51-0.1-0.89-0.31-1.14c-0.21-0.25-0.46-0.37-0.76-0.37
		c-0.32,0-0.58,0.12-0.79,0.37S43.07,277.4,43.07,277.87z M47.49,275.52h1.19v0.67c0.43-0.52,0.93-0.78,1.52-0.78
		c0.31,0,0.58,0.06,0.81,0.19s0.42,0.32,0.57,0.58c0.21-0.26,0.45-0.46,0.69-0.58c0.25-0.13,0.51-0.19,0.8-0.19
		c0.36,0,0.66,0.07,0.91,0.22c0.25,0.14,0.43,0.36,0.56,0.64c0.09,0.21,0.13,0.55,0.13,1.01v3.12h-1.29v-2.79
		c0-0.48-0.04-0.8-0.13-0.94c-0.12-0.18-0.3-0.28-0.55-0.28c-0.18,0-0.35,0.06-0.51,0.17c-0.16,0.11-0.27,0.27-0.34,0.49
		c-0.07,0.21-0.11,0.55-0.11,1.01v2.34h-1.29v-2.68c0-0.48-0.02-0.78-0.07-0.92s-0.12-0.24-0.22-0.31c-0.1-0.07-0.23-0.1-0.39-0.1
		c-0.2,0-0.38,0.05-0.54,0.16c-0.16,0.11-0.27,0.26-0.34,0.46c-0.07,0.2-0.1,0.54-0.1,1.01v2.37h-1.3V275.52z"/>
	<path class="st4" d="M40.69,315.33l-1.25,0.14c-0.03-0.26-0.11-0.45-0.24-0.57s-0.3-0.18-0.5-0.18c-0.27,0-0.5,0.12-0.69,0.37
		s-0.31,0.76-0.35,1.53c0.32-0.38,0.72-0.57,1.2-0.57c0.54,0,1,0.21,1.38,0.62c0.39,0.41,0.58,0.94,0.58,1.59
		c0,0.69-0.2,1.24-0.61,1.66c-0.4,0.42-0.92,0.63-1.56,0.63c-0.68,0-1.24-0.26-1.68-0.79s-0.66-1.4-0.66-2.6
		c0-1.24,0.23-2.13,0.69-2.67c0.46-0.55,1.05-0.82,1.78-0.82c0.51,0,0.94,0.14,1.27,0.43C40.38,314.37,40.6,314.79,40.69,315.33z
		 M37.76,318.15c0,0.42,0.1,0.74,0.29,0.97c0.19,0.23,0.41,0.34,0.66,0.34c0.24,0,0.44-0.09,0.6-0.28s0.24-0.49,0.24-0.92
		c0-0.44-0.09-0.76-0.26-0.96c-0.17-0.21-0.39-0.31-0.64-0.31s-0.46,0.1-0.63,0.29C37.85,317.48,37.76,317.77,37.76,318.15z
		 M41.79,315.54h1.2v0.72c0.16-0.24,0.37-0.44,0.63-0.6c0.27-0.15,0.56-0.23,0.89-0.23c0.57,0,1.05,0.22,1.44,0.67
		c0.4,0.44,0.59,1.06,0.59,1.86c0,0.82-0.2,1.45-0.6,1.9c-0.4,0.45-0.88,0.68-1.45,0.68c-0.27,0-0.51-0.05-0.74-0.16
		c-0.22-0.11-0.45-0.29-0.69-0.55v2.46h-1.27V315.54z M43.07,317.9c0,0.55,0.11,0.95,0.33,1.22c0.22,0.26,0.48,0.39,0.8,0.39
		c0.3,0,0.55-0.12,0.75-0.36s0.3-0.64,0.3-1.19c0-0.51-0.1-0.89-0.31-1.14c-0.21-0.25-0.46-0.37-0.76-0.37
		c-0.32,0-0.58,0.12-0.79,0.37C43.18,317.06,43.07,317.42,43.07,317.9z M47.49,315.54h1.19v0.67c0.43-0.52,0.93-0.78,1.52-0.78
		c0.31,0,0.58,0.06,0.81,0.19s0.42,0.32,0.57,0.58c0.21-0.26,0.45-0.46,0.69-0.58c0.25-0.13,0.51-0.19,0.8-0.19
		c0.36,0,0.66,0.07,0.91,0.22c0.25,0.14,0.43,0.36,0.56,0.64c0.09,0.21,0.13,0.55,0.13,1.01v3.12h-1.29v-2.79
		c0-0.48-0.04-0.8-0.13-0.94c-0.12-0.18-0.3-0.28-0.55-0.28c-0.18,0-0.35,0.06-0.51,0.17c-0.16,0.11-0.27,0.27-0.34,0.49
		c-0.07,0.21-0.11,0.55-0.11,1.01v2.34h-1.29v-2.68c0-0.48-0.02-0.78-0.07-0.92s-0.12-0.24-0.22-0.31c-0.1-0.07-0.23-0.1-0.39-0.1
		c-0.2,0-0.38,0.05-0.54,0.16c-0.16,0.11-0.27,0.26-0.34,0.46c-0.07,0.2-0.1,0.54-0.1,1.01v2.37h-1.3V315.54z"/>
	<path class="st4" d="M37.42,356.81c-0.33-0.14-0.58-0.33-0.73-0.58c-0.15-0.25-0.23-0.52-0.23-0.81c0-0.5,0.17-0.92,0.52-1.25
		c0.35-0.33,0.85-0.49,1.5-0.49c0.64,0,1.14,0.16,1.49,0.49c0.36,0.33,0.53,0.74,0.53,1.25c0,0.31-0.08,0.59-0.24,0.84
		c-0.16,0.24-0.39,0.43-0.69,0.56c0.37,0.15,0.66,0.37,0.85,0.66c0.2,0.29,0.29,0.62,0.29,1c0,0.62-0.2,1.13-0.6,1.52
		c-0.4,0.39-0.92,0.58-1.58,0.58c-0.61,0-1.12-0.16-1.53-0.48c-0.48-0.38-0.72-0.9-0.72-1.56c0-0.36,0.09-0.7,0.27-1
		C36.74,357.21,37.03,356.98,37.42,356.81z M37.69,355.51c0,0.26,0.07,0.46,0.22,0.6s0.34,0.22,0.58,0.22
		c0.25,0,0.44-0.07,0.59-0.22s0.22-0.35,0.22-0.61c0-0.24-0.07-0.44-0.22-0.58c-0.14-0.15-0.34-0.22-0.57-0.22
		c-0.25,0-0.45,0.07-0.59,0.22C37.76,355.07,37.69,355.27,37.69,355.51z M37.57,358.4c0,0.36,0.09,0.63,0.27,0.83
		c0.18,0.2,0.41,0.3,0.69,0.3c0.27,0,0.49-0.1,0.66-0.29s0.26-0.47,0.26-0.83c0-0.32-0.09-0.57-0.27-0.76s-0.4-0.29-0.68-0.29
		c-0.32,0-0.55,0.11-0.71,0.33C37.64,357.91,37.57,358.14,37.57,358.4z M41.79,355.56h1.2v0.72c0.16-0.24,0.37-0.44,0.63-0.6
		c0.27-0.15,0.56-0.23,0.89-0.23c0.57,0,1.05,0.22,1.44,0.67c0.4,0.44,0.59,1.06,0.59,1.86c0,0.82-0.2,1.45-0.6,1.9
		c-0.4,0.45-0.88,0.68-1.45,0.68c-0.27,0-0.51-0.05-0.74-0.16c-0.22-0.11-0.45-0.29-0.69-0.55v2.46h-1.27V355.56z M43.07,357.92
		c0,0.55,0.11,0.95,0.33,1.22c0.22,0.26,0.48,0.39,0.8,0.39c0.3,0,0.55-0.12,0.75-0.36s0.3-0.64,0.3-1.19c0-0.51-0.1-0.89-0.31-1.14
		c-0.21-0.25-0.46-0.37-0.76-0.37c-0.32,0-0.58,0.12-0.79,0.37C43.18,357.08,43.07,357.44,43.07,357.92z M47.49,355.56h1.19v0.67
		c0.43-0.52,0.93-0.78,1.52-0.78c0.31,0,0.58,0.06,0.81,0.19s0.42,0.32,0.57,0.58c0.21-0.26,0.45-0.46,0.69-0.58
		c0.25-0.13,0.51-0.19,0.8-0.19c0.36,0,0.66,0.07,0.91,0.22c0.25,0.14,0.43,0.36,0.56,0.64c0.09,0.21,0.13,0.55,0.13,1.01v3.12
		h-1.29v-2.79c0-0.48-0.04-0.8-0.13-0.94c-0.12-0.18-0.3-0.28-0.55-0.28c-0.18,0-0.35,0.06-0.51,0.17
		c-0.16,0.11-0.27,0.27-0.34,0.49c-0.07,0.21-0.11,0.55-0.11,1.01v2.34h-1.29v-2.68c0-0.48-0.02-0.78-0.07-0.92
		s-0.12-0.24-0.22-0.31c-0.1-0.07-0.23-0.1-0.39-0.1c-0.2,0-0.38,0.05-0.54,0.16c-0.16,0.11-0.27,0.26-0.34,0.46
		c-0.07,0.2-0.1,0.54-0.1,1.01v2.37h-1.3V355.56z"/>
	<path class="st4" d="M39.62,400.47h-1.29v-4.87c-0.47,0.44-1.03,0.77-1.67,0.98v-1.17c0.34-0.11,0.7-0.32,1.1-0.63
		c0.4-0.31,0.67-0.67,0.81-1.08h1.05V400.47z M43.74,393.7c0.65,0,1.16,0.23,1.53,0.7c0.44,0.55,0.66,1.47,0.66,2.75
		s-0.22,2.19-0.66,2.75c-0.36,0.46-0.87,0.69-1.53,0.69s-1.18-0.25-1.59-0.75c-0.4-0.51-0.6-1.41-0.6-2.7
		c0-1.27,0.22-2.18,0.66-2.74C42.58,393.93,43.08,393.7,43.74,393.7z M43.74,394.77c-0.16,0-0.3,0.05-0.42,0.15
		s-0.22,0.28-0.29,0.53c-0.09,0.33-0.13,0.9-0.13,1.69s0.04,1.34,0.12,1.63c0.08,0.29,0.18,0.49,0.3,0.59s0.26,0.15,0.42,0.15
		s0.3-0.05,0.42-0.15s0.22-0.28,0.29-0.54c0.09-0.33,0.13-0.89,0.13-1.68c0-0.79-0.04-1.33-0.12-1.63c-0.08-0.3-0.18-0.49-0.3-0.59
		C44.03,394.83,43.89,394.77,43.74,394.77z M47.03,395.59h1.2v0.72c0.16-0.24,0.37-0.44,0.63-0.6c0.27-0.15,0.56-0.23,0.89-0.23
		c0.57,0,1.05,0.22,1.44,0.67c0.4,0.44,0.59,1.06,0.59,1.86c0,0.82-0.2,1.45-0.6,1.9c-0.4,0.45-0.88,0.68-1.45,0.68
		c-0.27,0-0.51-0.05-0.74-0.16c-0.22-0.11-0.45-0.29-0.69-0.55v2.46h-1.29v-6.75H47.03z M48.31,397.95c0,0.55,0.11,0.95,0.33,1.22
		c0.22,0.26,0.48,0.39,0.8,0.39c0.3,0,0.55-0.12,0.75-0.36s0.3-0.64,0.3-1.19c0-0.51-0.1-0.89-0.31-1.14
		c-0.21-0.25-0.46-0.37-0.76-0.37c-0.32,0-0.58,0.12-0.79,0.37C48.42,397.11,48.31,397.47,48.31,397.95z M52.73,395.59h1.19v0.67
		c0.43-0.52,0.93-0.78,1.52-0.78c0.31,0,0.58,0.06,0.81,0.19s0.42,0.32,0.57,0.58c0.21-0.26,0.45-0.46,0.69-0.58
		c0.25-0.13,0.51-0.19,0.8-0.19c0.36,0,0.66,0.07,0.91,0.22c0.25,0.14,0.43,0.36,0.56,0.64c0.09,0.21,0.13,0.55,0.13,1.01v3.12
		h-1.29v-2.79c0-0.48-0.04-0.8-0.13-0.94c-0.12-0.18-0.3-0.28-0.55-0.28c-0.18,0-0.35,0.06-0.51,0.17
		c-0.16,0.11-0.27,0.27-0.34,0.49c-0.07,0.21-0.11,0.55-0.11,1.01v2.34h-1.29v-2.68c0-0.48-0.02-0.78-0.07-0.92
		s-0.12-0.24-0.22-0.31c-0.1-0.07-0.23-0.1-0.39-0.1c-0.2,0-0.38,0.05-0.54,0.16c-0.16,0.11-0.27,0.26-0.34,0.46
		c-0.07,0.2-0.1,0.54-0.1,1.01v2.37h-1.29L52.73,395.59L52.73,395.59z"/>
	<path class="st4" d="M39.62,439.08h-1.29v-4.87c-0.47,0.44-1.03,0.77-1.67,0.98v-1.17c0.34-0.11,0.7-0.32,1.1-0.63
		c0.4-0.31,0.67-0.67,0.81-1.08h1.05V439.08z M45.92,437.88v1.2h-4.53c0.05-0.45,0.2-0.88,0.44-1.29c0.25-0.41,0.73-0.95,1.45-1.62
		c0.58-0.54,0.94-0.91,1.07-1.1c0.18-0.27,0.27-0.53,0.27-0.79c0-0.29-0.08-0.51-0.23-0.66c-0.15-0.16-0.37-0.23-0.64-0.23
		s-0.48,0.08-0.64,0.24s-0.25,0.43-0.28,0.81l-1.29-0.13c0.08-0.71,0.32-1.22,0.72-1.53s0.91-0.46,1.52-0.46
		c0.67,0,1.19,0.18,1.57,0.54c0.38,0.36,0.57,0.8,0.57,1.34c0,0.3-0.06,0.59-0.17,0.87c-0.11,0.27-0.28,0.56-0.51,0.86
		c-0.16,0.2-0.44,0.49-0.85,0.86s-0.67,0.62-0.78,0.74s-0.19,0.24-0.26,0.36L45.92,437.88L45.92,437.88z M47.03,434.2h1.2v0.72
		c0.16-0.24,0.37-0.44,0.63-0.6c0.27-0.15,0.56-0.23,0.89-0.23c0.57,0,1.05,0.22,1.44,0.67c0.4,0.44,0.59,1.06,0.59,1.86
		c0,0.82-0.2,1.45-0.6,1.9c-0.4,0.45-0.88,0.68-1.45,0.68c-0.27,0-0.51-0.05-0.74-0.16c-0.22-0.11-0.45-0.29-0.69-0.55v2.46h-1.29
		v-6.75H47.03z M48.31,436.56c0,0.55,0.11,0.95,0.33,1.22c0.22,0.26,0.48,0.39,0.8,0.39c0.3,0,0.55-0.12,0.75-0.36
		s0.3-0.64,0.3-1.19c0-0.51-0.1-0.89-0.31-1.14c-0.21-0.25-0.46-0.37-0.76-0.37c-0.32,0-0.58,0.12-0.79,0.37
		C48.42,435.72,48.31,436.08,48.31,436.56z M52.73,434.2h1.19v0.67c0.43-0.52,0.93-0.78,1.52-0.78c0.31,0,0.58,0.06,0.81,0.19
		s0.42,0.32,0.57,0.58c0.21-0.26,0.45-0.46,0.69-0.58c0.25-0.13,0.51-0.19,0.8-0.19c0.36,0,0.66,0.07,0.91,0.22
		c0.25,0.14,0.43,0.36,0.56,0.64c0.09,0.21,0.13,0.55,0.13,1.01v3.12h-1.29v-2.79c0-0.48-0.04-0.8-0.13-0.94
		c-0.12-0.18-0.3-0.28-0.55-0.28c-0.18,0-0.35,0.06-0.51,0.17c-0.16,0.11-0.27,0.27-0.34,0.49c-0.07,0.21-0.11,0.55-0.11,1.01v2.34
		h-1.29v-2.68c0-0.48-0.02-0.78-0.07-0.92s-0.12-0.24-0.22-0.31c-0.1-0.07-0.23-0.1-0.39-0.1c-0.2,0-0.38,0.05-0.54,0.16
		c-0.16,0.11-0.27,0.26-0.34,0.46c-0.07,0.2-0.1,0.54-0.1,1.01v2.37h-1.29L52.73,434.2L52.73,434.2z"/>
	<line class="st5" x1="181.35" y1="62.85" x2="181.35" y2="449.91"/>
	<line class="st5" x1="239.94" y1="62.85" x2="239.94" y2="449.91"/>
	<line class="st5" x1="298.52" y1="62.85" x2="298.52" y2="449.91"/>
	<line class="st5" x1="357.11" y1="62.85" x2="357.11" y2="449.91"/>
	<line class="st5" x1="415.7" y1="62.85" x2="415.7" y2="449.91"/>
	<line class="st5" x1="474.29" y1="62.85" x2="474.29" y2="449.91"/>
	<rect x="64.84" y="8.78" class="st6" width="204.15" height="52.93"/>
	<text transform="matrix(1 0 0 1 64.8427 23.0952)" class="st7 st8">events: march 21-27</text>
	<g>
		<rect x="81" y="462.26" class="st6" width="29.07" height="19.11"/>
		<text transform="matrix(1 0 0 1 80.9969 473.7203)"><tspan x="0" y="0" class="st4 st7 st9">21</tspan><tspan x="17.8" y="0" class="st7 st9"> </tspan></text>
	</g>
	<g>
		<rect x="143.43" y="462.26" class="st6" width="29.07" height="19.11"/>
		<text transform="matrix(1 0 0 1 143.4301 473.7203)"><tspan x="0" y="0" class="st4 st7 st9">22</tspan><tspan x="17.8" y="0" class="st7 st9"> </tspan></text>
	</g>
	<g>
		<rect x="203.04" y="462.26" class="st6" width="29.07" height="19.11"/>
		<text transform="matrix(1 0 0 1 203.0386 473.7203)"><tspan x="0" y="0" class="st4 st7 st9">23</tspan><tspan x="17.8" y="0" class="st7 st9"> </tspan></text>
	</g>
	<g>
		<rect x="263.22" y="462.26" class="st6" width="29.07" height="19.11"/>
		<text transform="matrix(1 0 0 1 263.2167 473.7203)"><tspan x="0" y="0" class="st4 st7 st9">24</tspan><tspan x="17.8" y="0" class="st7 st9"> </tspan></text>
	</g>
	<g>
		<rect x="321.04" y="462.26" class="st6" width="29.07" height="19.11"/>
		<text transform="matrix(1 0 0 1 321.0449 473.7203)"><tspan x="0" y="0" class="st4 st7 st9">25</tspan><tspan x="17.8" y="0" class="st7 st9"> </tspan></text>
	</g>
	<g>
		<rect x="378.4" y="462.26" class="st6" width="29.07" height="19.11"/>
		<text transform="matrix(1 0 0 1 378.4025 473.7203)"><tspan x="0" y="0" class="st4 st7 st9">26</tspan><tspan x="17.8" y="0" class="st7 st9"> </tspan></text>
	</g>
	<g>
		<rect x="434.82" y="462.26" class="st6" width="29.07" height="19.11"/>
		<text transform="matrix(1 0 0 1 434.8194 473.7203)"><tspan x="0" y="0" class="st4 st7 st9">27</tspan><tspan x="17.8" y="0" class="st7 st9"> </tspan></text>
	</g>
</g>
</svg>
