<?xml version="1.0" encoding="utf-8"?>
<!-- Generator: Adobe Illustrator 25.1.0, SVG Export Plug-In . SVG Version: 6.00 Build 0)  -->
<svg version="1.1" id="Layer_1" xmlns="http://www.w3.org/2000/svg" xmlns:xlink="http://www.w3.org/1999/xlink" x="0px" y="0px"
	 viewBox="0 0 500 500" style="enable-background:new 0 0 500 500;" xml:space="preserve">
<style type="text/css">
	.st0{fill:#FFFFFF;stroke:#3F5EAB;stroke-width:2;}
	.st1{fill:#D5D4D4;stroke:#3F5EAB;stroke-width:2;}
	.st2{fill:#3F5EAB;}
	.st3{fill:none;stroke:#3F5EAB;stroke-width:2;}
</style>
<g>
	<path class="st0" d="M433.83,28.68c19.51,0,35.36,15.69,35.61,35.15H29.4c0.25-19.45,16.1-35.15,35.61-35.15H433.83z"/>
	<path class="st0" d="M433.37,485.61c19.51,0,35.36-15.69,35.61-35.15H28.94c0.25,19.45,16.1,35.15,35.61,35.15H433.37z"/>
	<rect x="28.93" y="64.76" class="st0" width="440.05" height="384.76"/>
</g>
<path class="st1" d="M433.33,28.68c19.53,0,35.4,15.71,35.65,35.18H28.94c0.25-19.47,16.12-35.18,35.65-35.18H433.33z"/>
<path class="st1" d="M433.33,485.61c19.53,0,35.4-15.71,35.65-35.18H28.94c0.25,19.48,16.12,35.18,35.65,35.18H433.33z"/>
<g>
	<path d="M68.52,19.17l2.82,0.47c-0.36,1.03-0.94,1.82-1.72,2.37c-0.78,0.54-1.76,0.81-2.93,0.81c-1.86,0-3.24-0.61-4.13-1.82
		c-0.71-0.97-1.06-2.2-1.06-3.69c0-1.77,0.46-3.16,1.39-4.16c0.93-1.01,2.1-1.51,3.52-1.51c1.59,0,2.85,0.53,3.77,1.58
		c0.92,1.05,1.36,2.66,1.32,4.83h-7.1c0.02,0.84,0.25,1.5,0.69,1.97c0.44,0.46,0.98,0.7,1.63,0.7c0.44,0,0.82-0.12,1.12-0.36
		C68.13,20.1,68.36,19.71,68.52,19.17z M68.68,16.31c-0.02-0.82-0.23-1.44-0.64-1.86c-0.4-0.43-0.89-0.65-1.47-0.65
		c-0.62,0-1.13,0.23-1.53,0.68c-0.4,0.45-0.6,1.06-0.59,1.83H68.68z M76.75,22.58l-4.31-10.7h2.97l2.02,5.46l0.58,1.82
		c0.15-0.46,0.25-0.77,0.29-0.92c0.09-0.3,0.2-0.6,0.3-0.91l2.04-5.46h2.91l-4.25,10.7H76.75z M91.5,19.17l2.82,0.47
		c-0.36,1.03-0.94,1.82-1.72,2.37c-0.78,0.54-1.76,0.81-2.93,0.81c-1.86,0-3.24-0.61-4.13-1.82c-0.71-0.97-1.06-2.2-1.06-3.69
		c0-1.77,0.46-3.16,1.39-4.16c0.93-1.01,2.1-1.51,3.52-1.51c1.59,0,2.85,0.53,3.77,1.58c0.92,1.05,1.36,2.66,1.32,4.83h-7.1
		c0.02,0.84,0.25,1.5,0.69,1.97c0.44,0.46,0.98,0.7,1.63,0.7c0.44,0,0.82-0.12,1.12-0.36C91.11,20.1,91.34,19.71,91.5,19.17z
		 M91.66,16.31c-0.02-0.82-0.23-1.44-0.63-1.86c-0.4-0.43-0.89-0.65-1.47-0.65c-0.62,0-1.13,0.23-1.53,0.68
		c-0.4,0.45-0.6,1.06-0.59,1.83H91.66z M106.52,22.58h-2.83v-5.46c0-1.16-0.06-1.9-0.18-2.24c-0.12-0.34-0.32-0.61-0.59-0.8
		c-0.27-0.19-0.59-0.28-0.98-0.28c-0.49,0-0.93,0.13-1.32,0.4c-0.39,0.27-0.66,0.62-0.81,1.07c-0.14,0.44-0.21,1.26-0.21,2.46v4.85
		h-2.83v-10.7h2.63v1.57c0.93-1.21,2.11-1.81,3.53-1.81c0.62,0,1.2,0.11,1.71,0.34c0.52,0.22,0.91,0.51,1.17,0.86
		c0.27,0.35,0.45,0.75,0.55,1.19c0.11,0.44,0.16,1.08,0.16,1.9V22.58z M114.32,11.87v2.26h-1.94v4.31c0,0.87,0.02,1.38,0.05,1.53
		c0.04,0.14,0.12,0.26,0.25,0.35c0.13,0.09,0.3,0.14,0.48,0.14c0.26,0,0.64-0.09,1.14-0.27l0.24,2.2c-0.66,0.28-1.4,0.42-2.24,0.42
		c-0.51,0-0.97-0.08-1.38-0.25c-0.41-0.17-0.71-0.4-0.91-0.67c-0.19-0.28-0.32-0.65-0.39-1.11c-0.06-0.33-0.09-0.99-0.09-2v-4.67
		h-1.3v-2.26h1.3V9.75l2.84-1.65v3.78H114.32z M115.28,19.52l2.84-0.43c0.12,0.55,0.37,0.97,0.74,1.26
		c0.37,0.28,0.89,0.42,1.55,0.42c0.73,0,1.28-0.13,1.65-0.4c0.25-0.19,0.37-0.44,0.37-0.76c0-0.22-0.07-0.39-0.2-0.53
		c-0.14-0.13-0.46-0.26-0.95-0.37c-2.28-0.5-3.73-0.96-4.34-1.38c-0.85-0.58-1.27-1.38-1.27-2.41c0-0.93,0.37-1.71,1.1-2.34
		c0.73-0.63,1.87-0.95,3.41-0.95c1.46,0,2.55,0.24,3.27,0.72c0.71,0.48,1.2,1.18,1.47,2.12l-2.67,0.49
		c-0.11-0.42-0.33-0.74-0.65-0.96c-0.32-0.22-0.77-0.33-1.36-0.33c-0.75,0-1.28,0.1-1.6,0.31c-0.21,0.15-0.32,0.34-0.32,0.57
		c0,0.2,0.09,0.37,0.28,0.51c0.26,0.19,1.14,0.45,2.64,0.8c1.51,0.34,2.57,0.76,3.16,1.26c0.59,0.5,0.89,1.21,0.89,2.11
		c0,0.98-0.41,1.82-1.23,2.53c-0.82,0.71-2.03,1.06-3.64,1.06c-1.46,0-2.61-0.3-3.47-0.89C116.1,21.34,115.54,20.54,115.28,19.52z
		 M128.31,14.71v-2.83h2.83v2.83H128.31z M128.31,22.58v-2.83h2.83v2.83H128.31z M140.18,11.87h2.61v1.46
		c0.93-1.14,2.05-1.7,3.34-1.7c0.69,0,1.28,0.14,1.78,0.42c0.5,0.28,0.92,0.71,1.24,1.28c0.47-0.57,0.98-1,1.52-1.28
		c0.54-0.28,1.13-0.42,1.74-0.42c0.79,0,1.45,0.16,2,0.48c0.54,0.32,0.95,0.78,1.22,1.4c0.19,0.46,0.29,1.2,0.29,2.22v6.84h-2.83
		v-6.12c0-1.06-0.1-1.75-0.29-2.06c-0.26-0.4-0.67-0.6-1.21-0.6c-0.4,0-0.77,0.12-1.12,0.36c-0.35,0.24-0.6,0.6-0.76,1.07
		c-0.15,0.46-0.23,1.2-0.23,2.21v5.14h-2.83v-5.87c0-1.04-0.05-1.71-0.15-2.02c-0.1-0.3-0.26-0.53-0.47-0.68
		c-0.21-0.15-0.49-0.22-0.86-0.22c-0.44,0-0.83,0.12-1.18,0.35c-0.35,0.24-0.6,0.57-0.76,1.02c-0.15,0.44-0.22,1.18-0.22,2.21v5.2
		h-2.83V11.87z M160.87,15.14l-2.57-0.46c0.29-1.03,0.79-1.8,1.49-2.3c0.71-0.5,1.75-0.75,3.14-0.75c1.26,0,2.2,0.15,2.82,0.45
		c0.62,0.3,1.05,0.68,1.3,1.14c0.26,0.46,0.38,1.3,0.38,2.53l-0.03,3.31c0,0.94,0.04,1.64,0.13,2.09c0.09,0.44,0.27,0.92,0.51,1.43
		h-2.8c-0.07-0.19-0.16-0.47-0.27-0.84c-0.05-0.17-0.08-0.28-0.1-0.33c-0.48,0.47-1,0.82-1.55,1.06c-0.55,0.24-1.14,0.35-1.76,0.35
		c-1.1,0-1.97-0.3-2.61-0.9c-0.63-0.6-0.95-1.35-0.95-2.27c0-0.6,0.14-1.14,0.43-1.61c0.29-0.48,0.69-0.84,1.21-1.09
		c0.52-0.26,1.28-0.48,2.26-0.67c1.32-0.25,2.24-0.48,2.75-0.7v-0.28c0-0.54-0.13-0.93-0.4-1.16c-0.27-0.24-0.78-0.35-1.52-0.35
		c-0.5,0-0.9,0.1-1.18,0.3C161.27,14.3,161.04,14.64,160.87,15.14z M164.66,17.44c-0.36,0.12-0.94,0.27-1.72,0.43
		c-0.79,0.17-1.3,0.33-1.54,0.49c-0.37,0.26-0.55,0.59-0.55,1c0,0.4,0.15,0.74,0.44,1.03c0.3,0.29,0.67,0.43,1.13,0.43
		c0.51,0,1-0.17,1.46-0.5c0.34-0.26,0.57-0.57,0.68-0.94c0.07-0.24,0.11-0.7,0.11-1.38V17.44z M172.95,22.58h-2.83v-10.7h2.63v1.52
		c0.45-0.72,0.85-1.19,1.21-1.42c0.36-0.23,0.77-0.34,1.23-0.34c0.65,0,1.27,0.18,1.86,0.53l-0.88,2.47
		c-0.48-0.31-0.92-0.46-1.33-0.46c-0.4,0-0.73,0.11-1.01,0.33c-0.28,0.22-0.49,0.61-0.66,1.18c-0.15,0.57-0.23,1.77-0.23,3.59V22.58
		z M187.62,15.04l-2.79,0.5c-0.09-0.56-0.31-0.98-0.65-1.26c-0.33-0.28-0.76-0.42-1.29-0.42c-0.71,0-1.27,0.25-1.69,0.74
		c-0.42,0.48-0.62,1.3-0.62,2.44c0,1.27,0.21,2.17,0.64,2.69c0.43,0.52,1,0.79,1.72,0.79c0.54,0,0.98-0.15,1.32-0.45
		c0.34-0.31,0.58-0.84,0.73-1.58l2.78,0.47c-0.29,1.28-0.84,2.24-1.66,2.89c-0.82,0.65-1.92,0.98-3.3,0.98
		c-1.57,0-2.82-0.49-3.75-1.48c-0.93-0.99-1.39-2.36-1.39-4.1c0-1.77,0.47-3.14,1.4-4.12c0.93-0.99,2.2-1.48,3.79-1.48
		c1.3,0,2.34,0.28,3.1,0.85C186.73,13.04,187.28,13.89,187.62,15.04z M192.6,7.8v5.43c0.91-1.07,2.01-1.6,3.28-1.6
		c0.65,0,1.24,0.12,1.76,0.36c0.52,0.24,0.92,0.55,1.18,0.93c0.27,0.38,0.45,0.79,0.54,1.25c0.1,0.46,0.15,1.17,0.15,2.13v6.28
		h-2.83v-5.65c0-1.12-0.05-1.83-0.16-2.14c-0.11-0.3-0.3-0.54-0.57-0.72c-0.27-0.18-0.61-0.27-1.02-0.27
		c-0.47,0-0.89,0.11-1.26,0.34c-0.37,0.23-0.64,0.57-0.82,1.04c-0.17,0.46-0.25,1.14-0.25,2.04v5.36h-2.83V7.8H192.6z M217.1,19.95
		v2.63h-9.93c0.11-0.99,0.43-1.94,0.97-2.82c0.54-0.89,1.6-2.08,3.18-3.55c1.28-1.19,2.06-2,2.35-2.42
		c0.39-0.58,0.58-1.16,0.58-1.73c0-0.63-0.17-1.12-0.51-1.45c-0.34-0.34-0.8-0.51-1.4-0.51c-0.59,0-1.06,0.18-1.41,0.53
		c-0.35,0.36-0.55,0.95-0.6,1.77l-2.82-0.28c0.17-1.56,0.7-2.68,1.58-3.36c0.89-0.68,2-1.02,3.33-1.02c1.46,0,2.6,0.39,3.44,1.18
		c0.83,0.79,1.25,1.76,1.25,2.93c0,0.67-0.12,1.3-0.36,1.9c-0.24,0.6-0.61,1.23-1.13,1.88c-0.34,0.44-0.96,1.06-1.85,1.88
		c-0.89,0.82-1.46,1.36-1.7,1.63c-0.24,0.27-0.43,0.53-0.57,0.79H217.1z M221.45,14.61c-0.73-0.31-1.27-0.73-1.6-1.27
		c-0.33-0.54-0.49-1.14-0.49-1.78c0-1.1,0.38-2.01,1.15-2.73c0.77-0.72,1.87-1.08,3.29-1.08c1.4,0,2.49,0.36,3.27,1.08
		c0.78,0.72,1.17,1.63,1.17,2.73c0,0.69-0.18,1.3-0.53,1.83c-0.36,0.53-0.86,0.94-1.5,1.22c0.82,0.33,1.44,0.81,1.86,1.44
		c0.43,0.63,0.65,1.36,0.65,2.19c0,1.36-0.44,2.47-1.31,3.33c-0.87,0.85-2.02,1.28-3.47,1.28c-1.34,0-2.46-0.35-3.36-1.06
		c-1.05-0.83-1.58-1.98-1.58-3.43c0-0.8,0.2-1.53,0.59-2.2C219.98,15.49,220.6,14.97,221.45,14.61z M222.04,11.75
		c0,0.56,0.16,1,0.47,1.32c0.32,0.32,0.75,0.47,1.28,0.47c0.54,0,0.97-0.16,1.29-0.47c0.32-0.32,0.48-0.77,0.48-1.33
		c0-0.53-0.16-0.95-0.48-1.27c-0.32-0.32-0.74-0.48-1.26-0.48c-0.54,0-0.98,0.16-1.3,0.48C222.2,10.8,222.04,11.22,222.04,11.75z
		 M221.78,18.08c0,0.78,0.2,1.39,0.59,1.82c0.4,0.44,0.9,0.66,1.5,0.66c0.58,0,1.07-0.21,1.45-0.62c0.38-0.42,0.57-1.03,0.57-1.82
		c0-0.69-0.2-1.25-0.58-1.66c-0.39-0.42-0.88-0.63-1.48-0.63c-0.69,0-1.21,0.24-1.55,0.72C221.95,17.01,221.78,17.52,221.78,18.08z
		 M230.8,18.64V15.8h5.56v2.83H230.8z M256.32,22.58h-3.25l-1.29-3.36h-5.91l-1.22,3.36h-3.16l5.76-14.78h3.15L256.32,22.58z
		 M250.82,16.73l-2.04-5.48l-2,5.48H250.82z M257.81,11.87h2.64v1.57c0.34-0.54,0.81-0.97,1.39-1.31c0.58-0.34,1.23-0.5,1.95-0.5
		c1.24,0,2.3,0.49,3.16,1.46c0.87,0.97,1.3,2.33,1.3,4.07c0,1.79-0.44,3.18-1.31,4.17c-0.87,0.99-1.93,1.48-3.18,1.48
		c-0.59,0-1.13-0.12-1.61-0.35c-0.48-0.24-0.98-0.64-1.51-1.21v5.39h-2.83V11.87z M260.61,17.04c0,1.2,0.24,2.09,0.72,2.67
		c0.48,0.57,1.06,0.86,1.74,0.86c0.66,0,1.21-0.26,1.64-0.79c0.44-0.53,0.65-1.4,0.65-2.6c0-1.12-0.22-1.96-0.68-2.5
		c-0.45-0.54-1.01-0.82-1.67-0.82c-0.69,0-1.27,0.27-1.72,0.81C260.84,15.21,260.61,16,260.61,17.04z M273.22,22.58h-2.83v-10.7
		h2.63v1.52c0.45-0.72,0.85-1.19,1.21-1.42c0.36-0.23,0.77-0.34,1.23-0.34c0.65,0,1.27,0.18,1.86,0.53l-0.88,2.47
		c-0.48-0.31-0.92-0.46-1.33-0.46c-0.4,0-0.73,0.11-1.01,0.33c-0.28,0.22-0.49,0.61-0.65,1.18c-0.15,0.57-0.23,1.77-0.23,3.59V22.58
		z M278.55,10.42V7.8h2.83v2.62H278.55z M278.55,22.58v-10.7h2.83v10.7H278.55z M284.3,22.58V7.8h2.83v14.78H284.3z M295.08,18.66
		l2.74-0.33c0.09,0.7,0.32,1.23,0.71,1.6c0.38,0.37,0.85,0.55,1.39,0.55c0.58,0,1.08-0.22,1.47-0.67c0.4-0.44,0.6-1.04,0.6-1.79
		c0-0.71-0.19-1.28-0.57-1.69c-0.38-0.42-0.85-0.62-1.4-0.62c-0.36,0-0.8,0.07-1.3,0.21l0.31-2.31c0.77,0.02,1.35-0.14,1.75-0.49
		c0.4-0.36,0.6-0.83,0.6-1.41c0-0.5-0.15-0.89-0.44-1.19c-0.3-0.3-0.69-0.44-1.18-0.44c-0.48,0-0.9,0.17-1.24,0.5
		c-0.34,0.34-0.55,0.83-0.62,1.47l-2.61-0.44c0.18-0.89,0.45-1.61,0.82-2.14c0.37-0.54,0.88-0.96,1.53-1.26
		c0.66-0.31,1.39-0.46,2.21-0.46c1.39,0,2.51,0.44,3.35,1.33c0.69,0.73,1.04,1.55,1.04,2.46c0,1.3-0.71,2.33-2.13,3.1
		c0.85,0.18,1.52,0.59,2.03,1.22c0.51,0.63,0.77,1.39,0.77,2.29c0,1.3-0.47,2.4-1.42,3.32c-0.95,0.91-2.13,1.37-3.54,1.37
		c-1.34,0-2.45-0.38-3.33-1.15C295.73,20.91,295.22,19.9,295.08,18.66z"/>
</g>
<path class="st2" d="M85.09,468.51v2.09h-7.9c0.09-0.79,0.34-1.54,0.77-2.24c0.43-0.71,1.27-1.65,2.53-2.82
	c1.02-0.95,1.64-1.59,1.87-1.92c0.31-0.47,0.46-0.92,0.46-1.38c0-0.5-0.14-0.89-0.41-1.15c-0.27-0.27-0.64-0.41-1.11-0.41
	c-0.47,0-0.84,0.14-1.12,0.42c-0.28,0.28-0.44,0.75-0.48,1.41l-2.24-0.22c0.13-1.24,0.55-2.13,1.26-2.67
	c0.71-0.54,1.59-0.81,2.65-0.81c1.16,0,2.07,0.31,2.73,0.94c0.66,0.63,0.99,1.4,0.99,2.33c0,0.53-0.1,1.03-0.29,1.52
	c-0.19,0.48-0.49,0.98-0.9,1.5c-0.27,0.35-0.76,0.85-1.48,1.5c-0.71,0.65-1.16,1.09-1.35,1.3c-0.19,0.21-0.34,0.42-0.46,0.63H85.09z
	 M88.56,464.26c-0.58-0.25-1.01-0.58-1.27-1.01c-0.26-0.43-0.39-0.91-0.39-1.42c0-0.88,0.3-1.6,0.91-2.17
	c0.62-0.57,1.49-0.86,2.61-0.86c1.12,0,1.98,0.29,2.6,0.86c0.62,0.57,0.93,1.3,0.93,2.17c0,0.55-0.14,1.03-0.42,1.46
	c-0.28,0.42-0.68,0.75-1.19,0.97c0.65,0.26,1.15,0.64,1.48,1.15c0.34,0.5,0.51,1.08,0.51,1.74c0,1.09-0.35,1.97-1.04,2.65
	c-0.69,0.68-1.61,1.02-2.76,1.02c-1.07,0-1.96-0.28-2.67-0.84c-0.84-0.66-1.26-1.57-1.26-2.73c0-0.64,0.16-1.22,0.47-1.75
	C87.38,464.96,87.88,464.55,88.56,464.26z M89.02,461.99c0,0.45,0.13,0.8,0.38,1.05c0.26,0.25,0.6,0.38,1.02,0.38
	c0.43,0,0.77-0.13,1.03-0.38c0.26-0.26,0.39-0.61,0.39-1.06c0-0.42-0.13-0.76-0.39-1.01c-0.25-0.26-0.59-0.38-1-0.38
	c-0.43,0-0.78,0.13-1.03,0.38C89.15,461.23,89.02,461.57,89.02,461.99z M88.81,467.02c0,0.62,0.16,1.1,0.47,1.45
	c0.32,0.35,0.72,0.52,1.19,0.52c0.47,0,0.85-0.17,1.15-0.5c0.3-0.34,0.46-0.82,0.46-1.45c0-0.55-0.16-0.99-0.47-1.32
	c-0.31-0.34-0.7-0.5-1.18-0.5c-0.55,0-0.96,0.19-1.23,0.57C88.95,466.17,88.81,466.58,88.81,467.02z"/>
<path class="st2" d="M139.72,46.9h2.08v1.16c0.74-0.9,1.63-1.35,2.65-1.35c0.55,0,1.02,0.11,1.42,0.34c0.4,0.22,0.73,0.56,0.99,1.02
	c0.37-0.45,0.78-0.79,1.21-1.02s0.9-0.34,1.39-0.34c0.63,0,1.15,0.13,1.59,0.38c0.43,0.25,0.76,0.62,0.97,1.11
	c0.15,0.36,0.23,0.95,0.23,1.76v5.44h-2.25v-4.87c0-0.84-0.08-1.39-0.23-1.64c-0.21-0.32-0.53-0.48-0.96-0.48
	c-0.32,0-0.61,0.1-0.89,0.29c-0.28,0.19-0.48,0.48-0.6,0.85c-0.12,0.37-0.18,0.95-0.18,1.76v4.09h-2.25v-4.67
	c0-0.83-0.04-1.36-0.12-1.6c-0.08-0.24-0.21-0.42-0.38-0.54c-0.17-0.12-0.39-0.18-0.68-0.18c-0.35,0-0.66,0.09-0.94,0.28
	c-0.28,0.19-0.48,0.46-0.6,0.81c-0.12,0.35-0.18,0.94-0.18,1.76v4.14h-2.25V46.9z"/>
<path class="st2" d="M143.73,468.51v2.09h-7.9c0.09-0.79,0.34-1.54,0.77-2.24c0.43-0.71,1.27-1.65,2.53-2.82
	c1.02-0.95,1.64-1.59,1.87-1.92c0.31-0.47,0.46-0.92,0.46-1.38c0-0.5-0.14-0.89-0.41-1.15c-0.27-0.27-0.64-0.41-1.11-0.41
	c-0.47,0-0.84,0.14-1.12,0.42c-0.28,0.28-0.44,0.75-0.48,1.41l-2.24-0.22c0.13-1.24,0.55-2.13,1.26-2.67
	c0.71-0.54,1.59-0.81,2.65-0.81c1.16,0,2.07,0.31,2.73,0.94c0.66,0.63,0.99,1.4,0.99,2.33c0,0.53-0.1,1.03-0.29,1.52
	c-0.19,0.48-0.49,0.98-0.9,1.5c-0.27,0.35-0.76,0.85-1.48,1.5c-0.71,0.65-1.16,1.09-1.35,1.3c-0.19,0.21-0.34,0.42-0.46,0.63H143.73
	z M145.31,467.88l2.18-0.24c0.05,0.44,0.19,0.77,0.42,0.99c0.22,0.21,0.52,0.32,0.89,0.32c0.46,0,0.86-0.21,1.19-0.64
	c0.33-0.43,0.53-1.31,0.63-2.66c-0.57,0.66-1.27,0.99-2.12,0.99c-0.92,0-1.72-0.36-2.4-1.07c-0.67-0.72-1-1.65-1-2.79
	c0-1.19,0.35-2.15,1.06-2.88c0.71-0.73,1.61-1.1,2.71-1.1c1.19,0,2.17,0.46,2.93,1.39c0.76,0.92,1.15,2.43,1.15,4.55
	c0,2.15-0.4,3.7-1.19,4.65c-0.8,0.95-1.83,1.43-3.11,1.43c-0.92,0-1.66-0.24-2.23-0.73C145.84,469.59,145.47,468.85,145.31,467.88z
	 M150.41,462.96c0-0.73-0.17-1.29-0.51-1.69c-0.33-0.4-0.72-0.6-1.15-0.6c-0.42,0-0.76,0.17-1.04,0.5
	c-0.27,0.33-0.41,0.86-0.41,1.61c0,0.76,0.15,1.32,0.45,1.68c0.3,0.35,0.67,0.53,1.12,0.53c0.43,0,0.8-0.17,1.09-0.51
	C150.26,464.12,150.41,463.62,150.41,462.96z"/>
<path class="st2" d="M208.54,46.9v1.8H207v3.43c0,0.69,0.01,1.1,0.04,1.22c0.03,0.11,0.1,0.21,0.2,0.28
	c0.11,0.07,0.24,0.11,0.39,0.11c0.21,0,0.51-0.07,0.91-0.22l0.19,1.75c-0.52,0.22-1.12,0.34-1.78,0.34c-0.41,0-0.77-0.07-1.1-0.2
	c-0.33-0.14-0.57-0.32-0.72-0.53c-0.15-0.22-0.25-0.51-0.31-0.88c-0.05-0.26-0.07-0.79-0.07-1.59V48.7h-1.03v-1.8h1.03v-1.69
	L207,43.9v3.01H208.54z"/>
<path class="st2" d="M197.97,467.48l2.18-0.26c0.07,0.56,0.26,0.98,0.56,1.27c0.3,0.29,0.67,0.44,1.11,0.44
	c0.46,0,0.86-0.18,1.17-0.53c0.32-0.35,0.48-0.83,0.48-1.43c0-0.57-0.15-1.02-0.46-1.35c-0.3-0.33-0.68-0.5-1.11-0.5
	c-0.29,0-0.63,0.06-1.03,0.17l0.25-1.84c0.61,0.02,1.07-0.11,1.4-0.39c0.32-0.28,0.48-0.66,0.48-1.12c0-0.4-0.12-0.71-0.35-0.95
	c-0.24-0.24-0.55-0.35-0.94-0.35c-0.39,0-0.71,0.13-0.99,0.4c-0.27,0.27-0.44,0.66-0.5,1.17l-2.08-0.35
	c0.14-0.71,0.36-1.28,0.65-1.7c0.29-0.43,0.7-0.76,1.22-1c0.52-0.25,1.11-0.37,1.76-0.37c1.11,0,1.99,0.35,2.66,1.06
	c0.55,0.58,0.83,1.23,0.83,1.96c0,1.03-0.56,1.85-1.69,2.47c0.67,0.14,1.21,0.47,1.61,0.97c0.41,0.5,0.61,1.11,0.61,1.82
	c0,1.03-0.38,1.91-1.13,2.64c-0.75,0.73-1.69,1.09-2.81,1.09c-1.06,0-1.95-0.3-2.65-0.91C198.49,469.27,198.08,468.47,197.97,467.48
	z M211,458.8c1.14,0,2.03,0.41,2.67,1.22c0.76,0.96,1.15,2.56,1.15,4.79c0,2.22-0.39,3.82-1.15,4.79c-0.64,0.8-1.52,1.2-2.66,1.2
	c-1.14,0-2.07-0.44-2.77-1.31c-0.7-0.88-1.05-2.45-1.05-4.71c0-2.21,0.38-3.81,1.15-4.78C208.97,459.2,209.86,458.8,211,458.8z
	 M211,460.67c-0.27,0-0.52,0.09-0.73,0.26c-0.21,0.17-0.38,0.48-0.5,0.93c-0.15,0.58-0.23,1.56-0.23,2.94s0.07,2.33,0.21,2.85
	c0.14,0.51,0.31,0.86,0.52,1.03c0.21,0.17,0.46,0.26,0.73,0.26s0.52-0.09,0.73-0.26c0.21-0.18,0.38-0.49,0.5-0.94
	c0.15-0.58,0.23-1.56,0.23-2.93s-0.07-2.33-0.21-2.84c-0.14-0.52-0.32-0.86-0.53-1.03C211.51,460.75,211.27,460.67,211,460.67z"/>
<path class="st2" d="M259.23,55.42l-2.69-8.51h2.19l1.6,5.58l1.47-5.58h2.17l1.42,5.58l1.63-5.58h2.22l-2.73,8.51h-2.16l-1.47-5.48
	l-1.44,5.48H259.23z"/>
<path class="st2" d="M256.14,467.48l2.18-0.26c0.07,0.56,0.26,0.98,0.56,1.27c0.3,0.29,0.67,0.44,1.11,0.44
	c0.46,0,0.86-0.18,1.17-0.53c0.32-0.35,0.48-0.83,0.48-1.43c0-0.57-0.15-1.02-0.46-1.35c-0.3-0.33-0.68-0.5-1.11-0.5
	c-0.29,0-0.63,0.06-1.03,0.17l0.25-1.84c0.61,0.02,1.07-0.11,1.4-0.39c0.32-0.28,0.48-0.66,0.48-1.12c0-0.4-0.12-0.71-0.35-0.95
	c-0.24-0.24-0.55-0.35-0.94-0.35c-0.39,0-0.71,0.13-0.99,0.4c-0.27,0.27-0.44,0.66-0.5,1.17l-2.08-0.35
	c0.14-0.71,0.36-1.28,0.65-1.7c0.29-0.43,0.7-0.76,1.22-1c0.52-0.25,1.11-0.37,1.76-0.37c1.11,0,1.99,0.35,2.66,1.06
	c0.55,0.58,0.83,1.23,0.83,1.96c0,1.03-0.56,1.85-1.69,2.47c0.67,0.14,1.21,0.47,1.61,0.97c0.41,0.5,0.61,1.11,0.61,1.82
	c0,1.03-0.38,1.91-1.13,2.64c-0.75,0.73-1.69,1.09-2.81,1.09c-1.06,0-1.95-0.3-2.65-0.91C256.66,469.27,256.26,468.47,256.14,467.48
	z M271.13,470.6h-2.25v-8.49c-0.82,0.77-1.79,1.34-2.91,1.71v-2.04c0.59-0.19,1.23-0.56,1.92-1.09c0.69-0.54,1.16-1.17,1.42-1.88
	h1.83V470.6z"/>
<path class="st2" d="M320.19,46.9v1.8h-1.54v3.43c0,0.69,0.01,1.1,0.04,1.22c0.03,0.11,0.1,0.21,0.2,0.28
	c0.11,0.07,0.24,0.11,0.39,0.11c0.21,0,0.51-0.07,0.91-0.22l0.19,1.75c-0.52,0.22-1.12,0.34-1.78,0.34c-0.41,0-0.77-0.07-1.1-0.2
	c-0.33-0.14-0.57-0.32-0.72-0.53c-0.15-0.22-0.25-0.51-0.31-0.88c-0.05-0.26-0.07-0.79-0.07-1.59V48.7h-1.03v-1.8h1.03v-1.69
	l2.26-1.31v3.01H320.19z M324,43.66v4.32c0.73-0.85,1.6-1.27,2.61-1.27c0.52,0,0.99,0.1,1.4,0.29c0.42,0.19,0.73,0.44,0.94,0.74
	c0.21,0.3,0.36,0.63,0.43,0.99c0.08,0.36,0.12,0.93,0.12,1.69v4.99h-2.25v-4.5c0-0.89-0.04-1.46-0.13-1.7
	c-0.09-0.24-0.24-0.43-0.46-0.57c-0.21-0.14-0.48-0.22-0.81-0.22c-0.37,0-0.71,0.09-1,0.27c-0.29,0.18-0.51,0.46-0.65,0.83
	c-0.13,0.36-0.2,0.9-0.2,1.62v4.27h-2.25V43.66H324z"/>
<path class="st2" d="M322.97,470.6h-2.25v-8.49c-0.82,0.77-1.79,1.34-2.91,1.71v-2.04c0.59-0.19,1.23-0.56,1.92-1.09
	c0.69-0.54,1.16-1.17,1.42-1.88h1.83V470.6z"/>
<path class="st2" d="M380.51,46.9h1.25v-0.64c0-0.72,0.08-1.25,0.22-1.6c0.15-0.35,0.44-0.64,0.84-0.86
	c0.41-0.22,0.93-0.34,1.56-0.34c0.64,0,1.27,0.1,1.88,0.29l-0.3,1.57c-0.36-0.09-0.7-0.13-1.03-0.13c-0.33,0-0.56,0.08-0.71,0.23
	c-0.14,0.15-0.21,0.44-0.21,0.87v0.6h1.68v1.77h-1.68v6.74h-2.25v-6.74h-1.25V46.9z"/>
<path class="st2" d="M383.93,468.51v2.09h-7.9c0.09-0.79,0.34-1.54,0.77-2.24c0.43-0.71,1.27-1.65,2.53-2.82
	c1.02-0.95,1.64-1.59,1.87-1.92c0.31-0.47,0.46-0.92,0.46-1.38c0-0.5-0.14-0.89-0.41-1.15c-0.27-0.27-0.64-0.41-1.11-0.41
	c-0.47,0-0.84,0.14-1.12,0.42c-0.28,0.28-0.44,0.75-0.48,1.41l-2.24-0.22c0.13-1.24,0.55-2.13,1.26-2.67s1.59-0.81,2.65-0.81
	c1.16,0,2.07,0.31,2.73,0.94c0.66,0.63,0.99,1.4,0.99,2.33c0,0.53-0.1,1.03-0.29,1.52c-0.19,0.48-0.49,0.98-0.9,1.5
	c-0.27,0.35-0.76,0.85-1.48,1.5c-0.71,0.65-1.16,1.09-1.35,1.3c-0.19,0.21-0.34,0.42-0.46,0.63H383.93z"/>
<path class="st2" d="M82.33,53.93l2.26-0.34c0.1,0.44,0.29,0.77,0.59,1c0.29,0.22,0.71,0.34,1.23,0.34c0.58,0,1.02-0.11,1.31-0.32
	c0.2-0.15,0.3-0.35,0.3-0.6c0-0.17-0.05-0.31-0.16-0.43c-0.11-0.11-0.36-0.21-0.75-0.3c-1.82-0.4-2.97-0.77-3.46-1.1
	c-0.67-0.46-1.01-1.1-1.01-1.92c0-0.74,0.29-1.36,0.87-1.86c0.58-0.5,1.49-0.75,2.71-0.75c1.17,0,2.03,0.19,2.6,0.57
	c0.57,0.38,0.96,0.94,1.17,1.68l-2.12,0.39c-0.09-0.33-0.26-0.59-0.52-0.76c-0.25-0.18-0.61-0.26-1.08-0.26
	c-0.59,0-1.02,0.08-1.27,0.25c-0.17,0.12-0.26,0.27-0.26,0.46c0,0.16,0.08,0.3,0.22,0.41c0.2,0.15,0.9,0.36,2.1,0.63
	c1.2,0.27,2.04,0.61,2.52,1c0.47,0.4,0.71,0.96,0.71,1.68c0,0.78-0.33,1.45-0.98,2.01c-0.65,0.56-1.62,0.84-2.89,0.84
	c-1.16,0-2.08-0.24-2.76-0.71C82.98,55.37,82.54,54.73,82.33,53.93z"/>
<path class="st2" d="M432.54,467.48l2.18-0.26c0.07,0.56,0.26,0.98,0.56,1.27c0.3,0.29,0.67,0.44,1.11,0.44
	c0.46,0,0.86-0.18,1.17-0.53c0.32-0.35,0.48-0.83,0.48-1.43c0-0.57-0.15-1.02-0.46-1.35c-0.3-0.33-0.68-0.5-1.11-0.5
	c-0.29,0-0.63,0.06-1.03,0.17l0.25-1.84c0.61,0.02,1.07-0.11,1.4-0.39c0.32-0.28,0.48-0.66,0.48-1.12c0-0.4-0.12-0.71-0.35-0.95
	c-0.24-0.24-0.55-0.35-0.94-0.35c-0.39,0-0.71,0.13-0.99,0.4c-0.27,0.27-0.44,0.66-0.5,1.17l-2.08-0.35
	c0.14-0.71,0.36-1.28,0.65-1.7c0.29-0.43,0.7-0.76,1.22-1c0.52-0.25,1.11-0.37,1.76-0.37c1.11,0,1.99,0.35,2.66,1.06
	c0.55,0.58,0.83,1.23,0.83,1.96c0,1.03-0.56,1.85-1.69,2.47c0.67,0.14,1.21,0.47,1.61,0.97c0.41,0.5,0.61,1.11,0.61,1.82
	c0,1.03-0.38,1.91-1.13,2.64c-0.75,0.73-1.69,1.09-2.81,1.09c-1.06,0-1.95-0.3-2.65-0.91C433.06,469.27,432.65,468.47,432.54,467.48
	z"/>
<path class="st2" d="M436.53,52.99l2.26-0.34c0.1,0.44,0.29,0.77,0.59,1c0.29,0.22,0.71,0.34,1.23,0.34c0.58,0,1.02-0.11,1.32-0.32
	c0.2-0.15,0.3-0.35,0.3-0.6c0-0.17-0.05-0.31-0.16-0.43c-0.11-0.11-0.36-0.21-0.75-0.3c-1.82-0.4-2.97-0.77-3.46-1.1
	c-0.67-0.46-1.01-1.1-1.01-1.92c0-0.74,0.29-1.36,0.87-1.86c0.58-0.5,1.49-0.75,2.71-0.75c1.17,0,2.03,0.19,2.6,0.57
	c0.57,0.38,0.96,0.94,1.17,1.68l-2.12,0.39c-0.09-0.33-0.26-0.59-0.52-0.76c-0.25-0.18-0.61-0.26-1.08-0.26
	c-0.59,0-1.02,0.08-1.27,0.25c-0.17,0.12-0.26,0.27-0.26,0.46c0,0.16,0.08,0.3,0.22,0.41c0.2,0.15,0.9,0.36,2.1,0.63
	c1.2,0.27,2.04,0.61,2.52,1c0.47,0.4,0.71,0.96,0.71,1.68c0,0.78-0.33,1.45-0.98,2.01c-0.65,0.56-1.62,0.84-2.89,0.84
	c-1.16,0-2.08-0.24-2.76-0.71C437.18,54.43,436.74,53.79,436.53,52.99z"/>
<rect x="28.93" y="64.8" class="st1" width="31.43" height="384.69"/>
<line class="st3" x1="59.9" y1="64.33" x2="59.9" y2="449.96"/>
<line class="st3" x1="118.54" y1="64.33" x2="118.54" y2="449.96"/>
<path class="st2" d="M36.98,77.09l-1.25,0.14c-0.03-0.26-0.11-0.45-0.24-0.57c-0.13-0.12-0.29-0.18-0.5-0.18
	c-0.27,0-0.5,0.12-0.69,0.37c-0.19,0.24-0.3,0.75-0.35,1.53c0.32-0.38,0.72-0.57,1.2-0.57c0.54,0,1,0.2,1.38,0.61
	c0.38,0.41,0.58,0.94,0.58,1.59c0,0.69-0.2,1.24-0.6,1.65s-0.92,0.62-1.55,0.62c-0.68,0-1.24-0.26-1.67-0.79
	c-0.44-0.53-0.66-1.39-0.66-2.59c0-1.23,0.23-2.12,0.68-2.66c0.46-0.54,1.05-0.82,1.77-0.82c0.51,0,0.93,0.14,1.26,0.43
	C36.67,76.13,36.89,76.54,36.98,77.09z M34.06,79.89c0,0.42,0.1,0.74,0.29,0.97c0.19,0.23,0.41,0.34,0.66,0.34
	c0.24,0,0.44-0.09,0.6-0.28c0.16-0.19,0.24-0.49,0.24-0.92c0-0.44-0.09-0.76-0.26-0.96c-0.17-0.2-0.38-0.31-0.64-0.31
	c-0.25,0-0.46,0.1-0.63,0.29C34.15,79.23,34.06,79.52,34.06,79.89z M39.08,78.78l-1.17-0.21c0.13-0.47,0.36-0.82,0.68-1.04
	c0.32-0.23,0.8-0.34,1.43-0.34c0.57,0,1,0.07,1.28,0.21c0.28,0.13,0.48,0.31,0.59,0.52c0.12,0.21,0.17,0.59,0.17,1.15l-0.01,1.5
	c0,0.43,0.02,0.74,0.06,0.95c0.04,0.2,0.12,0.42,0.23,0.65h-1.27c-0.03-0.09-0.07-0.21-0.12-0.38c-0.02-0.08-0.04-0.13-0.05-0.15
	c-0.22,0.21-0.46,0.37-0.71,0.48c-0.25,0.11-0.52,0.16-0.8,0.16c-0.5,0-0.9-0.14-1.19-0.41c-0.29-0.27-0.43-0.62-0.43-1.03
	c0-0.27,0.07-0.52,0.2-0.73c0.13-0.22,0.31-0.38,0.55-0.49c0.24-0.12,0.58-0.22,1.03-0.3c0.6-0.11,1.02-0.22,1.25-0.32v-0.13
	c0-0.25-0.06-0.42-0.18-0.53c-0.12-0.11-0.35-0.16-0.69-0.16c-0.23,0-0.41,0.05-0.54,0.14C39.26,78.39,39.16,78.55,39.08,78.78z
	 M40.8,79.82c-0.16,0.05-0.43,0.12-0.78,0.2c-0.36,0.08-0.59,0.15-0.7,0.22c-0.17,0.12-0.25,0.27-0.25,0.45
	c0,0.18,0.07,0.34,0.2,0.47c0.13,0.13,0.31,0.2,0.51,0.2c0.23,0,0.45-0.08,0.66-0.23c0.16-0.12,0.26-0.26,0.31-0.43
	c0.03-0.11,0.05-0.32,0.05-0.63V79.82z M43.24,77.29h1.19v0.66c0.42-0.52,0.93-0.77,1.52-0.77c0.31,0,0.58,0.06,0.81,0.19
	c0.23,0.13,0.42,0.32,0.56,0.58c0.21-0.26,0.44-0.45,0.69-0.58c0.25-0.13,0.51-0.19,0.79-0.19c0.36,0,0.66,0.07,0.91,0.22
	c0.25,0.14,0.43,0.36,0.55,0.64c0.09,0.21,0.13,0.54,0.13,1.01v3.11h-1.29v-2.78c0-0.48-0.04-0.79-0.13-0.93
	c-0.12-0.18-0.3-0.27-0.55-0.27c-0.18,0-0.35,0.05-0.51,0.17c-0.16,0.11-0.27,0.27-0.34,0.49c-0.07,0.21-0.11,0.55-0.11,1v2.34
	h-1.29v-2.67c0-0.47-0.02-0.78-0.07-0.92c-0.05-0.14-0.12-0.24-0.22-0.31c-0.09-0.07-0.22-0.1-0.39-0.1c-0.2,0-0.38,0.05-0.54,0.16
	s-0.27,0.26-0.34,0.46c-0.07,0.2-0.1,0.54-0.1,1v2.36h-1.29V77.29z"/>
<path class="st2" d="M33.72,118.41c-0.33-0.14-0.58-0.33-0.73-0.58c-0.15-0.25-0.22-0.52-0.22-0.81c0-0.5,0.17-0.91,0.52-1.24
	c0.35-0.33,0.85-0.49,1.49-0.49c0.64,0,1.13,0.16,1.48,0.49c0.35,0.33,0.53,0.74,0.53,1.24c0,0.31-0.08,0.59-0.24,0.83
	c-0.16,0.24-0.39,0.43-0.68,0.55c0.37,0.15,0.66,0.37,0.85,0.66c0.2,0.29,0.29,0.62,0.29,0.99c0,0.62-0.2,1.12-0.6,1.51
	c-0.39,0.39-0.92,0.58-1.58,0.58c-0.61,0-1.12-0.16-1.53-0.48c-0.48-0.38-0.72-0.9-0.72-1.56c0-0.36,0.09-0.7,0.27-1
	C33.05,118.81,33.33,118.57,33.72,118.41z M33.99,117.11c0,0.26,0.07,0.46,0.22,0.6c0.15,0.14,0.34,0.22,0.58,0.22
	c0.24,0,0.44-0.07,0.59-0.22c0.15-0.15,0.22-0.35,0.22-0.6c0-0.24-0.07-0.43-0.22-0.58c-0.14-0.15-0.33-0.22-0.57-0.22
	c-0.25,0-0.44,0.07-0.59,0.22C34.06,116.68,33.99,116.87,33.99,117.11z M33.87,119.99c0,0.35,0.09,0.63,0.27,0.83
	c0.18,0.2,0.41,0.3,0.68,0.3c0.27,0,0.49-0.09,0.66-0.28c0.17-0.19,0.26-0.47,0.26-0.83c0-0.31-0.09-0.57-0.27-0.76
	c-0.18-0.19-0.4-0.29-0.67-0.29c-0.31,0-0.55,0.11-0.71,0.33C33.94,119.5,33.87,119.74,33.87,119.99z M39.08,118.65l-1.17-0.21
	c0.13-0.47,0.36-0.82,0.68-1.04c0.32-0.23,0.8-0.34,1.43-0.34c0.57,0,1,0.07,1.28,0.21c0.28,0.13,0.48,0.31,0.59,0.52
	c0.12,0.21,0.17,0.59,0.17,1.15l-0.01,1.5c0,0.43,0.02,0.74,0.06,0.95c0.04,0.2,0.12,0.42,0.23,0.65h-1.27
	c-0.03-0.09-0.07-0.21-0.12-0.38c-0.02-0.08-0.04-0.13-0.05-0.15c-0.22,0.21-0.46,0.37-0.71,0.48c-0.25,0.11-0.52,0.16-0.8,0.16
	c-0.5,0-0.9-0.14-1.19-0.41c-0.29-0.27-0.43-0.62-0.43-1.03c0-0.27,0.07-0.52,0.2-0.73c0.13-0.22,0.31-0.38,0.55-0.49
	c0.24-0.12,0.58-0.22,1.03-0.3c0.6-0.11,1.02-0.22,1.25-0.32v-0.13c0-0.25-0.06-0.42-0.18-0.53c-0.12-0.11-0.35-0.16-0.69-0.16
	c-0.23,0-0.41,0.05-0.54,0.14C39.26,118.27,39.16,118.43,39.08,118.65z M40.8,119.7c-0.16,0.05-0.43,0.12-0.78,0.2
	c-0.36,0.08-0.59,0.15-0.7,0.22c-0.17,0.12-0.25,0.27-0.25,0.45c0,0.18,0.07,0.34,0.2,0.47c0.13,0.13,0.31,0.2,0.51,0.2
	c0.23,0,0.45-0.08,0.66-0.23c0.16-0.12,0.26-0.26,0.31-0.43c0.03-0.11,0.05-0.32,0.05-0.63V119.7z M43.24,117.17h1.19v0.66
	c0.42-0.52,0.93-0.77,1.52-0.77c0.31,0,0.58,0.06,0.81,0.19c0.23,0.13,0.42,0.32,0.56,0.58c0.21-0.26,0.44-0.45,0.69-0.58
	c0.25-0.13,0.51-0.19,0.79-0.19c0.36,0,0.66,0.07,0.91,0.22c0.25,0.14,0.43,0.36,0.55,0.64c0.09,0.21,0.13,0.54,0.13,1.01v3.11
	h-1.29v-2.78c0-0.48-0.04-0.79-0.13-0.93c-0.12-0.18-0.3-0.27-0.55-0.27c-0.18,0-0.35,0.05-0.51,0.17
	c-0.16,0.11-0.27,0.27-0.34,0.49c-0.07,0.21-0.11,0.55-0.11,1v2.34h-1.29v-2.67c0-0.47-0.02-0.78-0.07-0.92
	c-0.05-0.14-0.12-0.24-0.22-0.31c-0.09-0.07-0.22-0.1-0.39-0.1c-0.2,0-0.38,0.05-0.54,0.16c-0.16,0.11-0.27,0.26-0.34,0.46
	c-0.07,0.2-0.1,0.54-0.1,1v2.36h-1.29V117.17z"/>
<path class="st2" d="M35.91,161.44h-1.29v-4.85c-0.47,0.44-1.02,0.77-1.66,0.98v-1.17c0.34-0.11,0.7-0.32,1.09-0.62
	c0.39-0.31,0.66-0.67,0.81-1.08h1.04V161.44z M40.02,154.7c0.65,0,1.16,0.23,1.53,0.7c0.44,0.55,0.66,1.46,0.66,2.74
	c0,1.27-0.22,2.18-0.66,2.74c-0.36,0.46-0.87,0.69-1.52,0.69c-0.65,0-1.18-0.25-1.58-0.75c-0.4-0.5-0.6-1.4-0.6-2.69
	c0-1.26,0.22-2.17,0.66-2.73C38.86,154.93,39.37,154.7,40.02,154.7z M40.02,155.76c-0.16,0-0.29,0.05-0.42,0.15
	c-0.12,0.1-0.22,0.27-0.28,0.53c-0.09,0.33-0.13,0.89-0.13,1.68c0,0.79,0.04,1.33,0.12,1.63c0.08,0.29,0.18,0.49,0.3,0.59
	c0.12,0.1,0.26,0.15,0.42,0.15s0.29-0.05,0.42-0.15c0.12-0.1,0.22-0.28,0.28-0.54c0.09-0.33,0.13-0.89,0.13-1.68
	c0-0.79-0.04-1.33-0.12-1.62c-0.08-0.3-0.18-0.49-0.3-0.59C40.31,155.82,40.17,155.76,40.02,155.76z M44.3,158.06l-1.17-0.21
	c0.13-0.47,0.36-0.82,0.68-1.04c0.32-0.23,0.8-0.34,1.43-0.34c0.57,0,1,0.07,1.28,0.21c0.28,0.13,0.48,0.31,0.59,0.52
	c0.12,0.21,0.17,0.59,0.17,1.15l-0.01,1.5c0,0.43,0.02,0.74,0.06,0.95c0.04,0.2,0.12,0.42,0.23,0.65h-1.27
	c-0.03-0.09-0.07-0.21-0.12-0.38c-0.02-0.08-0.04-0.13-0.05-0.15c-0.22,0.21-0.46,0.37-0.71,0.48c-0.25,0.11-0.52,0.16-0.8,0.16
	c-0.5,0-0.9-0.14-1.19-0.41c-0.29-0.27-0.43-0.62-0.43-1.03c0-0.27,0.07-0.52,0.2-0.73c0.13-0.22,0.31-0.38,0.55-0.49
	c0.24-0.12,0.58-0.22,1.03-0.3c0.6-0.11,1.02-0.22,1.25-0.32v-0.13c0-0.25-0.06-0.42-0.18-0.53c-0.12-0.11-0.35-0.16-0.69-0.16
	c-0.23,0-0.41,0.05-0.54,0.14C44.48,157.68,44.38,157.83,44.3,158.06z M46.02,159.1c-0.16,0.05-0.43,0.12-0.78,0.2
	c-0.36,0.08-0.59,0.15-0.7,0.22c-0.17,0.12-0.25,0.27-0.25,0.45c0,0.18,0.07,0.34,0.2,0.47c0.13,0.13,0.31,0.2,0.51,0.2
	c0.23,0,0.45-0.08,0.66-0.23c0.16-0.12,0.26-0.26,0.31-0.43c0.03-0.11,0.05-0.32,0.05-0.63V159.1z M48.46,156.58h1.19v0.66
	c0.42-0.52,0.93-0.77,1.52-0.77c0.31,0,0.58,0.06,0.81,0.19c0.23,0.13,0.42,0.32,0.56,0.58c0.21-0.26,0.44-0.45,0.69-0.58
	c0.25-0.13,0.51-0.19,0.79-0.19c0.36,0,0.66,0.07,0.91,0.22c0.25,0.14,0.43,0.36,0.55,0.64c0.09,0.21,0.13,0.54,0.13,1.01v3.11
	h-1.29v-2.78c0-0.48-0.04-0.79-0.13-0.93c-0.12-0.18-0.3-0.27-0.55-0.27c-0.18,0-0.35,0.05-0.51,0.17
	c-0.16,0.11-0.27,0.27-0.34,0.49c-0.07,0.21-0.11,0.55-0.11,1v2.34h-1.29v-2.67c0-0.47-0.02-0.78-0.07-0.92
	c-0.05-0.14-0.12-0.24-0.22-0.31c-0.09-0.07-0.22-0.1-0.39-0.1c-0.2,0-0.38,0.05-0.54,0.16c-0.16,0.11-0.27,0.26-0.34,0.46
	c-0.07,0.2-0.1,0.54-0.1,1v2.36h-1.29V156.58z"/>
<path class="st2" d="M35.91,201.32h-1.29v-4.85c-0.47,0.44-1.02,0.77-1.66,0.98v-1.17c0.34-0.11,0.7-0.32,1.09-0.62
	c0.39-0.31,0.66-0.67,0.81-1.08h1.04V201.32z M42.19,200.12v1.2h-4.51c0.05-0.45,0.2-0.88,0.44-1.28c0.24-0.41,0.73-0.94,1.45-1.61
	c0.58-0.54,0.94-0.91,1.07-1.1c0.18-0.27,0.27-0.53,0.27-0.79c0-0.29-0.08-0.51-0.23-0.66c-0.15-0.16-0.36-0.23-0.64-0.23
	c-0.27,0-0.48,0.08-0.64,0.24c-0.16,0.16-0.25,0.43-0.27,0.81l-1.28-0.13c0.08-0.71,0.32-1.22,0.72-1.53
	c0.4-0.31,0.91-0.46,1.51-0.46c0.66,0,1.18,0.18,1.56,0.54c0.38,0.36,0.57,0.8,0.57,1.33c0,0.3-0.05,0.59-0.16,0.87
	c-0.11,0.27-0.28,0.56-0.51,0.86c-0.16,0.2-0.44,0.48-0.84,0.86c-0.41,0.37-0.66,0.62-0.77,0.74c-0.11,0.12-0.19,0.24-0.26,0.36
	H42.19z M43.24,196.45h1.19v0.66c0.42-0.52,0.93-0.77,1.52-0.77c0.31,0,0.58,0.06,0.81,0.19c0.23,0.13,0.42,0.32,0.56,0.58
	c0.21-0.26,0.44-0.45,0.69-0.58c0.25-0.13,0.51-0.19,0.79-0.19c0.36,0,0.66,0.07,0.91,0.22c0.25,0.14,0.43,0.36,0.55,0.64
	c0.09,0.21,0.13,0.54,0.13,1.01v3.11h-1.29v-2.78c0-0.48-0.04-0.79-0.13-0.93c-0.12-0.18-0.3-0.27-0.55-0.27
	c-0.18,0-0.35,0.05-0.51,0.17c-0.16,0.11-0.27,0.27-0.34,0.49c-0.07,0.21-0.11,0.55-0.11,1v2.34h-1.29v-2.67
	c0-0.47-0.02-0.78-0.07-0.92c-0.05-0.14-0.12-0.24-0.22-0.31c-0.09-0.07-0.22-0.1-0.39-0.1c-0.2,0-0.38,0.05-0.54,0.16
	c-0.16,0.11-0.27,0.26-0.34,0.46c-0.07,0.2-0.1,0.54-0.1,1v2.36h-1.29V196.45z"/>
<path class="st2" d="M36.97,240.47v1.2h-4.51c0.05-0.45,0.2-0.88,0.44-1.28c0.24-0.41,0.73-0.94,1.45-1.61
	c0.58-0.54,0.94-0.91,1.07-1.1c0.18-0.27,0.27-0.53,0.27-0.79c0-0.29-0.08-0.51-0.23-0.66c-0.15-0.16-0.36-0.23-0.64-0.23
	c-0.27,0-0.48,0.08-0.64,0.24c-0.16,0.16-0.25,0.43-0.27,0.81l-1.28-0.13c0.08-0.71,0.32-1.22,0.72-1.53
	c0.4-0.31,0.91-0.46,1.51-0.46c0.66,0,1.18,0.18,1.56,0.54c0.38,0.36,0.57,0.8,0.57,1.33c0,0.3-0.05,0.59-0.16,0.87
	c-0.11,0.27-0.28,0.56-0.51,0.86c-0.16,0.2-0.44,0.48-0.84,0.86c-0.41,0.37-0.66,0.62-0.77,0.74c-0.11,0.12-0.19,0.24-0.26,0.36
	H36.97z M38.08,236.8h1.2v0.71c0.16-0.24,0.37-0.44,0.63-0.6c0.27-0.15,0.56-0.23,0.88-0.23c0.57,0,1.04,0.22,1.44,0.66
	c0.39,0.44,0.59,1.06,0.59,1.85c0,0.81-0.2,1.44-0.6,1.9c-0.4,0.45-0.88,0.67-1.44,0.67c-0.27,0-0.51-0.05-0.73-0.16
	c-0.22-0.11-0.45-0.29-0.69-0.55v2.45h-1.29V236.8z M39.35,239.15c0,0.55,0.11,0.95,0.33,1.21c0.22,0.26,0.48,0.39,0.79,0.39
	c0.3,0,0.55-0.12,0.75-0.36c0.2-0.24,0.3-0.64,0.3-1.18c0-0.51-0.1-0.89-0.31-1.14c-0.2-0.25-0.46-0.37-0.76-0.37
	c-0.31,0-0.58,0.12-0.78,0.37C39.46,238.31,39.35,238.67,39.35,239.15z M43.75,236.8h1.19v0.66c0.42-0.52,0.93-0.77,1.52-0.77
	c0.31,0,0.58,0.06,0.81,0.19c0.23,0.13,0.42,0.32,0.56,0.58c0.21-0.26,0.44-0.45,0.69-0.58c0.25-0.13,0.51-0.19,0.79-0.19
	c0.36,0,0.66,0.07,0.91,0.22c0.25,0.14,0.43,0.36,0.55,0.64c0.09,0.21,0.13,0.54,0.13,1.01v3.11h-1.29v-2.78
	c0-0.48-0.04-0.79-0.13-0.93c-0.12-0.18-0.3-0.27-0.55-0.27c-0.18,0-0.35,0.05-0.51,0.17c-0.16,0.11-0.27,0.27-0.34,0.49
	c-0.07,0.21-0.11,0.55-0.11,1v2.34H46.7V239c0-0.47-0.02-0.78-0.07-0.92c-0.05-0.14-0.12-0.24-0.22-0.31
	c-0.09-0.07-0.22-0.1-0.39-0.1c-0.2,0-0.38,0.05-0.54,0.16c-0.16,0.11-0.27,0.26-0.34,0.46c-0.07,0.2-0.1,0.54-0.1,1v2.36h-1.29
	V236.8z"/>
<path class="st2" d="M35.14,281.07v-1.35h-2.75v-1.13l2.91-4.27h1.08v4.26h0.83v1.13h-0.83v1.35H35.14z M35.14,278.59v-2.3
	l-1.54,2.3H35.14z M38.08,276.2h1.2v0.71c0.16-0.24,0.37-0.44,0.63-0.6c0.27-0.15,0.56-0.23,0.88-0.23c0.57,0,1.04,0.22,1.44,0.66
	c0.39,0.44,0.59,1.06,0.59,1.85c0,0.81-0.2,1.44-0.6,1.9c-0.4,0.45-0.88,0.67-1.44,0.67c-0.27,0-0.51-0.05-0.73-0.16
	c-0.22-0.11-0.45-0.29-0.69-0.55v2.45h-1.29V276.2z M39.35,278.55c0,0.55,0.11,0.95,0.33,1.21c0.22,0.26,0.48,0.39,0.79,0.39
	c0.3,0,0.55-0.12,0.75-0.36c0.2-0.24,0.3-0.64,0.3-1.18c0-0.51-0.1-0.89-0.31-1.14c-0.2-0.25-0.46-0.37-0.76-0.37
	c-0.31,0-0.58,0.12-0.78,0.37C39.46,277.72,39.35,278.08,39.35,278.55z M43.75,276.2h1.19v0.66c0.42-0.52,0.93-0.77,1.52-0.77
	c0.31,0,0.58,0.06,0.81,0.19c0.23,0.13,0.42,0.32,0.56,0.58c0.21-0.26,0.44-0.45,0.69-0.58c0.25-0.13,0.51-0.19,0.79-0.19
	c0.36,0,0.66,0.07,0.91,0.22c0.25,0.14,0.43,0.36,0.55,0.64c0.09,0.21,0.13,0.54,0.13,1.01v3.11h-1.29v-2.78
	c0-0.48-0.04-0.79-0.13-0.93c-0.12-0.18-0.3-0.27-0.55-0.27c-0.18,0-0.35,0.05-0.51,0.17c-0.16,0.11-0.27,0.27-0.34,0.49
	c-0.07,0.21-0.11,0.55-0.11,1v2.34H46.7v-2.67c0-0.47-0.02-0.78-0.07-0.92c-0.05-0.14-0.12-0.24-0.22-0.31
	c-0.09-0.07-0.22-0.1-0.39-0.1c-0.2,0-0.38,0.05-0.54,0.16c-0.16,0.11-0.27,0.26-0.34,0.46c-0.07,0.2-0.1,0.54-0.1,1v2.36h-1.29
	V276.2z"/>
<path class="st2" d="M36.98,315.87l-1.25,0.14c-0.03-0.26-0.11-0.45-0.24-0.57c-0.13-0.12-0.29-0.18-0.5-0.18
	c-0.27,0-0.5,0.12-0.69,0.37c-0.19,0.24-0.3,0.75-0.35,1.53c0.32-0.38,0.72-0.57,1.2-0.57c0.54,0,1,0.2,1.38,0.61
	c0.38,0.41,0.58,0.94,0.58,1.59c0,0.69-0.2,1.24-0.6,1.65c-0.4,0.42-0.92,0.62-1.55,0.62c-0.68,0-1.24-0.26-1.67-0.79
	c-0.44-0.53-0.66-1.39-0.66-2.59c0-1.23,0.23-2.12,0.68-2.66c0.46-0.54,1.05-0.82,1.77-0.82c0.51,0,0.93,0.14,1.26,0.43
	C36.67,314.92,36.89,315.33,36.98,315.87z M34.06,318.68c0,0.42,0.1,0.74,0.29,0.97c0.19,0.23,0.41,0.34,0.66,0.34
	c0.24,0,0.44-0.09,0.6-0.28c0.16-0.19,0.24-0.49,0.24-0.92c0-0.44-0.09-0.76-0.26-0.96c-0.17-0.2-0.38-0.31-0.64-0.31
	c-0.25,0-0.46,0.1-0.63,0.29C34.15,318.02,34.06,318.3,34.06,318.68z M38.08,316.08h1.2v0.71c0.16-0.24,0.37-0.44,0.63-0.6
	c0.27-0.15,0.56-0.23,0.88-0.23c0.57,0,1.04,0.22,1.44,0.66c0.39,0.44,0.59,1.06,0.59,1.85c0,0.81-0.2,1.44-0.6,1.9
	c-0.4,0.45-0.88,0.67-1.44,0.67c-0.27,0-0.51-0.05-0.73-0.16c-0.22-0.11-0.45-0.29-0.69-0.55v2.45h-1.29V316.08z M39.35,318.43
	c0,0.55,0.11,0.95,0.33,1.21c0.22,0.26,0.48,0.39,0.79,0.39c0.3,0,0.55-0.12,0.75-0.36c0.2-0.24,0.3-0.64,0.3-1.18
	c0-0.51-0.1-0.89-0.31-1.14c-0.2-0.25-0.46-0.37-0.76-0.37c-0.31,0-0.58,0.12-0.78,0.37C39.46,317.6,39.35,317.95,39.35,318.43z
	 M43.75,316.08h1.19v0.66c0.42-0.52,0.93-0.77,1.52-0.77c0.31,0,0.58,0.06,0.81,0.19c0.23,0.13,0.42,0.32,0.56,0.58
	c0.21-0.26,0.44-0.45,0.69-0.58c0.25-0.13,0.51-0.19,0.79-0.19c0.36,0,0.66,0.07,0.91,0.22c0.25,0.14,0.43,0.36,0.55,0.64
	c0.09,0.21,0.13,0.54,0.13,1.01v3.11h-1.29v-2.78c0-0.48-0.04-0.79-0.13-0.93c-0.12-0.18-0.3-0.27-0.55-0.27
	c-0.18,0-0.35,0.05-0.51,0.17c-0.16,0.11-0.27,0.27-0.34,0.49c-0.07,0.21-0.11,0.55-0.11,1v2.34H46.7v-2.67
	c0-0.47-0.02-0.78-0.07-0.92c-0.05-0.14-0.12-0.24-0.22-0.31c-0.09-0.07-0.22-0.1-0.39-0.1c-0.2,0-0.38,0.05-0.54,0.16
	c-0.16,0.11-0.27,0.26-0.34,0.46c-0.07,0.2-0.1,0.54-0.1,1v2.36h-1.29V316.08z"/>
<path class="st2" d="M33.72,357.2c-0.33-0.14-0.58-0.33-0.73-0.58c-0.15-0.25-0.22-0.52-0.22-0.81c0-0.5,0.17-0.91,0.52-1.24
	c0.35-0.33,0.85-0.49,1.49-0.49c0.64,0,1.13,0.16,1.48,0.49c0.35,0.33,0.53,0.74,0.53,1.24c0,0.31-0.08,0.59-0.24,0.83
	c-0.16,0.24-0.39,0.43-0.68,0.55c0.37,0.15,0.66,0.37,0.85,0.66c0.2,0.29,0.29,0.62,0.29,0.99c0,0.62-0.2,1.12-0.6,1.51
	c-0.39,0.39-0.92,0.58-1.58,0.58c-0.61,0-1.12-0.16-1.53-0.48c-0.48-0.38-0.72-0.9-0.72-1.56c0-0.36,0.09-0.7,0.27-1
	C33.05,357.6,33.33,357.36,33.72,357.2z M33.99,355.9c0,0.26,0.07,0.46,0.22,0.6c0.15,0.14,0.34,0.22,0.58,0.22
	c0.24,0,0.44-0.07,0.59-0.22c0.15-0.15,0.22-0.35,0.22-0.6c0-0.24-0.07-0.43-0.22-0.58c-0.14-0.15-0.33-0.22-0.57-0.22
	c-0.25,0-0.44,0.07-0.59,0.22C34.06,355.47,33.99,355.66,33.99,355.9z M33.87,358.78c0,0.35,0.09,0.63,0.27,0.83
	c0.18,0.2,0.41,0.3,0.68,0.3c0.27,0,0.49-0.09,0.66-0.28c0.17-0.19,0.26-0.47,0.26-0.83c0-0.31-0.09-0.57-0.27-0.76
	c-0.18-0.19-0.4-0.29-0.67-0.29c-0.31,0-0.55,0.11-0.71,0.33C33.94,358.29,33.87,358.53,33.87,358.78z M38.08,355.96h1.2v0.71
	c0.16-0.24,0.37-0.44,0.63-0.6c0.27-0.15,0.56-0.23,0.88-0.23c0.57,0,1.04,0.22,1.44,0.66c0.39,0.44,0.59,1.06,0.59,1.85
	c0,0.81-0.2,1.44-0.6,1.9c-0.4,0.45-0.88,0.67-1.44,0.67c-0.27,0-0.51-0.05-0.73-0.16c-0.22-0.11-0.45-0.29-0.69-0.55v2.45h-1.29
	V355.96z M39.35,358.31c0,0.55,0.11,0.95,0.33,1.21c0.22,0.26,0.48,0.39,0.79,0.39c0.3,0,0.55-0.12,0.75-0.36
	c0.2-0.24,0.3-0.64,0.3-1.18c0-0.51-0.1-0.89-0.31-1.14c-0.2-0.25-0.46-0.37-0.76-0.37c-0.31,0-0.58,0.12-0.78,0.37
	C39.46,357.47,39.35,357.83,39.35,358.31z M43.75,355.96h1.19v0.66c0.42-0.52,0.93-0.77,1.52-0.77c0.31,0,0.58,0.06,0.81,0.19
	c0.23,0.13,0.42,0.32,0.56,0.58c0.21-0.26,0.44-0.45,0.69-0.58c0.25-0.13,0.51-0.19,0.79-0.19c0.36,0,0.66,0.07,0.91,0.22
	c0.25,0.14,0.43,0.36,0.55,0.64c0.09,0.21,0.13,0.54,0.13,1.01v3.11h-1.29v-2.78c0-0.48-0.04-0.79-0.13-0.93
	c-0.12-0.18-0.3-0.27-0.55-0.27c-0.18,0-0.35,0.05-0.51,0.17c-0.16,0.11-0.27,0.27-0.34,0.49c-0.07,0.21-0.11,0.55-0.11,1v2.34H46.7
	v-2.67c0-0.47-0.02-0.78-0.07-0.92c-0.05-0.14-0.12-0.24-0.22-0.31c-0.09-0.07-0.22-0.1-0.39-0.1c-0.2,0-0.38,0.05-0.54,0.16
	c-0.16,0.11-0.27,0.26-0.34,0.46c-0.07,0.2-0.1,0.54-0.1,1v2.36h-1.29V355.96z"/>
<path class="st2" d="M35.91,400.7h-1.29v-4.85c-0.47,0.44-1.02,0.77-1.66,0.98v-1.17c0.34-0.11,0.7-0.32,1.09-0.62
	c0.39-0.31,0.66-0.67,0.81-1.08h1.04V400.7z M40.02,393.95c0.65,0,1.16,0.23,1.53,0.7c0.44,0.55,0.66,1.46,0.66,2.74
	c0,1.27-0.22,2.18-0.66,2.74c-0.36,0.46-0.87,0.69-1.52,0.69c-0.65,0-1.18-0.25-1.58-0.75c-0.4-0.5-0.6-1.4-0.6-2.69
	c0-1.26,0.22-2.17,0.66-2.73C38.86,394.18,39.37,393.95,40.02,393.95z M40.02,395.02c-0.16,0-0.29,0.05-0.42,0.15
	c-0.12,0.1-0.22,0.27-0.28,0.53c-0.09,0.33-0.13,0.89-0.13,1.68c0,0.79,0.04,1.33,0.12,1.63c0.08,0.29,0.18,0.49,0.3,0.59
	c0.12,0.1,0.26,0.15,0.42,0.15s0.29-0.05,0.42-0.15c0.12-0.1,0.22-0.28,0.28-0.54c0.09-0.33,0.13-0.89,0.13-1.68
	c0-0.79-0.04-1.33-0.12-1.62c-0.08-0.3-0.18-0.49-0.3-0.59C40.31,395.07,40.17,395.02,40.02,395.02z M43.3,395.83h1.2v0.71
	c0.16-0.24,0.37-0.44,0.63-0.6c0.27-0.15,0.56-0.23,0.88-0.23c0.57,0,1.04,0.22,1.44,0.66c0.39,0.44,0.59,1.06,0.59,1.85
	c0,0.81-0.2,1.44-0.6,1.9c-0.4,0.45-0.88,0.67-1.44,0.67c-0.27,0-0.51-0.05-0.73-0.16c-0.22-0.11-0.45-0.29-0.69-0.55v2.45H43.3
	V395.83z M44.57,398.18c0,0.55,0.11,0.95,0.33,1.21c0.22,0.26,0.48,0.39,0.79,0.39c0.3,0,0.55-0.12,0.75-0.36
	c0.2-0.24,0.3-0.64,0.3-1.18c0-0.51-0.1-0.89-0.31-1.14c-0.2-0.25-0.46-0.37-0.76-0.37c-0.31,0-0.58,0.12-0.78,0.37
	C44.68,397.35,44.57,397.71,44.57,398.18z M48.98,395.83h1.19v0.66c0.42-0.52,0.93-0.77,1.52-0.77c0.31,0,0.58,0.06,0.81,0.19
	c0.23,0.13,0.42,0.32,0.56,0.58c0.21-0.26,0.44-0.45,0.69-0.58c0.25-0.13,0.51-0.19,0.79-0.19c0.36,0,0.66,0.07,0.91,0.22
	c0.25,0.14,0.43,0.36,0.55,0.64c0.09,0.21,0.13,0.54,0.13,1.01v3.11h-1.29v-2.78c0-0.48-0.04-0.79-0.13-0.93
	c-0.12-0.18-0.3-0.27-0.55-0.27c-0.18,0-0.35,0.05-0.51,0.17c-0.16,0.11-0.27,0.27-0.34,0.49c-0.07,0.21-0.11,0.55-0.11,1v2.34
	h-1.29v-2.67c0-0.47-0.02-0.78-0.07-0.92c-0.05-0.14-0.12-0.24-0.22-0.31c-0.09-0.07-0.22-0.1-0.39-0.1c-0.2,0-0.38,0.05-0.54,0.16
	c-0.16,0.11-0.27,0.26-0.34,0.46c-0.07,0.2-0.1,0.54-0.1,1v2.36h-1.29V395.83z"/>
<path class="st2" d="M35.91,439.17h-1.29v-4.85c-0.47,0.44-1.02,0.77-1.66,0.98v-1.17c0.34-0.11,0.7-0.32,1.09-0.62
	c0.39-0.31,0.66-0.67,0.81-1.08h1.04V439.17z M42.19,437.97v1.2h-4.51c0.05-0.45,0.2-0.88,0.44-1.28c0.24-0.41,0.73-0.94,1.45-1.61
	c0.58-0.54,0.94-0.91,1.07-1.1c0.18-0.27,0.27-0.53,0.27-0.79c0-0.29-0.08-0.51-0.23-0.66c-0.15-0.16-0.36-0.23-0.64-0.23
	c-0.27,0-0.48,0.08-0.64,0.24c-0.16,0.16-0.25,0.43-0.27,0.81l-1.28-0.13c0.08-0.71,0.32-1.22,0.72-1.53
	c0.4-0.31,0.91-0.46,1.51-0.46c0.66,0,1.18,0.18,1.56,0.54c0.38,0.36,0.57,0.8,0.57,1.33c0,0.3-0.05,0.59-0.16,0.87
	c-0.11,0.27-0.28,0.56-0.51,0.86c-0.16,0.2-0.44,0.48-0.84,0.86c-0.41,0.37-0.66,0.62-0.77,0.74c-0.11,0.12-0.19,0.24-0.26,0.36
	H42.19z M43.3,434.3h1.2v0.71c0.16-0.24,0.37-0.44,0.63-0.6c0.27-0.15,0.56-0.23,0.88-0.23c0.57,0,1.04,0.22,1.44,0.66
	c0.39,0.44,0.59,1.06,0.59,1.85c0,0.81-0.2,1.44-0.6,1.9c-0.4,0.45-0.88,0.67-1.44,0.67c-0.27,0-0.51-0.05-0.73-0.16
	c-0.22-0.11-0.45-0.29-0.69-0.55v2.45H43.3V434.3z M44.57,436.65c0,0.55,0.11,0.95,0.33,1.21c0.22,0.26,0.48,0.39,0.79,0.39
	c0.3,0,0.55-0.12,0.75-0.36c0.2-0.24,0.3-0.64,0.3-1.18c0-0.51-0.1-0.89-0.31-1.14c-0.2-0.25-0.46-0.37-0.76-0.37
	c-0.31,0-0.58,0.12-0.78,0.37C44.68,435.82,44.57,436.18,44.57,436.65z M48.98,434.3h1.19v0.66c0.42-0.52,0.93-0.77,1.52-0.77
	c0.31,0,0.58,0.06,0.81,0.19c0.23,0.13,0.42,0.32,0.56,0.58c0.21-0.26,0.44-0.45,0.69-0.58c0.25-0.13,0.51-0.19,0.79-0.19
	c0.36,0,0.66,0.07,0.91,0.22c0.25,0.14,0.43,0.36,0.55,0.64c0.09,0.21,0.13,0.54,0.13,1.01v3.11h-1.29v-2.78
	c0-0.48-0.04-0.79-0.13-0.93c-0.12-0.18-0.3-0.27-0.55-0.27c-0.18,0-0.35,0.05-0.51,0.17c-0.16,0.11-0.27,0.27-0.34,0.49
	c-0.07,0.21-0.11,0.55-0.11,1v2.34h-1.29v-2.67c0-0.47-0.02-0.78-0.07-0.92c-0.05-0.14-0.12-0.24-0.22-0.31
	c-0.09-0.07-0.22-0.1-0.39-0.1c-0.2,0-0.38,0.05-0.54,0.16c-0.16,0.11-0.27,0.26-0.34,0.46c-0.07,0.2-0.1,0.54-0.1,1v2.36h-1.29
	V434.3z"/>
<line class="st3" x1="176.71" y1="64.33" x2="176.71" y2="449.96"/>
<line class="st3" x1="235.35" y1="64.33" x2="235.35" y2="449.96"/>
<line class="st3" x1="293.06" y1="64.33" x2="293.06" y2="449.96"/>
<line class="st3" x1="351.7" y1="64.33" x2="351.7" y2="449.96"/>
<line class="st3" x1="409.87" y1="64.33" x2="409.87" y2="449.96"/>
<line class="st3" x1="468.51" y1="64.33" x2="468.51" y2="449.96"/>
</svg>
